<svg width="154" height="40" viewBox="0 0 154 40" fill="none" xmlns="http://www.w3.org/2000/svg">
<g clip-path="url(#clip0_1020_663)">
<path d="M40.015 19.6159L38.8913 20.8156V23.4731H35.9148V12.843H38.8913V17.2621L43.0066 12.843H46.3172L41.974 17.5506L46.5449 23.4731H43.0522L40.015 19.6159ZM52.5882 20.6486H50.9481V23.4731H47.9413V12.843H52.8008C53.7626 12.843 54.5978 13.005 55.3065 13.329C56.0152 13.6428 56.5619 14.0984 56.9466 14.6957C57.3313 15.2829 57.5236 15.9764 57.5236 16.7762C57.5236 17.5456 57.3414 18.2188 56.9769 18.7959C56.6226 19.3628 56.1113 19.8083 55.4432 20.1322L57.7362 23.4731H54.5168L52.5882 20.6486ZM54.4864 16.7762C54.4864 16.2801 54.3295 15.8954 54.0157 15.622C53.7018 15.3487 53.2361 15.212 52.6186 15.212H50.9481V18.3251H52.6186C53.2361 18.3251 53.7018 18.1935 54.0157 17.9303C54.3295 17.6569 54.4864 17.2722 54.4864 16.7762ZM68.3243 21.1497V23.4731H59.7899V12.843H68.1269V15.1665H62.7663V16.9584H67.4891V19.2059H62.7663V21.1497H68.3243ZM77.7225 21.4079H73.2275L72.3923 23.4731H69.3247L74.0172 12.843H76.9784L81.686 23.4731H78.5577L77.7225 21.4079ZM76.8417 19.1907L75.475 15.7891L74.1083 19.1907H76.8417ZM84.8747 15.2272H81.6097V12.843H91.1313V15.2272H87.8815V23.4731H84.8747V15.2272ZM98.0712 23.6857C96.9475 23.6857 95.9351 23.4478 95.0341 22.972C94.1432 22.4962 93.4396 21.8381 92.9232 20.9978C92.417 20.1576 92.1639 19.211 92.1639 18.1581C92.1639 17.1052 92.417 16.1586 92.9232 15.3183C93.4396 14.478 94.1432 13.82 95.0341 13.3442C95.9351 12.8683 96.9475 12.6304 98.0712 12.6304C99.195 12.6304 100.202 12.8683 101.093 13.3442C101.994 13.82 102.698 14.478 103.204 15.3183C103.72 16.1586 103.979 17.1052 103.979 18.1581C103.979 19.211 103.72 20.1576 103.204 20.9978C102.698 21.8381 101.994 22.4962 101.093 22.972C100.202 23.4478 99.195 23.6857 98.0712 23.6857ZM98.0712 21.1953C98.6078 21.1953 99.0938 21.0687 99.5291 20.8156C99.9644 20.5625 100.309 20.2082 100.562 19.7526C100.815 19.2869 100.941 18.7554 100.941 18.1581C100.941 17.5608 100.815 17.0343 100.562 16.5788C100.309 16.1131 99.9644 15.7537 99.5291 15.5006C99.0938 15.2475 98.6078 15.1209 98.0712 15.1209C97.5347 15.1209 97.0487 15.2475 96.6134 15.5006C96.1781 15.7537 95.8339 16.1131 95.5808 16.5788C95.3277 17.0343 95.2011 17.5608 95.2011 18.1581C95.2011 18.7554 95.3277 19.2869 95.5808 19.7526C95.8339 20.2082 96.1781 20.5625 96.6134 20.8156C97.0487 21.0687 97.5347 21.1953 98.0712 21.1953ZM110.808 20.6486H109.168V23.4731H106.161V12.843H111.02C111.982 12.843 112.817 13.005 113.526 13.329C114.235 13.6428 114.781 14.0984 115.166 14.6957C115.551 15.2829 115.743 15.9764 115.743 16.7762C115.743 17.5456 115.561 18.2188 115.196 18.7959C114.842 19.3628 114.331 19.8083 113.663 20.1322L115.956 23.4731H112.736L110.808 20.6486ZM112.706 16.7762C112.706 16.2801 112.549 15.8954 112.235 15.622C111.921 15.3487 111.456 15.212 110.838 15.212H109.168V18.3251H110.838C111.456 18.3251 111.921 18.1935 112.235 17.9303C112.549 17.6569 112.706 17.2722 112.706 16.7762ZM126.999 21.089V23.4731H117.478V21.5901L122.838 15.2272H117.615V12.843H126.772V14.7261L121.411 21.089H126.999ZM134.618 19.6615V23.4731H131.612V19.6159L127.557 12.843H130.731L133.252 17.0647L135.772 12.843H138.688L134.618 19.6615ZM40.015 32.6159L38.8913 33.8156V36.4731H35.9148V25.843H38.8913V30.2621L43.0066 25.843H46.3172L41.974 30.5506L46.5449 36.4731H43.0522L40.015 32.6159ZM52.5882 33.6486H50.9481V36.4731H47.9413V25.843H52.8008C53.7626 25.843 54.5978 26.005 55.3065 26.329C56.0152 26.6428 56.5619 27.0984 56.9466 27.6957C57.3313 28.2829 57.5236 28.9764 57.5236 29.7762C57.5236 30.5456 57.3414 31.2188 56.9769 31.7959C56.6226 32.3628 56.1113 32.8083 55.4432 33.1322L57.7362 36.4731H54.5168L52.5882 33.6486ZM54.4864 29.7762C54.4864 29.2801 54.3295 28.8954 54.0157 28.622C53.7018 28.3487 53.2361 28.212 52.6186 28.212H50.9481V31.3251H52.6186C53.2361 31.3251 53.7018 31.1935 54.0157 30.9303C54.3295 30.6569 54.4864 30.2722 54.4864 29.7762ZM66.9121 34.4079H62.417L61.5818 36.4731H58.5143L63.2067 25.843H66.168L70.8756 36.4731H67.7473L66.9121 34.4079ZM66.0313 32.1907L64.6646 28.7891L63.2978 32.1907H66.0313ZM74.8813 36.6857C74.1018 36.6857 73.3931 36.5541 72.7553 36.2909C72.1175 36.0176 71.5961 35.6278 71.1912 35.1216L72.8312 33.1778C73.3982 33.9169 74.0107 34.2864 74.6687 34.2864C75.1041 34.2864 75.4331 34.1548 75.6558 33.8915C75.8887 33.6283 76.0051 33.2436 76.0051 32.7374V28.1665H72.3301V25.843H78.9815V32.5552C78.9815 33.932 78.6322 34.9647 77.9337 35.6531C77.2453 36.3415 76.2278 36.6857 74.8813 36.6857ZM86.979 36.6857C85.8553 36.6857 84.8429 36.4478 83.9418 35.972C83.0509 35.4962 82.3473 34.8381 81.831 33.9978C81.3248 33.1576 81.0717 32.211 81.0717 31.1581C81.0717 30.1052 81.3248 29.1586 81.831 28.3183C82.3473 27.478 83.0509 26.82 83.9418 26.3442C84.8429 25.8683 85.8553 25.6304 86.979 25.6304C88.1028 25.6304 89.1101 25.8683 90.001 26.3442C90.902 26.82 91.6057 27.478 92.1119 28.3183C92.6282 29.1586 92.8863 30.1052 92.8863 31.1581C92.8863 32.211 92.6282 33.1576 92.1119 33.9978C91.6057 34.8381 90.902 35.4962 90.001 35.972C89.1101 36.4478 88.1028 36.6857 86.979 36.6857ZM86.979 34.1953C87.5156 34.1953 88.0015 34.0687 88.4369 33.8156C88.8722 33.5625 89.2164 33.2082 89.4695 32.7526C89.7226 32.2869 89.8492 31.7554 89.8492 31.1581C89.8492 30.5608 89.7226 30.0343 89.4695 29.5788C89.2164 29.1131 88.8722 28.7537 88.4369 28.5006C88.0015 28.2475 87.5156 28.1209 86.979 28.1209C86.4425 28.1209 85.9565 28.2475 85.5212 28.5006C85.0859 28.7537 84.7416 29.1131 84.4885 29.5788C84.2354 30.0343 84.1089 30.5608 84.1089 31.1581C84.1089 31.7554 84.2354 32.2869 84.4885 32.7526C84.7416 33.2082 85.0859 33.5625 85.5212 33.8156C85.9565 34.0687 86.4425 34.1953 86.979 34.1953ZM103.239 30.9303C103.846 31.1429 104.322 31.477 104.666 31.9326C105.01 32.378 105.182 32.9196 105.182 33.5575C105.182 34.4889 104.808 35.2077 104.059 35.7139C103.309 36.22 102.226 36.4731 100.809 36.4731H95.0686V25.843H100.505C101.862 25.843 102.894 26.0961 103.603 26.6023C104.312 27.0984 104.666 27.7716 104.666 28.622C104.666 29.1282 104.54 29.5838 104.286 29.9888C104.043 30.3836 103.694 30.6974 103.239 30.9303ZM98.045 28.0146V30.0647H100.11C101.123 30.0647 101.629 29.7205 101.629 29.0321C101.629 28.3538 101.123 28.0146 100.11 28.0146H98.045ZM100.566 34.3016C101.619 34.3016 102.145 33.9422 102.145 33.2234C102.145 32.5046 101.619 32.1452 100.566 32.1452H98.045V34.3016H100.566ZM111.994 33.6486H110.354V36.4731H107.347V25.843H112.207C113.168 25.843 114.004 26.005 114.712 26.329C115.421 26.6428 115.968 27.0984 116.352 27.6957C116.737 28.2829 116.93 28.9764 116.93 29.7762C116.93 30.5456 116.747 31.2188 116.383 31.7959C116.028 32.3628 115.517 32.8083 114.849 33.1322L117.142 36.4731H113.923L111.994 33.6486ZM113.892 29.7762C113.892 29.2801 113.735 28.8954 113.422 28.622C113.108 28.3487 112.642 28.212 112.024 28.212H110.354V31.3251H112.024C112.642 31.3251 113.108 31.1935 113.422 30.9303C113.735 30.6569 113.892 30.2722 113.892 29.7762ZM126.318 34.4079H121.823L120.988 36.4731H117.92L122.613 25.843H125.574L130.281 36.4731H127.153L126.318 34.4079ZM125.437 32.1907L124.07 28.7891L122.704 32.1907H125.437ZM140.731 34.089V36.4731H131.21V34.5901L136.57 28.2272H131.346V25.843H140.504V27.7261L135.143 34.089H140.731ZM147.561 36.6857C145.981 36.6857 144.751 36.2555 143.87 35.3949C143 34.5344 142.564 33.3145 142.564 31.7351V25.843H145.571V31.644C145.571 33.3449 146.245 34.1953 147.591 34.1953C148.927 34.1953 149.596 33.3449 149.596 31.644V25.843H152.557V31.7351C152.557 33.3145 152.116 34.5344 151.236 35.3949C150.365 36.2555 149.14 36.6857 147.561 36.6857Z" fill="#F0F0F0"/>
<path d="M23.7246 2.302C21.3533 2.302 19.4309 4.09914 19.4309 6.31563C19.4309 8.53212 21.353 10.329 23.7246 10.329C26.0956 10.329 28.0185 8.53237 28.0185 6.31563C28.0185 4.09939 26.0956 2.302 23.7246 2.302ZM23.7246 8.11626C22.6607 8.11626 21.7982 7.30979 21.7982 6.31563C21.7982 5.32122 22.661 4.51499 23.7246 4.51499C24.7884 4.51499 25.6507 5.32122 25.6507 6.31563C25.6507 7.30979 24.7884 8.11626 23.7246 8.11626Z" fill="#F0F0F0"/>
<path d="M30.0753 36.6951V36.6961H17.2417V33.3947C17.2417 33.3947 17.3896 29.4123 22.9829 29.4123C28.7552 29.4123 30.0753 24.2384 30.0753 22.5904C30.0753 20.9425 30.0753 18.7447 30.0753 18.7447C30.0753 18.7447 29.9807 14.8818 25.7969 12.8543C21.3568 10.7032 17.2417 13.5908 17.2417 13.8007C17.2417 12.088 17.2417 7.99418 17.2417 7.02551C17.2417 4.4159 14.8266 0.0668945 9.45516 0.0668945C4.19818 0.0668945 1.73439 4.35467 1.73439 7.20845C1.73439 8.9481 1.73439 22.6976 1.73439 22.6976C1.73439 22.6976 1.78391 29.4417 8.7269 29.4417C13.2435 29.4417 14.3007 31.823 14.3007 33.4609C14.3007 34.3714 14.3007 36.6961 14.3007 36.6961H1.73439V36.6951C0.932286 36.7426 0.362793 37.3364 0.362793 38.0641C0.362793 38.7919 0.932286 39.3857 1.73439 39.4329H30.0753C30.6101 39.3859 31.4469 38.7921 31.4469 38.0641C31.4469 37.3366 30.6101 36.7428 30.0753 36.6951ZM4.67543 6.82808C4.67543 6.82808 4.64201 6.09483 5.3246 4.98896C6.1783 3.61443 7.73278 2.69199 9.53029 2.69199C12.2398 2.69199 14.3007 5.15465 14.3007 7.73776C14.3007 7.61606 14.3007 7.86197 14.3007 7.73776V16.3651C14.3007 16.3651 13.102 14.9003 9.19394 14.9003C4.59014 14.8843 4.67543 10.8714 4.67543 10.8714V6.82808ZM14.3007 22.7736V28.2672C14.3007 28.2672 13.102 26.8022 9.19394 26.8022C4.59014 26.7865 4.67543 22.7736 4.67543 22.7736V16.4478C4.67543 16.4478 6.00462 17.6921 9.39046 17.6921C14.9493 17.6921 14.3007 22.7736 14.3007 22.7736ZM17.2417 19.6399C17.2417 17.0568 19.4052 14.5944 22.169 14.5944C24.0026 14.5944 25.586 15.5168 26.4573 16.8914C27.1536 17.9975 27.1343 18.7307 27.1343 18.7307V22.7736C27.1343 22.7736 27.1835 26.7865 22.4877 26.8022C18.4494 26.8022 17.2417 28.2672 17.2417 28.2672V22.7736V19.6399C17.2417 19.7641 17.2417 19.5185 17.2417 19.6399Z" fill="#F0F0F0"/>
</g>
<defs>
<clipPath id="clip0_1020_663">
<rect width="153.48" height="39.366" fill="white" transform="translate(0.362793 0.0668945)"/>
</clipPath>
</defs>
</svg>
