<svg width="196" height="51" viewBox="0 0 196 51" fill="none" xmlns="http://www.w3.org/2000/svg">
<path d="M51.2804 25.1885L49.853 26.7122V30.0876H46.0726V16.586H49.853V22.1988L55.0801 16.586H59.2849L53.7685 22.5653L59.5742 30.0876H55.138L51.2804 25.1885ZM67.25 26.5001H65.1669V30.0876H61.3478V16.586H67.52C68.7416 16.586 69.8024 16.7917 70.7025 17.2032C71.6027 17.6018 72.297 18.1805 72.7857 18.9391C73.2743 19.6849 73.5186 20.5658 73.5186 21.5816C73.5186 22.5589 73.2871 23.414 72.8242 24.1469C72.3742 24.867 71.7248 25.4328 70.8761 25.8443L73.7886 30.0876H69.6996L67.25 26.5001ZM69.661 21.5816C69.661 20.9515 69.4617 20.4629 69.0631 20.1157C68.6644 19.7685 68.0729 19.5949 67.2886 19.5949H65.1669V23.549H67.2886C68.0729 23.549 68.6644 23.3818 69.0631 23.0475C69.4617 22.7003 69.661 22.2117 69.661 21.5816ZM87.2369 27.1366V30.0876H76.397V16.586H86.9862V19.5371H80.1775V21.8131H86.1761V24.6677H80.1775V27.1366H87.2369ZM99.1739 27.4645H93.4646L92.4037 30.0876H88.5075L94.4676 16.586H98.2287L104.208 30.0876H100.235L99.1739 27.4645ZM98.0551 24.6484L96.3192 20.3279L94.5833 24.6484H98.0551ZM108.258 19.6142H104.111V16.586H116.205V19.6142H112.077V30.0876H108.258V19.6142ZM125.019 30.3577C123.592 30.3577 122.306 30.0555 121.162 29.4511C120.03 28.8468 119.137 28.011 118.481 26.9437C117.838 25.8764 117.516 24.6741 117.516 23.3368C117.516 21.9995 117.838 20.7972 118.481 19.73C119.137 18.6627 120.03 17.8269 121.162 17.2225C122.306 16.6181 123.592 16.316 125.019 16.316C126.447 16.316 127.726 16.6181 128.858 17.2225C130.002 17.8269 130.896 18.6627 131.539 19.73C132.195 20.7972 132.522 21.9995 132.522 23.3368C132.522 24.6741 132.195 25.8764 131.539 26.9437C130.896 28.011 130.002 28.8468 128.858 29.4511C127.726 30.0555 126.447 30.3577 125.019 30.3577ZM125.019 27.1944C125.701 27.1944 126.318 27.0337 126.871 26.7122C127.424 26.3908 127.861 25.9407 128.183 25.3621C128.504 24.7706 128.665 24.0955 128.665 23.3368C128.665 22.5782 128.504 21.9095 128.183 21.3309C127.861 20.7394 127.424 20.2829 126.871 19.9614C126.318 19.6399 125.701 19.4792 125.019 19.4792C124.338 19.4792 123.721 19.6399 123.168 19.9614C122.615 20.2829 122.178 20.7394 121.856 21.3309C121.535 21.9095 121.374 22.5782 121.374 23.3368C121.374 24.0955 121.535 24.7706 121.856 25.3621C122.178 25.9407 122.615 26.3908 123.168 26.7122C123.721 27.0337 124.338 27.1944 125.019 27.1944ZM141.196 26.5001H139.113V30.0876H135.294V16.586H141.466C142.688 16.586 143.749 16.7917 144.649 17.2032C145.549 17.6018 146.243 18.1805 146.732 18.9391C147.221 19.6849 147.465 20.5658 147.465 21.5816C147.465 22.5589 147.234 23.414 146.771 24.1469C146.321 24.867 145.671 25.4328 144.823 25.8443L147.735 30.0876H143.646L141.196 26.5001ZM143.607 21.5816C143.607 20.9515 143.408 20.4629 143.009 20.1157C142.611 19.7685 142.019 19.5949 141.235 19.5949H139.113V23.549H141.235C142.019 23.549 142.611 23.3818 143.009 23.0475C143.408 22.7003 143.607 22.2117 143.607 21.5816ZM161.762 27.0594V30.0876H149.668V27.6959L156.477 19.6142H149.842V16.586H161.473V18.9777L154.664 27.0594H161.762ZM171.439 25.2463V30.0876H167.62V25.1885L162.47 16.586H166.501L169.703 21.9481L172.905 16.586H176.608L171.439 25.2463ZM51.2804 42.1885L49.853 43.7122V47.0876H46.0726V33.586H49.853V39.1988L55.0801 33.586H59.2849L53.7685 39.5653L59.5742 47.0876H55.138L51.2804 42.1885ZM67.25 43.5001H65.1669V47.0876H61.3478V33.586H67.52C68.7416 33.586 69.8024 33.7917 70.7025 34.2032C71.6027 34.6018 72.297 35.1805 72.7857 35.9391C73.2743 36.6849 73.5186 37.5658 73.5186 38.5816C73.5186 39.5589 73.2871 40.414 72.8242 41.1469C72.3742 41.867 71.7248 42.4328 70.8761 42.8443L73.7886 47.0876H69.6996L67.25 43.5001ZM69.661 38.5816C69.661 37.9515 69.4617 37.4629 69.0631 37.1157C68.6644 36.7685 68.0729 36.5949 67.2886 36.5949H65.1669V40.549H67.2886C68.0729 40.549 68.6644 40.3818 69.0631 40.0475C69.4617 39.7003 69.661 39.2117 69.661 38.5816ZM85.4432 44.4645H79.7339L78.673 47.0876H74.7768L80.7369 33.586H84.498L90.4773 47.0876H86.504L85.4432 44.4645ZM84.3244 41.6484L82.5885 37.3279L80.8526 41.6484H84.3244ZM95.5652 47.3577C94.5751 47.3577 93.6749 47.1905 92.8648 46.8562C92.0547 46.509 91.3925 46.0139 90.8782 45.371L92.9613 42.9021C93.6814 43.8408 94.4593 44.3102 95.2951 44.3102C95.8481 44.3102 96.266 44.143 96.5489 43.8087C96.8446 43.4743 96.9925 42.9857 96.9925 42.3428V36.5371H92.3248V33.586H100.773V42.1113C100.773 43.8601 100.329 45.1717 99.4421 46.0461C98.5677 46.9205 97.2754 47.3577 95.5652 47.3577ZM110.931 47.3577C109.504 47.3577 108.218 47.0555 107.073 46.4511C105.942 45.8468 105.048 45.011 104.392 43.9437C103.749 42.8764 103.428 41.6741 103.428 40.3368C103.428 38.9995 103.749 37.7972 104.392 36.73C105.048 35.6627 105.942 34.8269 107.073 34.2225C108.218 33.6181 109.504 33.316 110.931 33.316C112.358 33.316 113.638 33.6181 114.769 34.2225C115.914 34.8269 116.807 35.6627 117.45 36.73C118.106 37.7972 118.434 38.9995 118.434 40.3368C118.434 41.6741 118.106 42.8764 117.45 43.9437C116.807 45.011 115.914 45.8468 114.769 46.4511C113.638 47.0555 112.358 47.3577 110.931 47.3577ZM110.931 44.1944C111.612 44.1944 112.23 44.0337 112.782 43.7122C113.335 43.3908 113.773 42.9407 114.094 42.3621C114.416 41.7706 114.576 41.0955 114.576 40.3368C114.576 39.5782 114.416 38.9095 114.094 38.3309C113.773 37.7394 113.335 37.2829 112.782 36.9614C112.23 36.6399 111.612 36.4792 110.931 36.4792C110.249 36.4792 109.632 36.6399 109.079 36.9614C108.526 37.2829 108.089 37.7394 107.768 38.3309C107.446 38.9095 107.285 39.5782 107.285 40.3368C107.285 41.0955 107.446 41.7706 107.768 42.3621C108.089 42.9407 108.526 43.3908 109.079 43.7122C109.632 44.0337 110.249 44.1944 110.931 44.1944ZM131.583 40.0475C132.354 40.3175 132.959 40.7419 133.396 41.3205C133.833 41.8863 134.052 42.5742 134.052 43.3843C134.052 44.5673 133.576 45.4803 132.624 46.1232C131.673 46.7662 130.297 47.0876 128.497 47.0876H121.206V33.586H128.111C129.834 33.586 131.145 33.9075 132.046 34.5504C132.946 35.1805 133.396 36.0356 133.396 37.1157C133.396 37.7586 133.235 38.3373 132.914 38.8516C132.605 39.3531 132.161 39.7517 131.583 40.0475ZM124.986 36.3442V38.9481H127.609C128.895 38.9481 129.538 38.5109 129.538 37.6365C129.538 36.775 128.895 36.3442 127.609 36.3442H124.986ZM128.188 44.3295C129.525 44.3295 130.194 43.873 130.194 42.96C130.194 42.047 129.525 41.5905 128.188 41.5905H124.986V44.3295H128.188ZM142.703 43.5001H140.62V47.0876H136.801V33.586H142.973C144.195 33.586 145.256 33.7917 146.156 34.2032C147.056 34.6018 147.75 35.1805 148.239 35.9391C148.728 36.6849 148.972 37.5658 148.972 38.5816C148.972 39.5589 148.74 40.414 148.278 41.1469C147.827 41.867 147.178 42.4328 146.329 42.8443L149.242 47.0876H145.153L142.703 43.5001ZM145.114 38.5816C145.114 37.9515 144.915 37.4629 144.516 37.1157C144.118 36.7685 143.526 36.5949 142.742 36.5949H140.62V40.549H142.742C143.526 40.549 144.118 40.3818 144.516 40.0475C144.915 39.7003 145.114 39.2117 145.114 38.5816ZM160.896 44.4645H155.187L154.126 47.0876H150.23L156.19 33.586H159.951L165.931 47.0876H161.957L160.896 44.4645ZM159.778 41.6484L158.042 37.3279L156.306 41.6484H159.778ZM179.203 44.0594V47.0876H167.11V44.6959L173.918 36.6142H167.283V33.586H178.914V35.9777L172.105 44.0594H179.203ZM187.877 47.3577C185.871 47.3577 184.309 46.8112 183.19 45.7182C182.085 44.6252 181.532 43.0757 181.532 41.0698V33.586H185.351V40.954C185.351 43.1143 186.206 44.1944 187.916 44.1944C189.613 44.1944 190.462 43.1143 190.462 40.954V33.586H194.223V41.0698C194.223 43.0757 193.664 44.6252 192.545 45.7182C191.439 46.8112 189.883 47.3577 187.877 47.3577Z" fill="#4198BA"/>
<path d="M30.5895 3.16895C27.5777 3.16895 25.136 5.45154 25.136 8.26678C25.136 11.082 27.5773 13.3643 30.5895 13.3643C33.601 13.3643 36.0433 11.0823 36.0433 8.26678C36.0433 5.45186 33.601 3.16895 30.5895 3.16895ZM30.5895 10.5538C29.2383 10.5538 28.1427 9.52949 28.1427 8.26678C28.1427 7.00375 29.2386 5.97974 30.5895 5.97974C31.9407 5.97974 33.0359 7.00375 33.0359 8.26678C33.0359 9.52949 31.9407 10.5538 30.5895 10.5538Z" fill="#4198BA"/>
<path d="M38.6558 46.8528V46.8541H22.3554V42.6609C22.3554 42.6609 22.5432 37.6028 29.6475 37.6028C36.979 37.6028 38.6558 31.0311 38.6558 28.938C38.6558 26.8449 38.6558 24.0535 38.6558 24.0535C38.6558 24.0535 38.5356 19.1471 33.2217 16.5718C27.5821 13.8398 22.3554 17.5073 22.3554 17.7739C22.3554 15.5986 22.3554 10.3989 22.3554 9.16855C22.3554 5.85401 19.2879 0.3302 12.4655 0.3302C5.78844 0.3302 2.6591 5.77624 2.6591 9.40091C2.6591 11.6105 2.6591 29.0742 2.6591 29.0742C2.6591 29.0742 2.72199 37.6401 11.5405 37.6401C17.2772 37.6401 18.6199 40.6646 18.6199 42.745C18.6199 43.9014 18.6199 46.8541 18.6199 46.8541H2.6591V46.8528C1.64032 46.9131 0.916992 47.6673 0.916992 48.5917C0.916992 49.516 1.64032 50.2702 2.6591 50.3302H38.6558C39.335 50.2705 40.3979 49.5163 40.3979 48.5917C40.3979 47.6676 39.335 46.9134 38.6558 46.8528ZM6.39461 8.91779C6.39461 8.91779 6.35216 7.98647 7.21914 6.58187C8.30346 4.83603 10.2778 3.66442 12.5609 3.66442C16.0023 3.66442 18.6199 6.79232 18.6199 10.0732C18.6199 9.91863 18.6199 10.231 18.6199 10.0732V21.031C18.6199 21.031 17.0975 19.1706 12.1337 19.1706C6.28628 19.1503 6.39461 14.0534 6.39461 14.0534V8.91779ZM18.6199 29.1707V36.1483C18.6199 36.1483 17.0975 34.2876 12.1337 34.2876C6.28628 34.2676 6.39461 29.1707 6.39461 29.1707V21.1361C6.39461 21.1361 8.08285 22.7165 12.3833 22.7165C19.4437 22.7165 18.6199 29.1707 18.6199 29.1707ZM22.3554 25.1905C22.3554 21.9096 25.1034 18.7821 28.6138 18.7821C30.9427 18.7821 32.9538 19.9537 34.0605 21.6995C34.9448 23.1044 34.9203 24.0357 34.9203 24.0357V29.1707C34.9203 29.1707 34.9828 34.2676 29.0186 34.2876C23.8893 34.2876 22.3554 36.1483 22.3554 36.1483V29.1707V25.1905C22.3554 25.3483 22.3554 25.0363 22.3554 25.1905Z" fill="#4198BA"/>
</svg>
