<svg width="196" height="50" viewBox="0 0 196 50" fill="none" xmlns="http://www.w3.org/2000/svg">
<path d="M50.7804 24.8582L49.353 26.382V29.7574H45.5726V16.2557H49.353V21.8686L54.5801 16.2557H58.7849L53.2685 22.2351L59.0742 29.7574H54.638L50.7804 24.8582ZM66.75 26.1698H64.6669V29.7574H60.8478V16.2557H67.02C68.2416 16.2557 69.3024 16.4615 70.2025 16.873C71.1027 17.2716 71.797 17.8502 72.2857 18.6089C72.7743 19.3547 73.0186 20.2355 73.0186 21.2514C73.0186 22.2286 72.7871 23.0837 72.3242 23.8167C71.8742 24.5368 71.2248 25.1025 70.3761 25.514L73.2886 29.7574H69.1996L66.75 26.1698ZM69.161 21.2514C69.161 20.6213 68.9617 20.1327 68.5631 19.7855C68.1644 19.4383 67.5729 19.2647 66.7886 19.2647H64.6669V23.2187H66.7886C67.5729 23.2187 68.1644 23.0516 68.5631 22.7173C68.9617 22.3701 69.161 21.8814 69.161 21.2514ZM86.7369 26.8063V29.7574H75.897V16.2557H86.4862V19.2068H79.6775V21.4828H85.6761V24.3375H79.6775V26.8063H86.7369ZM98.6739 27.1342H92.9646L91.9037 29.7574H88.0075L93.9676 16.2557H97.7287L103.708 29.7574H99.7347L98.6739 27.1342ZM97.5551 24.3182L95.8192 19.9976L94.0833 24.3182H97.5551ZM107.758 19.284H103.611V16.2557H115.705V19.284H111.577V29.7574H107.758V19.284ZM124.519 30.0274C123.092 30.0274 121.806 29.7253 120.662 29.1209C119.53 28.5165 118.637 27.6807 117.981 26.6134C117.338 25.5462 117.016 24.3439 117.016 23.0066C117.016 21.6693 117.338 20.467 117.981 19.3997C118.637 18.3324 119.53 17.4966 120.662 16.8923C121.806 16.2879 123.092 15.9857 124.519 15.9857C125.947 15.9857 127.226 16.2879 128.358 16.8923C129.502 17.4966 130.396 18.3324 131.039 19.3997C131.695 20.467 132.022 21.6693 132.022 23.0066C132.022 24.3439 131.695 25.5462 131.039 26.6134C130.396 27.6807 129.502 28.5165 128.358 29.1209C127.226 29.7253 125.947 30.0274 124.519 30.0274ZM124.519 26.8642C125.201 26.8642 125.818 26.7035 126.371 26.382C126.924 26.0605 127.361 25.6105 127.683 25.0318C128.004 24.4403 128.165 23.7652 128.165 23.0066C128.165 22.2479 128.004 21.5793 127.683 21.0006C127.361 20.4091 126.924 19.9526 126.371 19.6312C125.818 19.3097 125.201 19.149 124.519 19.149C123.838 19.149 123.221 19.3097 122.668 19.6312C122.115 19.9526 121.678 20.4091 121.356 21.0006C121.035 21.5793 120.874 22.2479 120.874 23.0066C120.874 23.7652 121.035 24.4403 121.356 25.0318C121.678 25.6105 122.115 26.0605 122.668 26.382C123.221 26.7035 123.838 26.8642 124.519 26.8642ZM140.696 26.1698H138.613V29.7574H134.794V16.2557H140.966C142.188 16.2557 143.249 16.4615 144.149 16.873C145.049 17.2716 145.743 17.8502 146.232 18.6089C146.721 19.3547 146.965 20.2355 146.965 21.2514C146.965 22.2286 146.734 23.0837 146.271 23.8167C145.821 24.5368 145.171 25.1025 144.323 25.514L147.235 29.7574H143.146L140.696 26.1698ZM143.107 21.2514C143.107 20.6213 142.908 20.1327 142.509 19.7855C142.111 19.4383 141.519 19.2647 140.735 19.2647H138.613V23.2187H140.735C141.519 23.2187 142.111 23.0516 142.509 22.7173C142.908 22.3701 143.107 21.8814 143.107 21.2514ZM161.262 26.7292V29.7574H149.168V27.3657L155.977 19.284H149.342V16.2557H160.973V18.6475L154.164 26.7292H161.262ZM170.939 24.9161V29.7574H167.12V24.8582L161.97 16.2557H166.001L169.203 21.6178L172.405 16.2557H176.108L170.939 24.9161ZM50.7804 41.8582L49.353 43.382V46.7574H45.5726V33.2557H49.353V38.8686L54.5801 33.2557H58.7849L53.2685 39.2351L59.0742 46.7574H54.638L50.7804 41.8582ZM66.75 43.1698H64.6669V46.7574H60.8478V33.2557H67.02C68.2416 33.2557 69.3024 33.4615 70.2025 33.873C71.1027 34.2716 71.797 34.8502 72.2857 35.6089C72.7743 36.3547 73.0186 37.2355 73.0186 38.2514C73.0186 39.2286 72.7871 40.0837 72.3242 40.8167C71.8742 41.5368 71.2248 42.1025 70.3761 42.514L73.2886 46.7574H69.1996L66.75 43.1698ZM69.161 38.2514C69.161 37.6213 68.9617 37.1327 68.5631 36.7855C68.1644 36.4383 67.5729 36.2647 66.7886 36.2647H64.6669V40.2187H66.7886C67.5729 40.2187 68.1644 40.0516 68.5631 39.7173C68.9617 39.3701 69.161 38.8814 69.161 38.2514ZM84.9432 44.1342H79.2339L78.173 46.7574H74.2768L80.2369 33.2557H83.998L89.9773 46.7574H86.004L84.9432 44.1342ZM83.8244 41.3182L82.0885 36.9976L80.3526 41.3182H83.8244ZM95.0652 47.0274C94.0751 47.0274 93.1749 46.8603 92.3648 46.5259C91.5547 46.1788 90.8925 45.6837 90.3782 45.0408L92.4613 42.5719C93.1814 43.5106 93.9593 43.9799 94.7951 43.9799C95.3481 43.9799 95.766 43.8128 96.0489 43.4784C96.3446 43.1441 96.4925 42.6555 96.4925 42.0125V36.2068H91.8248V33.2557H100.273V41.7811C100.273 43.5299 99.8293 44.8415 98.9421 45.7158C98.0677 46.5902 96.7754 47.0274 95.0652 47.0274ZM110.431 47.0274C109.004 47.0274 107.718 46.7253 106.573 46.1209C105.442 45.5165 104.548 44.6807 103.892 43.6134C103.249 42.5462 102.928 41.3439 102.928 40.0066C102.928 38.6693 103.249 37.467 103.892 36.3997C104.548 35.3324 105.442 34.4966 106.573 33.8923C107.718 33.2879 109.004 32.9857 110.431 32.9857C111.858 32.9857 113.138 33.2879 114.269 33.8923C115.414 34.4966 116.307 35.3324 116.95 36.3997C117.606 37.467 117.934 38.6693 117.934 40.0066C117.934 41.3439 117.606 42.5462 116.95 43.6134C116.307 44.6807 115.414 45.5165 114.269 46.1209C113.138 46.7253 111.858 47.0274 110.431 47.0274ZM110.431 43.8642C111.112 43.8642 111.73 43.7035 112.282 43.382C112.835 43.0605 113.273 42.6105 113.594 42.0318C113.916 41.4403 114.076 40.7652 114.076 40.0066C114.076 39.2479 113.916 38.5793 113.594 38.0006C113.273 37.4091 112.835 36.9526 112.282 36.6312C111.73 36.3097 111.112 36.149 110.431 36.149C109.749 36.149 109.132 36.3097 108.579 36.6312C108.026 36.9526 107.589 37.4091 107.268 38.0006C106.946 38.5793 106.785 39.2479 106.785 40.0066C106.785 40.7652 106.946 41.4403 107.268 42.0318C107.589 42.6105 108.026 43.0605 108.579 43.382C109.132 43.7035 109.749 43.8642 110.431 43.8642ZM131.083 39.7173C131.854 39.9873 132.459 40.4116 132.896 40.9903C133.333 41.556 133.552 42.244 133.552 43.0541C133.552 44.2371 133.076 45.1501 132.124 45.793C131.173 46.4359 129.797 46.7574 127.997 46.7574H120.706V33.2557H127.611C129.334 33.2557 130.645 33.5772 131.546 34.2202C132.446 34.8502 132.896 35.7053 132.896 36.7855C132.896 37.4284 132.735 38.007 132.414 38.5214C132.105 39.0229 131.661 39.4215 131.083 39.7173ZM124.486 36.0139V38.6178H127.109C128.395 38.6178 129.038 38.1806 129.038 37.3062C129.038 36.4447 128.395 36.0139 127.109 36.0139H124.486ZM127.688 43.9992C129.025 43.9992 129.694 43.5427 129.694 42.6298C129.694 41.7168 129.025 41.2603 127.688 41.2603H124.486V43.9992H127.688ZM142.203 43.1698H140.12V46.7574H136.301V33.2557H142.473C143.695 33.2557 144.756 33.4615 145.656 33.873C146.556 34.2716 147.25 34.8502 147.739 35.6089C148.228 36.3547 148.472 37.2355 148.472 38.2514C148.472 39.2286 148.24 40.0837 147.778 40.8167C147.327 41.5368 146.678 42.1025 145.829 42.514L148.742 46.7574H144.653L142.203 43.1698ZM144.614 38.2514C144.614 37.6213 144.415 37.1327 144.016 36.7855C143.618 36.4383 143.026 36.2647 142.242 36.2647H140.12V40.2187H142.242C143.026 40.2187 143.618 40.0516 144.016 39.7173C144.415 39.3701 144.614 38.8814 144.614 38.2514ZM160.396 44.1342H154.687L153.626 46.7574H149.73L155.69 33.2557H159.451L165.431 46.7574H161.457L160.396 44.1342ZM159.278 41.3182L157.542 36.9976L155.806 41.3182H159.278ZM178.703 43.7292V46.7574H166.61V44.3657L173.418 36.284H166.783V33.2557H178.414V35.6475L171.605 43.7292H178.703ZM187.377 47.0274C185.371 47.0274 183.809 46.4809 182.69 45.3879C181.585 44.295 181.032 42.7455 181.032 40.7395V33.2557H184.851V40.6238C184.851 42.7841 185.706 43.8642 187.416 43.8642C189.113 43.8642 189.962 42.7841 189.962 40.6238V33.2557H193.723V40.7395C193.723 42.7455 193.164 44.295 192.045 45.3879C190.939 46.4809 189.383 47.0274 187.377 47.0274Z" fill="#2C2C2C"/>
<path d="M30.0895 2.83875C27.0777 2.83875 24.636 5.12134 24.636 7.93658C24.636 10.7518 27.0773 13.0341 30.0895 13.0341C33.101 13.0341 35.5433 10.7521 35.5433 7.93658C35.5433 5.12166 33.101 2.83875 30.0895 2.83875ZM30.0895 10.2236C28.7383 10.2236 27.6427 9.19929 27.6427 7.93658C27.6427 6.67355 28.7386 5.64954 30.0895 5.64954C31.4407 5.64954 32.5359 6.67355 32.5359 7.93658C32.5359 9.19929 31.4407 10.2236 30.0895 10.2236Z" fill="#2C2C2C"/>
<path d="M38.1558 46.5226V46.5239H21.8554V42.3307C21.8554 42.3307 22.0432 37.2726 29.1475 37.2726C36.479 37.2726 38.1558 30.7009 38.1558 28.6078C38.1558 26.5147 38.1558 23.7233 38.1558 23.7233C38.1558 23.7233 38.0356 18.8169 32.7217 16.2416C27.0821 13.5096 21.8554 17.1771 21.8554 17.4437C21.8554 15.2684 21.8554 10.0687 21.8554 8.83835C21.8554 5.52381 18.7879 0 11.9655 0C5.28844 0 2.1591 5.44604 2.1591 9.07071C2.1591 11.2803 2.1591 28.744 2.1591 28.744C2.1591 28.744 2.22199 37.3099 11.0405 37.3099C16.7772 37.3099 18.1199 40.3344 18.1199 42.4148C18.1199 43.5712 18.1199 46.5239 18.1199 46.5239H2.1591V46.5226C1.14032 46.5829 0.416992 47.3371 0.416992 48.2615C0.416992 49.1858 1.14032 49.94 2.1591 50H38.1558C38.835 49.9403 39.8979 49.1861 39.8979 48.2615C39.8979 47.3374 38.835 46.5832 38.1558 46.5226ZM5.89461 8.58759C5.89461 8.58759 5.85216 7.65627 6.71914 6.25167C7.80346 4.50583 9.77784 3.33422 12.0609 3.33422C15.5023 3.33422 18.1199 6.46212 18.1199 9.74301C18.1199 9.58843 18.1199 9.90077 18.1199 9.74301V20.7008C18.1199 20.7008 16.5975 18.8404 11.6337 18.8404C5.78628 18.8201 5.89461 13.7232 5.89461 13.7232V8.58759ZM18.1199 28.8405V35.8181C18.1199 35.8181 16.5975 33.9574 11.6337 33.9574C5.78628 33.9374 5.89461 28.8405 5.89461 28.8405V20.8059C5.89461 20.8059 7.58285 22.3863 11.8833 22.3863C18.9437 22.3863 18.1199 28.8405 18.1199 28.8405ZM21.8554 24.8603C21.8554 21.5794 24.6034 18.4519 28.1138 18.4519C30.4427 18.4519 32.4538 19.6235 33.5605 21.3693C34.4448 22.7742 34.4203 23.7055 34.4203 23.7055V28.8405C34.4203 28.8405 34.4828 33.9374 28.5186 33.9574C23.3893 33.9574 21.8554 35.8181 21.8554 35.8181V28.8405V24.8603C21.8554 25.0181 21.8554 24.7061 21.8554 24.8603Z" fill="#2C2C2C"/>
</svg>
