<svg width="196" height="51" viewBox="0 0 196 51" fill="none" xmlns="http://www.w3.org/2000/svg">
<path d="M51.2804 25.0952L49.853 26.619V29.9944H46.0726V16.4927H49.853V22.1056L55.0801 16.4927H59.2849L53.7685 22.472L59.5742 29.9944H55.138L51.2804 25.0952ZM67.25 26.4068H65.1669V29.9944H61.3478V16.4927H67.52C68.7416 16.4927 69.8024 16.6985 70.7025 17.11C71.6027 17.5086 72.297 18.0872 72.7857 18.8459C73.2743 19.5917 73.5186 20.4725 73.5186 21.4883C73.5186 22.4656 73.2871 23.3207 72.8242 24.0537C72.3742 24.7737 71.7248 25.3395 70.8761 25.751L73.7886 29.9944H69.6996L67.25 26.4068ZM69.661 21.4883C69.661 20.8583 69.4617 20.3696 69.0631 20.0224C68.6644 19.6753 68.0729 19.5017 67.2886 19.5017H65.1669V23.4557H67.2886C68.0729 23.4557 68.6644 23.2886 69.0631 22.9542C69.4617 22.6071 69.661 22.1184 69.661 21.4883ZM87.2369 27.0433V29.9944H76.397V16.4927H86.9862V19.4438H80.1775V21.7198H86.1761V24.5744H80.1775V27.0433H87.2369ZM99.1739 27.3712H93.4646L92.4037 29.9944H88.5075L94.4676 16.4927H98.2287L104.208 29.9944H100.235L99.1739 27.3712ZM98.0551 24.5551L96.3192 20.2346L94.5833 24.5551H98.0551ZM108.258 19.521H104.111V16.4927H116.205V19.521H112.077V29.9944H108.258V19.521ZM125.019 30.2644C123.592 30.2644 122.306 29.9622 121.162 29.3579C120.03 28.7535 119.137 27.9177 118.481 26.8504C117.838 25.7832 117.516 24.5809 117.516 23.2436C117.516 21.9063 117.838 20.704 118.481 19.6367C119.137 18.5694 120.03 17.7336 121.162 17.1292C122.306 16.5249 123.592 16.2227 125.019 16.2227C126.447 16.2227 127.726 16.5249 128.858 17.1292C130.002 17.7336 130.896 18.5694 131.539 19.6367C132.195 20.704 132.522 21.9063 132.522 23.2436C132.522 24.5809 132.195 25.7832 131.539 26.8504C130.896 27.9177 130.002 28.7535 128.858 29.3579C127.726 29.9622 126.447 30.2644 125.019 30.2644ZM125.019 27.1012C125.701 27.1012 126.318 26.9404 126.871 26.619C127.424 26.2975 127.861 25.8474 128.183 25.2688C128.504 24.6773 128.665 24.0022 128.665 23.2436C128.665 22.4849 128.504 21.8162 128.183 21.2376C127.861 20.6461 127.424 20.1896 126.871 19.8681C126.318 19.5467 125.701 19.3859 125.019 19.3859C124.338 19.3859 123.721 19.5467 123.168 19.8681C122.615 20.1896 122.178 20.6461 121.856 21.2376C121.535 21.8162 121.374 22.4849 121.374 23.2436C121.374 24.0022 121.535 24.6773 121.856 25.2688C122.178 25.8474 122.615 26.2975 123.168 26.619C123.721 26.9404 124.338 27.1012 125.019 27.1012ZM141.196 26.4068H139.113V29.9944H135.294V16.4927H141.466C142.688 16.4927 143.749 16.6985 144.649 17.11C145.549 17.5086 146.243 18.0872 146.732 18.8459C147.221 19.5917 147.465 20.4725 147.465 21.4883C147.465 22.4656 147.234 23.3207 146.771 24.0537C146.321 24.7737 145.671 25.3395 144.823 25.751L147.735 29.9944H143.646L141.196 26.4068ZM143.607 21.4883C143.607 20.8583 143.408 20.3696 143.009 20.0224C142.611 19.6753 142.019 19.5017 141.235 19.5017H139.113V23.4557H141.235C142.019 23.4557 142.611 23.2886 143.009 22.9542C143.408 22.6071 143.607 22.1184 143.607 21.4883ZM161.762 26.9662V29.9944H149.668V27.6027L156.477 19.521H149.842V16.4927H161.473V18.8845L154.664 26.9662H161.762ZM171.439 25.1531V29.9944H167.62V25.0952L162.47 16.4927H166.501L169.703 21.8548L172.905 16.4927H176.608L171.439 25.1531ZM51.2804 42.0952L49.853 43.619V46.9944H46.0726V33.4927H49.853V39.1056L55.0801 33.4927H59.2849L53.7685 39.472L59.5742 46.9944H55.138L51.2804 42.0952ZM67.25 43.4068H65.1669V46.9944H61.3478V33.4927H67.52C68.7416 33.4927 69.8024 33.6985 70.7025 34.11C71.6027 34.5086 72.297 35.0872 72.7857 35.8459C73.2743 36.5917 73.5186 37.4725 73.5186 38.4883C73.5186 39.4656 73.2871 40.3207 72.8242 41.0537C72.3742 41.7737 71.7248 42.3395 70.8761 42.751L73.7886 46.9944H69.6996L67.25 43.4068ZM69.661 38.4883C69.661 37.8583 69.4617 37.3696 69.0631 37.0224C68.6644 36.6753 68.0729 36.5017 67.2886 36.5017H65.1669V40.4557H67.2886C68.0729 40.4557 68.6644 40.2886 69.0631 39.9542C69.4617 39.6071 69.661 39.1184 69.661 38.4883ZM85.4432 44.3712H79.7339L78.673 46.9944H74.7768L80.7369 33.4927H84.498L90.4773 46.9944H86.504L85.4432 44.3712ZM84.3244 41.5551L82.5885 37.2346L80.8526 41.5551H84.3244ZM95.5652 47.2644C94.5751 47.2644 93.6749 47.0973 92.8648 46.7629C92.0547 46.4157 91.3925 45.9207 90.8782 45.2777L92.9613 42.8089C93.6814 43.7476 94.4593 44.2169 95.2951 44.2169C95.8481 44.2169 96.266 44.0497 96.5489 43.7154C96.8446 43.3811 96.9925 42.8925 96.9925 42.2495V36.4438H92.3248V33.4927H100.773V42.0181C100.773 43.7668 100.329 45.0784 99.4421 45.9528C98.5677 46.8272 97.2754 47.2644 95.5652 47.2644ZM110.931 47.2644C109.504 47.2644 108.218 46.9622 107.073 46.3579C105.942 45.7535 105.048 44.9177 104.392 43.8504C103.749 42.7832 103.428 41.5809 103.428 40.2436C103.428 38.9063 103.749 37.704 104.392 36.6367C105.048 35.5694 105.942 34.7336 107.073 34.1292C108.218 33.5249 109.504 33.2227 110.931 33.2227C112.358 33.2227 113.638 33.5249 114.769 34.1292C115.914 34.7336 116.807 35.5694 117.45 36.6367C118.106 37.704 118.434 38.9063 118.434 40.2436C118.434 41.5809 118.106 42.7832 117.45 43.8504C116.807 44.9177 115.914 45.7535 114.769 46.3579C113.638 46.9622 112.358 47.2644 110.931 47.2644ZM110.931 44.1012C111.612 44.1012 112.23 43.9404 112.782 43.619C113.335 43.2975 113.773 42.8474 114.094 42.2688C114.416 41.6773 114.576 41.0022 114.576 40.2436C114.576 39.4849 114.416 38.8162 114.094 38.2376C113.773 37.6461 113.335 37.1896 112.782 36.8681C112.23 36.5467 111.612 36.3859 110.931 36.3859C110.249 36.3859 109.632 36.5467 109.079 36.8681C108.526 37.1896 108.089 37.6461 107.768 38.2376C107.446 38.8162 107.285 39.4849 107.285 40.2436C107.285 41.0022 107.446 41.6773 107.768 42.2688C108.089 42.8474 108.526 43.2975 109.079 43.619C109.632 43.9404 110.249 44.1012 110.931 44.1012ZM131.583 39.9542C132.354 40.2243 132.959 40.6486 133.396 41.2273C133.833 41.793 134.052 42.481 134.052 43.2911C134.052 44.4741 133.576 45.387 132.624 46.03C131.673 46.6729 130.297 46.9944 128.497 46.9944H121.206V33.4927H128.111C129.834 33.4927 131.145 33.8142 132.046 34.4571C132.946 35.0872 133.396 35.9423 133.396 37.0224C133.396 37.6654 133.235 38.244 132.914 38.7584C132.605 39.2599 132.161 39.6585 131.583 39.9542ZM124.986 36.2509V38.8548H127.609C128.895 38.8548 129.538 38.4176 129.538 37.5432C129.538 36.6817 128.895 36.2509 127.609 36.2509H124.986ZM128.188 44.2362C129.525 44.2362 130.194 43.7797 130.194 42.8667C130.194 41.9538 129.525 41.4973 128.188 41.4973H124.986V44.2362H128.188ZM142.703 43.4068H140.62V46.9944H136.801V33.4927H142.973C144.195 33.4927 145.256 33.6985 146.156 34.11C147.056 34.5086 147.75 35.0872 148.239 35.8459C148.728 36.5917 148.972 37.4725 148.972 38.4883C148.972 39.4656 148.74 40.3207 148.278 41.0537C147.827 41.7737 147.178 42.3395 146.329 42.751L149.242 46.9944H145.153L142.703 43.4068ZM145.114 38.4883C145.114 37.8583 144.915 37.3696 144.516 37.0224C144.118 36.6753 143.526 36.5017 142.742 36.5017H140.62V40.4557H142.742C143.526 40.4557 144.118 40.2886 144.516 39.9542C144.915 39.6071 145.114 39.1184 145.114 38.4883ZM160.896 44.3712H155.187L154.126 46.9944H150.23L156.19 33.4927H159.951L165.931 46.9944H161.957L160.896 44.3712ZM159.778 41.5551L158.042 37.2346L156.306 41.5551H159.778ZM179.203 43.9662V46.9944H167.11V44.6027L173.918 36.521H167.283V33.4927H178.914V35.8845L172.105 43.9662H179.203ZM187.877 47.2644C185.871 47.2644 184.309 46.7179 183.19 45.6249C182.085 44.5319 181.532 42.9825 181.532 40.9765V33.4927H185.351V40.8608C185.351 43.021 186.206 44.1012 187.916 44.1012C189.613 44.1012 190.462 43.021 190.462 40.8608V33.4927H194.223V40.9765C194.223 42.9825 193.664 44.5319 192.545 45.6249C191.439 46.7179 189.883 47.2644 187.877 47.2644Z" fill="#FFB600"/>
<path d="M30.5895 3.07568C27.5777 3.07568 25.136 5.35828 25.136 8.17351C25.136 10.9887 27.5773 13.271 30.5895 13.271C33.601 13.271 36.0433 10.9891 36.0433 8.17351C36.0433 5.3586 33.601 3.07568 30.5895 3.07568ZM30.5895 10.4606C29.2383 10.4606 28.1427 9.43623 28.1427 8.17351C28.1427 6.91048 29.2386 5.88647 30.5895 5.88647C31.9407 5.88647 33.0359 6.91048 33.0359 8.17351C33.0359 9.43623 31.9407 10.4606 30.5895 10.4606Z" fill="#FFB600"/>
<path d="M38.6558 46.7596V46.7608H22.3554V42.5677C22.3554 42.5677 22.5432 37.5095 29.6475 37.5095C36.979 37.5095 38.6558 30.9379 38.6558 28.8448C38.6558 26.7517 38.6558 23.9603 38.6558 23.9603C38.6558 23.9603 38.5356 19.0538 33.2217 16.4786C27.5821 13.7465 22.3554 17.414 22.3554 17.6807C22.3554 15.5054 22.3554 10.3056 22.3554 9.07529C22.3554 5.76075 19.2879 0.236938 12.4655 0.236938C5.78844 0.236938 2.6591 5.68298 2.6591 9.30765C2.6591 11.5172 2.6591 28.981 2.6591 28.981C2.6591 28.981 2.72199 37.5469 11.5405 37.5469C17.2772 37.5469 18.6199 40.5714 18.6199 42.6518C18.6199 43.8081 18.6199 46.7608 18.6199 46.7608H2.6591V46.7596C1.64032 46.8199 0.916992 47.5741 0.916992 48.4984C0.916992 49.4227 1.64032 50.1769 2.6591 50.2369H38.6558C39.335 50.1773 40.3979 49.4231 40.3979 48.4984C40.3979 47.5744 39.335 46.8202 38.6558 46.7596ZM6.39461 8.82453C6.39461 8.82453 6.35216 7.89321 7.21914 6.4886C8.30346 4.74277 10.2778 3.57116 12.5609 3.57116C16.0023 3.57116 18.6199 6.69906 18.6199 9.97995C18.6199 9.82537 18.6199 10.1377 18.6199 9.97995V20.9377C18.6199 20.9377 17.0975 19.0773 12.1337 19.0773C6.28628 19.057 6.39461 13.9601 6.39461 13.9601V8.82453ZM18.6199 29.0774V36.0551C18.6199 36.0551 17.0975 34.1943 12.1337 34.1943C6.28628 34.1743 6.39461 29.0774 6.39461 29.0774V21.0428C6.39461 21.0428 8.08285 22.6233 12.3833 22.6233C19.4437 22.6233 18.6199 29.0774 18.6199 29.0774ZM22.3554 25.0973C22.3554 21.8164 25.1034 18.6888 28.6138 18.6888C30.9427 18.6888 32.9538 19.8604 34.0605 21.6062C34.9448 23.0112 34.9203 23.9425 34.9203 23.9425V29.0774C34.9203 29.0774 34.9828 34.1743 29.0186 34.1943C23.8893 34.1943 22.3554 36.0551 22.3554 36.0551V29.0774V25.0973C22.3554 25.255 22.3554 24.943 22.3554 25.0973Z" fill="#FFB600"/>
</svg>
