<svg width="196" height="51" viewBox="0 0 196 51" fill="none" xmlns="http://www.w3.org/2000/svg">
<path d="M51.2804 25.002L49.853 26.5257V29.9012H46.0726V16.3995H49.853V22.0123L55.0801 16.3995H59.2849L53.7685 22.3788L59.5742 29.9012H55.138L51.2804 25.002ZM67.25 26.3136H65.1669V29.9012H61.3478V16.3995H67.52C68.7416 16.3995 69.8024 16.6052 70.7025 17.0167C71.6027 17.4153 72.297 17.994 72.7857 18.7526C73.2743 19.4985 73.5186 20.3793 73.5186 21.3951C73.5186 22.3724 73.2871 23.2275 72.8242 23.9604C72.3742 24.6805 71.7248 25.2463 70.8761 25.6578L73.7886 29.9012H69.6996L67.25 26.3136ZM69.661 21.3951C69.661 20.765 69.4617 20.2764 69.0631 19.9292C68.6644 19.582 68.0729 19.4084 67.2886 19.4084H65.1669V23.3625H67.2886C68.0729 23.3625 68.6644 23.1953 69.0631 22.861C69.4617 22.5138 69.661 22.0252 69.661 21.3951ZM87.2369 26.9501V29.9012H76.397V16.3995H86.9862V19.3506H80.1775V21.6266H86.1761V24.4812H80.1775V26.9501H87.2369ZM99.1739 27.278H93.4646L92.4037 29.9012H88.5075L94.4676 16.3995H98.2287L104.208 29.9012H100.235L99.1739 27.278ZM98.0551 24.4619L96.3192 20.1414L94.5833 24.4619H98.0551ZM108.258 19.4277H104.111V16.3995H116.205V19.4277H112.077V29.9012H108.258V19.4277ZM125.019 30.1712C123.592 30.1712 122.306 29.869 121.162 29.2646C120.03 28.6603 119.137 27.8245 118.481 26.7572C117.838 25.6899 117.516 24.4876 117.516 23.1503C117.516 21.813 117.838 20.6107 118.481 19.5435C119.137 18.4762 120.03 17.6404 121.162 17.036C122.306 16.4316 123.592 16.1295 125.019 16.1295C126.447 16.1295 127.726 16.4316 128.858 17.036C130.002 17.6404 130.896 18.4762 131.539 19.5435C132.195 20.6107 132.522 21.813 132.522 23.1503C132.522 24.4876 132.195 25.6899 131.539 26.7572C130.896 27.8245 130.002 28.6603 128.858 29.2646C127.726 29.869 126.447 30.1712 125.019 30.1712ZM125.019 27.0079C125.701 27.0079 126.318 26.8472 126.871 26.5257C127.424 26.2043 127.861 25.7542 128.183 25.1756C128.504 24.5841 128.665 23.909 128.665 23.1503C128.665 22.3917 128.504 21.723 128.183 21.1444C127.861 20.5529 127.424 20.0964 126.871 19.7749C126.318 19.4534 125.701 19.2927 125.019 19.2927C124.338 19.2927 123.721 19.4534 123.168 19.7749C122.615 20.0964 122.178 20.5529 121.856 21.1444C121.535 21.723 121.374 22.3917 121.374 23.1503C121.374 23.909 121.535 24.5841 121.856 25.1756C122.178 25.7542 122.615 26.2043 123.168 26.5257C123.721 26.8472 124.338 27.0079 125.019 27.0079ZM141.196 26.3136H139.113V29.9012H135.294V16.3995H141.466C142.688 16.3995 143.749 16.6052 144.649 17.0167C145.549 17.4153 146.243 17.994 146.732 18.7526C147.221 19.4985 147.465 20.3793 147.465 21.3951C147.465 22.3724 147.234 23.2275 146.771 23.9604C146.321 24.6805 145.671 25.2463 144.823 25.6578L147.735 29.9012H143.646L141.196 26.3136ZM143.607 21.3951C143.607 20.765 143.408 20.2764 143.009 19.9292C142.611 19.582 142.019 19.4084 141.235 19.4084H139.113V23.3625H141.235C142.019 23.3625 142.611 23.1953 143.009 22.861C143.408 22.5138 143.607 22.0252 143.607 21.3951ZM161.762 26.8729V29.9012H149.668V27.5094L156.477 19.4277H149.842V16.3995H161.473V18.7912L154.664 26.8729H161.762ZM171.439 25.0598V29.9012H167.62V25.002L162.47 16.3995H166.501L169.703 21.7616L172.905 16.3995H176.608L171.439 25.0598ZM51.2804 42.002L49.853 43.5257V46.9012H46.0726V33.3995H49.853V39.0123L55.0801 33.3995H59.2849L53.7685 39.3788L59.5742 46.9012H55.138L51.2804 42.002ZM67.25 43.3136H65.1669V46.9012H61.3478V33.3995H67.52C68.7416 33.3995 69.8024 33.6052 70.7025 34.0167C71.6027 34.4153 72.297 34.994 72.7857 35.7526C73.2743 36.4985 73.5186 37.3793 73.5186 38.3951C73.5186 39.3724 73.2871 40.2275 72.8242 40.9604C72.3742 41.6805 71.7248 42.2463 70.8761 42.6578L73.7886 46.9012H69.6996L67.25 43.3136ZM69.661 38.3951C69.661 37.765 69.4617 37.2764 69.0631 36.9292C68.6644 36.582 68.0729 36.4084 67.2886 36.4084H65.1669V40.3625H67.2886C68.0729 40.3625 68.6644 40.1953 69.0631 39.861C69.4617 39.5138 69.661 39.0252 69.661 38.3951ZM85.4432 44.278H79.7339L78.673 46.9012H74.7768L80.7369 33.3995H84.498L90.4773 46.9012H86.504L85.4432 44.278ZM84.3244 41.4619L82.5885 37.1414L80.8526 41.4619H84.3244ZM95.5652 47.1712C94.5751 47.1712 93.6749 47.004 92.8648 46.6697C92.0547 46.3225 91.3925 45.8275 90.8782 45.1845L92.9613 42.7156C93.6814 43.6543 94.4593 44.1237 95.2951 44.1237C95.8481 44.1237 96.266 43.9565 96.5489 43.6222C96.8446 43.2879 96.9925 42.7992 96.9925 42.1563V36.3506H92.3248V33.3995H100.773V41.9248C100.773 43.6736 100.329 44.9852 99.4421 45.8596C98.5677 46.734 97.2754 47.1712 95.5652 47.1712ZM110.931 47.1712C109.504 47.1712 108.218 46.869 107.073 46.2646C105.942 45.6603 105.048 44.8245 104.392 43.7572C103.749 42.6899 103.428 41.4876 103.428 40.1503C103.428 38.813 103.749 37.6107 104.392 36.5435C105.048 35.4762 105.942 34.6404 107.073 34.036C108.218 33.4316 109.504 33.1295 110.931 33.1295C112.358 33.1295 113.638 33.4316 114.769 34.036C115.914 34.6404 116.807 35.4762 117.45 36.5435C118.106 37.6107 118.434 38.813 118.434 40.1503C118.434 41.4876 118.106 42.6899 117.45 43.7572C116.807 44.8245 115.914 45.6603 114.769 46.2646C113.638 46.869 112.358 47.1712 110.931 47.1712ZM110.931 44.0079C111.612 44.0079 112.23 43.8472 112.782 43.5257C113.335 43.2043 113.773 42.7542 114.094 42.1756C114.416 41.5841 114.576 40.909 114.576 40.1503C114.576 39.3917 114.416 38.723 114.094 38.1444C113.773 37.5529 113.335 37.0964 112.782 36.7749C112.23 36.4534 111.612 36.2927 110.931 36.2927C110.249 36.2927 109.632 36.4534 109.079 36.7749C108.526 37.0964 108.089 37.5529 107.768 38.1444C107.446 38.723 107.285 39.3917 107.285 40.1503C107.285 40.909 107.446 41.5841 107.768 42.1756C108.089 42.7542 108.526 43.2043 109.079 43.5257C109.632 43.8472 110.249 44.0079 110.931 44.0079ZM131.583 39.861C132.354 40.131 132.959 40.5554 133.396 41.134C133.833 41.6998 134.052 42.3877 134.052 43.1978C134.052 44.3808 133.576 45.2938 132.624 45.9367C131.673 46.5797 130.297 46.9012 128.497 46.9012H121.206V33.3995H128.111C129.834 33.3995 131.145 33.721 132.046 34.3639C132.946 34.994 133.396 35.8491 133.396 36.9292C133.396 37.5722 133.235 38.1508 132.914 38.6651C132.605 39.1666 132.161 39.5653 131.583 39.861ZM124.986 36.1577V38.7616H127.609C128.895 38.7616 129.538 38.3244 129.538 37.45C129.538 36.5885 128.895 36.1577 127.609 36.1577H124.986ZM128.188 44.143C129.525 44.143 130.194 43.6865 130.194 42.7735C130.194 41.8605 129.525 41.4041 128.188 41.4041H124.986V44.143H128.188ZM142.703 43.3136H140.62V46.9012H136.801V33.3995H142.973C144.195 33.3995 145.256 33.6052 146.156 34.0167C147.056 34.4153 147.75 34.994 148.239 35.7526C148.728 36.4985 148.972 37.3793 148.972 38.3951C148.972 39.3724 148.74 40.2275 148.278 40.9604C147.827 41.6805 147.178 42.2463 146.329 42.6578L149.242 46.9012H145.153L142.703 43.3136ZM145.114 38.3951C145.114 37.765 144.915 37.2764 144.516 36.9292C144.118 36.582 143.526 36.4084 142.742 36.4084H140.62V40.3625H142.742C143.526 40.3625 144.118 40.1953 144.516 39.861C144.915 39.5138 145.114 39.0252 145.114 38.3951ZM160.896 44.278H155.187L154.126 46.9012H150.23L156.19 33.3995H159.951L165.931 46.9012H161.957L160.896 44.278ZM159.778 41.4619L158.042 37.1414L156.306 41.4619H159.778ZM179.203 43.8729V46.9012H167.11V44.5094L173.918 36.4277H167.283V33.3995H178.914V35.7912L172.105 43.8729H179.203ZM187.877 47.1712C185.871 47.1712 184.309 46.6247 183.19 45.5317C182.085 44.4387 181.532 42.8892 181.532 40.8833V33.3995H185.351V40.7675C185.351 42.9278 186.206 44.0079 187.916 44.0079C189.613 44.0079 190.462 42.9278 190.462 40.7675V33.3995H194.223V40.8833C194.223 42.8892 193.664 44.4387 192.545 45.5317C191.439 46.6247 189.883 47.1712 187.877 47.1712Z" fill="#FAFAFA"/>
<path d="M30.5895 2.98248C27.5777 2.98248 25.136 5.26508 25.136 8.08031C25.136 10.8955 27.5773 13.1778 30.5895 13.1778C33.601 13.1778 36.0433 10.8959 36.0433 8.08031C36.0433 5.2654 33.601 2.98248 30.5895 2.98248ZM30.5895 10.3674C29.2383 10.3674 28.1427 9.34303 28.1427 8.08031C28.1427 6.81728 29.2386 5.79327 30.5895 5.79327C31.9407 5.79327 33.0359 6.81728 33.0359 8.08031C33.0359 9.34303 31.9407 10.3674 30.5895 10.3674Z" fill="#FAFAFA"/>
<path d="M38.6558 46.6664V46.6676H22.3554V42.4745C22.3554 42.4745 22.5432 37.4163 29.6475 37.4163C36.979 37.4163 38.6558 30.8447 38.6558 28.7516C38.6558 26.6585 38.6558 23.8671 38.6558 23.8671C38.6558 23.8671 38.5356 18.9606 33.2217 16.3854C27.5821 13.6533 22.3554 17.3208 22.3554 17.5875C22.3554 15.4122 22.3554 10.2124 22.3554 8.98209C22.3554 5.66755 19.2879 0.143738 12.4655 0.143738C5.78844 0.143738 2.6591 5.58978 2.6591 9.21445C2.6591 11.424 2.6591 28.8878 2.6591 28.8878C2.6591 28.8878 2.72199 37.4537 11.5405 37.4537C17.2772 37.4537 18.6199 40.4782 18.6199 42.5586C18.6199 43.7149 18.6199 46.6676 18.6199 46.6676H2.6591V46.6664C1.64032 46.7267 0.916992 47.4809 0.916992 48.4052C0.916992 49.3295 1.64032 50.0837 2.6591 50.1437H38.6558C39.335 50.0841 40.3979 49.3299 40.3979 48.4052C40.3979 47.4812 39.335 46.727 38.6558 46.6664ZM6.39461 8.73133C6.39461 8.73133 6.35216 7.80001 7.21914 6.3954C8.30346 4.64957 10.2778 3.47796 12.5609 3.47796C16.0023 3.47796 18.6199 6.60586 18.6199 9.88675C18.6199 9.73217 18.6199 10.0445 18.6199 9.88675V20.8445C18.6199 20.8445 17.0975 18.9841 12.1337 18.9841C6.28628 18.9638 6.39461 13.8669 6.39461 13.8669V8.73133ZM18.6199 28.9842V35.9619C18.6199 35.9619 17.0975 34.1011 12.1337 34.1011C6.28628 34.0811 6.39461 28.9842 6.39461 28.9842V20.9496C6.39461 20.9496 8.08285 22.5301 12.3833 22.5301C19.4437 22.5301 18.6199 28.9842 18.6199 28.9842ZM22.3554 25.0041C22.3554 21.7232 25.1034 18.5956 28.6138 18.5956C30.9427 18.5956 32.9538 19.7672 34.0605 21.513C34.9448 22.918 34.9203 23.8493 34.9203 23.8493V28.9842C34.9203 28.9842 34.9828 34.0811 29.0186 34.1011C23.8893 34.1011 22.3554 35.9619 22.3554 35.9619V28.9842V25.0041C22.3554 25.1618 22.3554 24.8498 22.3554 25.0041Z" fill="#FAFAFA"/>
</svg>
