<svg width="196" height="51" viewBox="0 0 196 51" fill="none" xmlns="http://www.w3.org/2000/svg">
<path d="M51.2804 25.375L49.853 26.8988V30.2742H46.0726V16.7725H49.853V22.3853L55.0801 16.7725H59.2849L53.7685 22.7518L59.5742 30.2742H55.138L51.2804 25.375ZM67.25 26.6866H65.1669V30.2742H61.3478V16.7725H67.52C68.7416 16.7725 69.8024 16.9783 70.7025 17.3897C71.6027 17.7884 72.297 18.367 72.7857 19.1257C73.2743 19.8715 73.5186 20.7523 73.5186 21.7681C73.5186 22.7454 73.2871 23.6005 72.8242 24.3334C72.3742 25.0535 71.7248 25.6193 70.8761 26.0308L73.7886 30.2742H69.6996L67.25 26.6866ZM69.661 21.7681C69.661 21.1381 69.4617 20.6494 69.0631 20.3022C68.6644 19.955 68.0729 19.7815 67.2886 19.7815H65.1669V23.7355H67.2886C68.0729 23.7355 68.6644 23.5683 69.0631 23.234C69.4617 22.8868 69.661 22.3982 69.661 21.7681ZM87.2369 27.3231V30.2742H76.397V16.7725H86.9862V19.7236H80.1775V21.9996H86.1761V24.8542H80.1775V27.3231H87.2369ZM99.1739 27.651H93.4646L92.4037 30.2742H88.5075L94.4676 16.7725H98.2287L104.208 30.2742H100.235L99.1739 27.651ZM98.0551 24.8349L96.3192 20.5144L94.5833 24.8349H98.0551ZM108.258 19.8007H104.111V16.7725H116.205V19.8007H112.077V30.2742H108.258V19.8007ZM125.019 30.5442C123.592 30.5442 122.306 30.242 121.162 29.6377C120.03 29.0333 119.137 28.1975 118.481 27.1302C117.838 26.0629 117.516 24.8607 117.516 23.5233C117.516 22.186 117.838 20.9837 118.481 19.9165C119.137 18.8492 120.03 18.0134 121.162 17.409C122.306 16.8047 123.592 16.5025 125.019 16.5025C126.447 16.5025 127.726 16.8047 128.858 17.409C130.002 18.0134 130.896 18.8492 131.539 19.9165C132.195 20.9837 132.522 22.186 132.522 23.5233C132.522 24.8607 132.195 26.0629 131.539 27.1302C130.896 28.1975 130.002 29.0333 128.858 29.6377C127.726 30.242 126.447 30.5442 125.019 30.5442ZM125.019 27.381C125.701 27.381 126.318 27.2202 126.871 26.8988C127.424 26.5773 127.861 26.1272 128.183 25.5486C128.504 24.9571 128.665 24.282 128.665 23.5233C128.665 22.7647 128.504 22.096 128.183 21.5174C127.861 20.9259 127.424 20.4694 126.871 20.1479C126.318 19.8265 125.701 19.6657 125.019 19.6657C124.338 19.6657 123.721 19.8265 123.168 20.1479C122.615 20.4694 122.178 20.9259 121.856 21.5174C121.535 22.096 121.374 22.7647 121.374 23.5233C121.374 24.282 121.535 24.9571 121.856 25.5486C122.178 26.1272 122.615 26.5773 123.168 26.8988C123.721 27.2202 124.338 27.381 125.019 27.381ZM141.196 26.6866H139.113V30.2742H135.294V16.7725H141.466C142.688 16.7725 143.749 16.9783 144.649 17.3897C145.549 17.7884 146.243 18.367 146.732 19.1257C147.221 19.8715 147.465 20.7523 147.465 21.7681C147.465 22.7454 147.234 23.6005 146.771 24.3334C146.321 25.0535 145.671 25.6193 144.823 26.0308L147.735 30.2742H143.646L141.196 26.6866ZM143.607 21.7681C143.607 21.1381 143.408 20.6494 143.009 20.3022C142.611 19.955 142.019 19.7815 141.235 19.7815H139.113V23.7355H141.235C142.019 23.7355 142.611 23.5683 143.009 23.234C143.408 22.8868 143.607 22.3982 143.607 21.7681ZM161.762 27.2459V30.2742H149.668V27.8824L156.477 19.8007H149.842V16.7725H161.473V19.1642L154.664 27.2459H161.762ZM171.439 25.4329V30.2742H167.62V25.375L162.47 16.7725H166.501L169.703 22.1346L172.905 16.7725H176.608L171.439 25.4329ZM51.2804 42.375L49.853 43.8988V47.2742H46.0726V33.7725H49.853V39.3853L55.0801 33.7725H59.2849L53.7685 39.7518L59.5742 47.2742H55.138L51.2804 42.375ZM67.25 43.6866H65.1669V47.2742H61.3478V33.7725H67.52C68.7416 33.7725 69.8024 33.9783 70.7025 34.3897C71.6027 34.7884 72.297 35.367 72.7857 36.1257C73.2743 36.8715 73.5186 37.7523 73.5186 38.7681C73.5186 39.7454 73.2871 40.6005 72.8242 41.3334C72.3742 42.0535 71.7248 42.6193 70.8761 43.0308L73.7886 47.2742H69.6996L67.25 43.6866ZM69.661 38.7681C69.661 38.1381 69.4617 37.6494 69.0631 37.3022C68.6644 36.955 68.0729 36.7815 67.2886 36.7815H65.1669V40.7355H67.2886C68.0729 40.7355 68.6644 40.5683 69.0631 40.234C69.4617 39.8868 69.661 39.3982 69.661 38.7681ZM85.4432 44.651H79.7339L78.673 47.2742H74.7768L80.7369 33.7725H84.498L90.4773 47.2742H86.504L85.4432 44.651ZM84.3244 41.8349L82.5885 37.5144L80.8526 41.8349H84.3244ZM95.5652 47.5442C94.5751 47.5442 93.6749 47.377 92.8648 47.0427C92.0547 46.6955 91.3925 46.2005 90.8782 45.5575L92.9613 43.0887C93.6814 44.0273 94.4593 44.4967 95.2951 44.4967C95.8481 44.4967 96.266 44.3295 96.5489 43.9952C96.8446 43.6609 96.9925 43.1722 96.9925 42.5293V36.7236H92.3248V33.7725H100.773V42.2978C100.773 44.0466 100.329 45.3582 99.4421 46.2326C98.5677 47.107 97.2754 47.5442 95.5652 47.5442ZM110.931 47.5442C109.504 47.5442 108.218 47.242 107.073 46.6377C105.942 46.0333 105.048 45.1975 104.392 44.1302C103.749 43.0629 103.428 41.8607 103.428 40.5233C103.428 39.186 103.749 37.9837 104.392 36.9165C105.048 35.8492 105.942 35.0134 107.073 34.409C108.218 33.8047 109.504 33.5025 110.931 33.5025C112.358 33.5025 113.638 33.8047 114.769 34.409C115.914 35.0134 116.807 35.8492 117.45 36.9165C118.106 37.9837 118.434 39.186 118.434 40.5233C118.434 41.8607 118.106 43.0629 117.45 44.1302C116.807 45.1975 115.914 46.0333 114.769 46.6377C113.638 47.242 112.358 47.5442 110.931 47.5442ZM110.931 44.381C111.612 44.381 112.23 44.2202 112.782 43.8988C113.335 43.5773 113.773 43.1272 114.094 42.5486C114.416 41.9571 114.576 41.282 114.576 40.5233C114.576 39.7647 114.416 39.096 114.094 38.5174C113.773 37.9259 113.335 37.4694 112.782 37.1479C112.23 36.8265 111.612 36.6657 110.931 36.6657C110.249 36.6657 109.632 36.8265 109.079 37.1479C108.526 37.4694 108.089 37.9259 107.768 38.5174C107.446 39.096 107.285 39.7647 107.285 40.5233C107.285 41.282 107.446 41.9571 107.768 42.5486C108.089 43.1272 108.526 43.5773 109.079 43.8988C109.632 44.2202 110.249 44.381 110.931 44.381ZM131.583 40.234C132.354 40.5041 132.959 40.9284 133.396 41.507C133.833 42.0728 134.052 42.7608 134.052 43.5709C134.052 44.7539 133.576 45.6668 132.624 46.3098C131.673 46.9527 130.297 47.2742 128.497 47.2742H121.206V33.7725H128.111C129.834 33.7725 131.145 34.094 132.046 34.7369C132.946 35.367 133.396 36.2221 133.396 37.3022C133.396 37.9452 133.235 38.5238 132.914 39.0382C132.605 39.5397 132.161 39.9383 131.583 40.234ZM124.986 36.5307V39.1346H127.609C128.895 39.1346 129.538 38.6974 129.538 37.823C129.538 36.9615 128.895 36.5307 127.609 36.5307H124.986ZM128.188 44.516C129.525 44.516 130.194 44.0595 130.194 43.1465C130.194 42.2336 129.525 41.7771 128.188 41.7771H124.986V44.516H128.188ZM142.703 43.6866H140.62V47.2742H136.801V33.7725H142.973C144.195 33.7725 145.256 33.9783 146.156 34.3897C147.056 34.7884 147.75 35.367 148.239 36.1257C148.728 36.8715 148.972 37.7523 148.972 38.7681C148.972 39.7454 148.74 40.6005 148.278 41.3334C147.827 42.0535 147.178 42.6193 146.329 43.0308L149.242 47.2742H145.153L142.703 43.6866ZM145.114 38.7681C145.114 38.1381 144.915 37.6494 144.516 37.3022C144.118 36.955 143.526 36.7815 142.742 36.7815H140.62V40.7355H142.742C143.526 40.7355 144.118 40.5683 144.516 40.234C144.915 39.8868 145.114 39.3982 145.114 38.7681ZM160.896 44.651H155.187L154.126 47.2742H150.23L156.19 33.7725H159.951L165.931 47.2742H161.957L160.896 44.651ZM159.778 41.8349L158.042 37.5144L156.306 41.8349H159.778ZM179.203 44.2459V47.2742H167.11V44.8824L173.918 36.8007H167.283V33.7725H178.914V36.1642L172.105 44.2459H179.203ZM187.877 47.5442C185.871 47.5442 184.309 46.9977 183.19 45.9047C182.085 44.8117 181.532 43.2623 181.532 41.2563V33.7725H185.351V41.1406C185.351 43.3008 186.206 44.381 187.916 44.381C189.613 44.381 190.462 43.3008 190.462 41.1406V33.7725H194.223V41.2563C194.223 43.2623 193.664 44.8117 192.545 45.9047C191.439 46.9977 189.883 47.5442 187.877 47.5442Z" fill="white"/>
<path d="M30.5895 3.35553C27.5777 3.35553 25.136 5.63813 25.136 8.45336C25.136 11.2686 27.5773 13.5509 30.5895 13.5509C33.601 13.5509 36.0433 11.2689 36.0433 8.45336C36.0433 5.63844 33.601 3.35553 30.5895 3.35553ZM30.5895 10.7404C29.2383 10.7404 28.1427 9.71607 28.1427 8.45336C28.1427 7.19033 29.2386 6.16632 30.5895 6.16632C31.9407 6.16632 33.0359 7.19033 33.0359 8.45336C33.0359 9.71607 31.9407 10.7404 30.5895 10.7404Z" fill="white"/>
<path d="M38.6558 47.0394V47.0407H22.3554V42.8475C22.3554 42.8475 22.5432 37.7893 29.6475 37.7893C36.979 37.7893 38.6558 31.2177 38.6558 29.1246C38.6558 27.0315 38.6558 24.2401 38.6558 24.2401C38.6558 24.2401 38.5356 19.3337 33.2217 16.7584C27.5821 14.0264 22.3554 17.6939 22.3554 17.9605C22.3554 15.7852 22.3554 10.5855 22.3554 9.35514C22.3554 6.0406 19.2879 0.516785 12.4655 0.516785C5.78844 0.516785 2.6591 5.96283 2.6591 9.58749C2.6591 11.7971 2.6591 29.2608 2.6591 29.2608C2.6591 29.2608 2.72199 37.8267 11.5405 37.8267C17.2772 37.8267 18.6199 40.8512 18.6199 42.9316C18.6199 44.088 18.6199 47.0407 18.6199 47.0407H2.6591V47.0394C1.64032 47.0997 0.916992 47.8539 0.916992 48.7782C0.916992 49.7026 1.64032 50.4568 2.6591 50.5168H38.6558C39.335 50.4571 40.3979 49.7029 40.3979 48.7782C40.3979 47.8542 39.335 47.1 38.6558 47.0394ZM6.39461 9.10437C6.39461 9.10437 6.35216 8.17305 7.21914 6.76845C8.30346 5.02262 10.2778 3.85101 12.5609 3.85101C16.0023 3.85101 18.6199 6.9789 18.6199 10.2598C18.6199 10.1052 18.6199 10.4176 18.6199 10.2598V21.2176C18.6199 21.2176 17.0975 19.3572 12.1337 19.3572C6.28628 19.3369 6.39461 14.24 6.39461 14.24V9.10437ZM18.6199 29.3573V36.3349C18.6199 36.3349 17.0975 34.4742 12.1337 34.4742C6.28628 34.4542 6.39461 29.3573 6.39461 29.3573V21.3227C6.39461 21.3227 8.08285 22.9031 12.3833 22.9031C19.4437 22.9031 18.6199 29.3573 18.6199 29.3573ZM22.3554 25.3771C22.3554 22.0962 25.1034 18.9686 28.6138 18.9686C30.9427 18.9686 32.9538 20.1403 34.0605 21.8861C34.9448 23.291 34.9203 24.2223 34.9203 24.2223V29.3573C34.9203 29.3573 34.9828 34.4542 29.0186 34.4742C23.8893 34.4742 22.3554 36.3349 22.3554 36.3349V29.3573V25.3771C22.3554 25.5349 22.3554 25.2228 22.3554 25.3771Z" fill="white"/>
</svg>
