<svg width="391" height="101" viewBox="0 0 391 101" fill="none" xmlns="http://www.w3.org/2000/svg">
<path d="M101.705 50.1905L98.8509 53.238V59.9888H91.2899V32.9855H98.8509V44.2112L109.305 32.9855H117.715L106.682 44.9441L118.293 59.9888H109.421L101.705 50.1905ZM133.645 52.8137H129.479V59.9888H121.84V32.9855H134.185C136.628 32.9855 138.75 33.397 140.55 34.22C142.35 35.0172 143.739 36.1745 144.716 37.6918C145.693 39.1834 146.182 40.9451 146.182 42.9767C146.182 44.9313 145.719 46.6415 144.793 48.1074C143.893 49.5476 142.594 50.6791 140.897 51.5021L146.722 59.9888H138.544L133.645 52.8137ZM138.467 42.9767C138.467 41.7166 138.068 40.7393 137.271 40.045C136.474 39.3506 135.291 39.0034 133.722 39.0034H129.479V46.9115H133.722C135.291 46.9115 136.474 46.5772 137.271 45.9085C138.068 45.2142 138.467 44.2369 138.467 42.9767ZM173.619 54.0867V59.9888H151.939V32.9855H173.117V38.8877H159.5V43.4397H171.497V49.1489H159.5V54.0867H173.619ZM197.492 54.7425H186.074L183.952 59.9888H176.16L188.08 32.9855H195.602L207.561 59.9888H199.614L197.492 54.7425ZM195.255 49.1104L191.783 40.4693L188.311 49.1104H195.255ZM215.661 39.042H207.367V32.9855H231.554V39.042H223.299V59.9888H215.661V39.042ZM249.184 60.5289C246.329 60.5289 243.757 59.9245 241.468 58.7158C239.205 57.5071 237.418 55.8355 236.106 53.7009C234.82 51.5664 234.177 49.1618 234.177 46.4872C234.177 43.8126 234.82 41.408 236.106 39.2734C237.418 37.1389 239.205 35.4673 241.468 34.2585C243.757 33.0498 246.329 32.4455 249.184 32.4455C252.038 32.4455 254.597 33.0498 256.86 34.2585C259.149 35.4673 260.936 37.1389 262.222 39.2734C263.534 41.408 264.19 43.8126 264.19 46.4872C264.19 49.1618 263.534 51.5664 262.222 53.7009C260.936 55.8355 259.149 57.5071 256.86 58.7158C254.597 59.9245 252.038 60.5289 249.184 60.5289ZM249.184 54.2024C250.547 54.2024 251.781 53.8809 252.887 53.238C253.993 52.5951 254.867 51.695 255.51 50.5377C256.153 49.3547 256.475 48.0045 256.475 46.4872C256.475 44.9698 256.153 43.6325 255.51 42.4753C254.867 41.2923 253.993 40.3793 252.887 39.7364C251.781 39.0934 250.547 38.7719 249.184 38.7719C247.821 38.7719 246.586 39.0934 245.48 39.7364C244.374 40.3793 243.5 41.2923 242.857 42.4753C242.214 43.6325 241.893 44.9698 241.893 46.4872C241.893 48.0045 242.214 49.3547 242.857 50.5377C243.5 51.695 244.374 52.5951 245.48 53.238C246.586 53.8809 247.821 54.2024 249.184 54.2024ZM281.538 52.8137H277.371V59.9888H269.733V32.9855H282.078C284.521 32.9855 286.642 33.397 288.443 34.22C290.243 35.0172 291.632 36.1745 292.609 37.6918C293.586 39.1834 294.075 40.9451 294.075 42.9767C294.075 44.9313 293.612 46.6415 292.686 48.1074C291.786 49.5476 290.487 50.6791 288.79 51.5021L294.615 59.9888H286.437L281.538 52.8137ZM286.36 42.9767C286.36 41.7166 285.961 40.7393 285.164 40.045C284.366 39.3506 283.183 39.0034 281.615 39.0034H277.371V46.9115H281.615C283.183 46.9115 284.366 46.5772 285.164 45.9085C285.961 45.2142 286.36 44.2369 286.36 42.9767ZM322.669 53.9324V59.9888H298.482V55.2054L312.099 39.042H298.829V32.9855H322.09V37.769L308.473 53.9324H322.669ZM342.023 50.3062V59.9888H334.385V50.1905L324.085 32.9855H332.147L338.551 43.7097L344.955 32.9855H352.361L342.023 50.3062ZM101.705 84.1905L98.8509 87.238V93.9888H91.2899V66.9855H98.8509V78.2112L109.305 66.9855H117.715L106.682 78.9441L118.293 93.9888H109.421L101.705 84.1905ZM133.645 86.8137H129.479V93.9888H121.84V66.9855H134.185C136.628 66.9855 138.75 67.397 140.55 68.22C142.35 69.0172 143.739 70.1745 144.716 71.6918C145.693 73.1834 146.182 74.9451 146.182 76.9767C146.182 78.9313 145.719 80.6415 144.793 82.1074C143.893 83.5476 142.594 84.6791 140.897 85.5021L146.722 93.9888H138.544L133.645 86.8137ZM138.467 76.9767C138.467 75.7166 138.068 74.7393 137.271 74.045C136.474 73.3506 135.291 73.0034 133.722 73.0034H129.479V80.9115H133.722C135.291 80.9115 136.474 80.5772 137.271 79.9085C138.068 79.2142 138.467 78.2369 138.467 76.9767ZM170.031 88.7425H158.613L156.491 93.9888H148.698L160.619 66.9855H168.141L180.099 93.9888H172.153L170.031 88.7425ZM167.794 83.1104L164.322 74.4693L160.85 83.1104H167.794ZM190.275 94.5289C188.295 94.5289 186.495 94.1946 184.874 93.5259C183.254 92.8315 181.93 91.8414 180.901 90.5556L185.067 85.6178C186.508 87.4952 188.063 88.4339 189.735 88.4339C190.841 88.4339 191.677 88.0995 192.243 87.4309C192.834 86.7622 193.13 85.785 193.13 84.4991V72.8877H183.794V66.9855H200.691V84.0362C200.691 87.5338 199.803 90.1569 198.029 91.9057C196.28 93.6545 193.696 94.5289 190.275 94.5289ZM221.006 94.5289C218.152 94.5289 215.58 93.9245 213.291 92.7158C211.028 91.5071 209.241 89.8355 207.929 87.7009C206.643 85.5664 206 83.1618 206 80.4872C206 77.8126 206.643 75.408 207.929 73.2734C209.241 71.1389 211.028 69.4673 213.291 68.2585C215.58 67.0498 218.152 66.4455 221.006 66.4455C223.861 66.4455 226.42 67.0498 228.683 68.2585C230.972 69.4673 232.759 71.1389 234.045 73.2734C235.357 75.408 236.013 77.8126 236.013 80.4872C236.013 83.1618 235.357 85.5664 234.045 87.7009C232.759 89.8355 230.972 91.5071 228.683 92.7158C226.42 93.9245 223.861 94.5289 221.006 94.5289ZM221.006 88.2024C222.369 88.2024 223.604 87.8809 224.71 87.238C225.816 86.5951 226.69 85.695 227.333 84.5377C227.976 83.3547 228.297 82.0045 228.297 80.4872C228.297 78.9698 227.976 77.6325 227.333 76.4753C226.69 75.2923 225.816 74.3793 224.71 73.7364C223.604 73.0934 222.369 72.7719 221.006 72.7719C219.643 72.7719 218.409 73.0934 217.303 73.7364C216.197 74.3793 215.323 75.2923 214.68 76.4753C214.037 77.6325 213.716 78.9698 213.716 80.4872C213.716 82.0045 214.037 83.3547 214.68 84.5377C215.323 85.695 216.197 86.5951 217.303 87.238C218.409 87.8809 219.643 88.2024 221.006 88.2024ZM262.31 79.9085C263.853 80.4486 265.062 81.2973 265.936 82.4546C266.811 83.5861 267.248 84.962 267.248 86.5822C267.248 88.9482 266.296 90.7742 264.393 92.06C262.49 93.3459 259.738 93.9888 256.138 93.9888H241.556V66.9855H255.366C258.812 66.9855 261.436 67.6285 263.236 68.9143C265.036 70.1745 265.936 71.8847 265.936 74.045C265.936 75.3308 265.615 76.4881 264.972 77.5168C264.355 78.5198 263.467 79.317 262.31 79.9085ZM249.117 72.5019V77.7097H254.363C256.935 77.7097 258.221 76.8353 258.221 75.0865C258.221 73.3634 256.935 72.5019 254.363 72.5019H249.117ZM255.521 88.4724C258.195 88.4724 259.533 87.5595 259.533 85.7335C259.533 83.9076 258.195 82.9946 255.521 82.9946H249.117V88.4724H255.521ZM284.551 86.8137H280.385V93.9888H272.747V66.9855H285.091C287.535 66.9855 289.656 67.397 291.456 68.22C293.257 69.0172 294.645 70.1745 295.623 71.6918C296.6 73.1834 297.089 74.9451 297.089 76.9767C297.089 78.9313 296.626 80.6415 295.7 82.1074C294.8 83.5476 293.501 84.6791 291.804 85.5021L297.629 93.9888H289.45L284.551 86.8137ZM289.373 76.9767C289.373 75.7166 288.975 74.7393 288.177 74.045C287.38 73.3506 286.197 73.0034 284.628 73.0034H280.385V80.9115H284.628C286.197 80.9115 287.38 80.5772 288.177 79.9085C288.975 79.2142 289.373 78.2369 289.373 76.9767ZM320.938 88.7425H309.519L307.397 93.9888H299.605L311.525 66.9855H319.047L331.006 93.9888H323.059L320.938 88.7425ZM318.7 83.1104L315.228 74.4693L311.757 83.1104H318.7ZM357.552 87.9324V93.9888H333.364V89.2054L346.982 73.042H333.711V66.9855H356.973V71.769L343.356 87.9324H357.552ZM374.9 94.5289C370.888 94.5289 367.763 93.4359 365.526 91.2499C363.314 89.0639 362.208 85.965 362.208 81.9531V66.9855H369.846V81.7216C369.846 86.0421 371.556 88.2024 374.977 88.2024C378.372 88.2024 380.069 86.0421 380.069 81.7216V66.9855H387.591V81.9531C387.591 85.965 386.473 89.0639 384.235 91.2499C382.023 93.4359 378.912 94.5289 374.9 94.5289Z" fill="#FFB600"/>
<path d="M60.3235 6.15149C54.2998 6.15149 49.4165 10.7167 49.4165 16.3472C49.4165 21.9776 54.2992 26.5422 60.3235 26.5422C66.3465 26.5422 71.2312 21.9783 71.2312 16.3472C71.2312 10.7173 66.3465 6.15149 60.3235 6.15149ZM60.3235 20.9212C57.621 20.9212 55.43 18.8726 55.43 16.3472C55.43 13.8211 57.6217 11.7731 60.3235 11.7731C63.026 11.7731 65.2164 13.8211 65.2164 16.3472C65.2164 18.8726 63.026 20.9212 60.3235 20.9212Z" fill="#FFB600"/>
<path d="M76.4562 93.5192V93.5218H43.8554V85.1354C43.8554 85.1354 44.231 75.0191 58.4395 75.0191C73.1026 75.0191 76.4562 61.8759 76.4562 57.6897C76.4562 53.5035 76.4562 47.9206 76.4562 47.9206C76.4562 47.9206 76.2158 38.1078 65.5879 32.9573C54.3087 27.4931 43.8554 34.8282 43.8554 35.3614C43.8554 31.0108 43.8554 20.6114 43.8554 18.1507C43.8554 11.5216 37.7203 0.473999 24.0755 0.473999C10.7214 0.473999 4.46273 11.3661 4.46273 18.6154C4.46273 23.0346 4.46273 57.962 4.46273 57.962C4.46273 57.962 4.58852 75.0938 22.2256 75.0938C33.699 75.0938 36.3844 81.1429 36.3844 85.3037C36.3844 87.6164 36.3844 93.5218 36.3844 93.5218H4.46273V93.5192C2.42518 93.6398 0.978516 95.1482 0.978516 96.9969C0.978516 98.8456 2.42518 100.354 4.46273 100.474H76.4562C77.8146 100.355 79.9404 98.8462 79.9404 96.9969C79.9404 95.1489 77.8146 93.6405 76.4562 93.5192ZM11.9337 17.6492C11.9337 17.6492 11.8489 15.7865 13.5828 12.9773C15.7514 9.48567 19.7002 7.14244 24.2664 7.14244C31.1492 7.14244 36.3844 13.3982 36.3844 19.96C36.3844 19.6509 36.3844 20.2755 36.3844 19.96V41.8756C36.3844 41.8756 33.3395 38.1548 23.412 38.1548C11.7171 38.1141 11.9337 27.9204 11.9337 27.9204V17.6492ZM36.3844 58.155V72.1102C36.3844 72.1102 33.3395 68.3888 23.412 68.3888C11.7171 68.3488 11.9337 58.155 11.9337 58.155V42.0857C11.9337 42.0857 15.3102 45.2467 23.9112 45.2467C38.032 45.2467 36.3844 58.155 36.3844 58.155ZM43.8554 50.1947C43.8554 43.6329 49.3513 37.3777 56.3721 37.3777C61.0299 37.3777 65.052 39.7209 67.2655 43.2126C69.0341 46.0224 68.9852 47.8851 68.9852 47.8851V58.155C68.9852 58.155 69.1102 68.3488 57.1816 68.3888C46.9231 68.3888 43.8554 72.1102 43.8554 72.1102V58.155V50.1947C43.8554 50.5102 43.8554 49.8861 43.8554 50.1947Z" fill="#FFB600"/>
</svg>
