<svg width="391" height="101" viewBox="0 0 391 101" fill="none" xmlns="http://www.w3.org/2000/svg">
<path d="M101.705 49.7501L98.8509 52.7976V59.5484H91.2899V32.5451H98.8509V43.7708L109.305 32.5451H117.715L106.682 44.5037L118.293 59.5484H109.421L101.705 49.7501ZM133.645 52.3733H129.479V59.5484H121.84V32.5451H134.185C136.628 32.5451 138.75 32.9566 140.55 33.7796C142.35 34.5768 143.739 35.7341 144.716 37.2514C145.693 38.743 146.182 40.5047 146.182 42.5363C146.182 44.4909 145.719 46.2011 144.793 47.667C143.893 49.1072 142.594 50.2387 140.897 51.0617L146.722 59.5484H138.544L133.645 52.3733ZM138.467 42.5363C138.467 41.2762 138.068 40.2989 137.271 39.6046C136.474 38.9102 135.291 38.563 133.722 38.563H129.479V46.4711H133.722C135.291 46.4711 136.474 46.1368 137.271 45.4681C138.068 44.7738 138.467 43.7965 138.467 42.5363ZM173.619 53.6463V59.5484H151.939V32.5451H173.117V38.4473H159.5V42.9993H171.497V48.7085H159.5V53.6463H173.619ZM197.492 54.3021H186.074L183.952 59.5484H176.16L188.08 32.5451H195.602L207.561 59.5484H199.614L197.492 54.3021ZM195.255 48.67L191.783 40.0289L188.311 48.67H195.255ZM215.661 38.6016H207.367V32.5451H231.554V38.6016H223.299V59.5484H215.661V38.6016ZM249.184 60.0885C246.329 60.0885 243.757 59.4841 241.468 58.2754C239.205 57.0667 237.418 55.3951 236.106 53.2605C234.82 51.126 234.177 48.7214 234.177 46.0468C234.177 43.3722 234.82 40.9676 236.106 38.833C237.418 36.6985 239.205 35.0269 241.468 33.8181C243.757 32.6094 246.329 32.0051 249.184 32.0051C252.038 32.0051 254.597 32.6094 256.86 33.8181C259.149 35.0269 260.936 36.6985 262.222 38.833C263.534 40.9676 264.19 43.3722 264.19 46.0468C264.19 48.7214 263.534 51.126 262.222 53.2605C260.936 55.3951 259.149 57.0667 256.86 58.2754C254.597 59.4841 252.038 60.0885 249.184 60.0885ZM249.184 53.762C250.547 53.762 251.781 53.4405 252.887 52.7976C253.993 52.1547 254.867 51.2546 255.51 50.0973C256.153 48.9143 256.475 47.5641 256.475 46.0468C256.475 44.5295 256.153 43.1921 255.51 42.0349C254.867 40.8519 253.993 39.9389 252.887 39.296C251.781 38.653 250.547 38.3315 249.184 38.3315C247.821 38.3315 246.586 38.653 245.48 39.296C244.374 39.9389 243.5 40.8519 242.857 42.0349C242.214 43.1921 241.893 44.5295 241.893 46.0468C241.893 47.5641 242.214 48.9143 242.857 50.0973C243.5 51.2546 244.374 52.1547 245.48 52.7976C246.586 53.4405 247.821 53.762 249.184 53.762ZM281.538 52.3733H277.371V59.5484H269.733V32.5451H282.078C284.521 32.5451 286.642 32.9566 288.443 33.7796C290.243 34.5768 291.632 35.7341 292.609 37.2514C293.586 38.743 294.075 40.5047 294.075 42.5363C294.075 44.4909 293.612 46.2011 292.686 47.667C291.786 49.1072 290.487 50.2387 288.79 51.0617L294.615 59.5484H286.437L281.538 52.3733ZM286.36 42.5363C286.36 41.2762 285.961 40.2989 285.164 39.6046C284.366 38.9102 283.183 38.563 281.615 38.563H277.371V46.4711H281.615C283.183 46.4711 284.366 46.1368 285.164 45.4681C285.961 44.7738 286.36 43.7965 286.36 42.5363ZM322.669 53.492V59.5484H298.482V54.765L312.099 38.6016H298.829V32.5451H322.09V37.3286L308.473 53.492H322.669ZM342.023 49.8658V59.5484H334.385V49.7501L324.085 32.5451H332.147L338.551 43.2693L344.955 32.5451H352.361L342.023 49.8658ZM101.705 83.7501L98.8509 86.7976V93.5484H91.2899V66.5451H98.8509V77.7708L109.305 66.5451H117.715L106.682 78.5037L118.293 93.5484H109.421L101.705 83.7501ZM133.645 86.3733H129.479V93.5484H121.84V66.5451H134.185C136.628 66.5451 138.75 66.9566 140.55 67.7796C142.35 68.5768 143.739 69.7341 144.716 71.2514C145.693 72.743 146.182 74.5047 146.182 76.5363C146.182 78.4909 145.719 80.2011 144.793 81.667C143.893 83.1072 142.594 84.2387 140.897 85.0617L146.722 93.5484H138.544L133.645 86.3733ZM138.467 76.5363C138.467 75.2762 138.068 74.2989 137.271 73.6046C136.474 72.9102 135.291 72.563 133.722 72.563H129.479V80.4711H133.722C135.291 80.4711 136.474 80.1368 137.271 79.4681C138.068 78.7738 138.467 77.7965 138.467 76.5363ZM170.031 88.3021H158.613L156.491 93.5484H148.698L160.619 66.5451H168.141L180.099 93.5484H172.153L170.031 88.3021ZM167.794 82.67L164.322 74.0289L160.85 82.67H167.794ZM190.275 94.0885C188.295 94.0885 186.495 93.7542 184.874 93.0855C183.254 92.3911 181.93 91.401 180.901 90.1152L185.067 85.1774C186.508 87.0548 188.063 87.9935 189.735 87.9935C190.841 87.9935 191.677 87.6591 192.243 86.9905C192.834 86.3218 193.13 85.3446 193.13 84.0587V72.4473H183.794V66.5451H200.691V83.5958C200.691 87.0934 199.803 89.7165 198.029 91.4653C196.28 93.2141 193.696 94.0885 190.275 94.0885ZM221.006 94.0885C218.152 94.0885 215.58 93.4841 213.291 92.2754C211.028 91.0667 209.241 89.3951 207.929 87.2605C206.643 85.126 206 82.7214 206 80.0468C206 77.3722 206.643 74.9676 207.929 72.833C209.241 70.6985 211.028 69.0269 213.291 67.8181C215.58 66.6094 218.152 66.0051 221.006 66.0051C223.861 66.0051 226.42 66.6094 228.683 67.8181C230.972 69.0269 232.759 70.6985 234.045 72.833C235.357 74.9676 236.013 77.3722 236.013 80.0468C236.013 82.7214 235.357 85.126 234.045 87.2605C232.759 89.3951 230.972 91.0667 228.683 92.2754C226.42 93.4841 223.861 94.0885 221.006 94.0885ZM221.006 87.762C222.369 87.762 223.604 87.4405 224.71 86.7976C225.816 86.1547 226.69 85.2546 227.333 84.0973C227.976 82.9143 228.297 81.5641 228.297 80.0468C228.297 78.5295 227.976 77.1921 227.333 76.0349C226.69 74.8519 225.816 73.9389 224.71 73.296C223.604 72.653 222.369 72.3315 221.006 72.3315C219.643 72.3315 218.409 72.653 217.303 73.296C216.197 73.9389 215.323 74.8519 214.68 76.0349C214.037 77.1921 213.716 78.5295 213.716 80.0468C213.716 81.5641 214.037 82.9143 214.68 84.0973C215.323 85.2546 216.197 86.1547 217.303 86.7976C218.409 87.4405 219.643 87.762 221.006 87.762ZM262.31 79.4681C263.853 80.0082 265.062 80.8569 265.936 82.0142C266.811 83.1457 267.248 84.5216 267.248 86.1418C267.248 88.5078 266.296 90.3338 264.393 91.6196C262.49 92.9055 259.738 93.5484 256.138 93.5484H241.556V66.5451H255.366C258.812 66.5451 261.436 67.1881 263.236 68.4739C265.036 69.7341 265.936 71.4443 265.936 73.6046C265.936 74.8904 265.615 76.0477 264.972 77.0764C264.355 78.0794 263.467 78.8766 262.31 79.4681ZM249.117 72.0615V77.2693H254.363C256.935 77.2693 258.221 76.3949 258.221 74.6461C258.221 72.923 256.935 72.0615 254.363 72.0615H249.117ZM255.521 88.032C258.195 88.032 259.533 87.1191 259.533 85.2931C259.533 83.4672 258.195 82.5542 255.521 82.5542H249.117V88.032H255.521ZM284.551 86.3733H280.385V93.5484H272.747V66.5451H285.091C287.535 66.5451 289.656 66.9566 291.456 67.7796C293.257 68.5768 294.645 69.7341 295.623 71.2514C296.6 72.743 297.089 74.5047 297.089 76.5363C297.089 78.4909 296.626 80.2011 295.7 81.667C294.8 83.1072 293.501 84.2387 291.804 85.0617L297.629 93.5484H289.45L284.551 86.3733ZM289.373 76.5363C289.373 75.2762 288.975 74.2989 288.177 73.6046C287.38 72.9102 286.197 72.563 284.628 72.563H280.385V80.4711H284.628C286.197 80.4711 287.38 80.1368 288.177 79.4681C288.975 78.7738 289.373 77.7965 289.373 76.5363ZM320.938 88.3021H309.519L307.397 93.5484H299.605L311.525 66.5451H319.047L331.006 93.5484H323.059L320.938 88.3021ZM318.7 82.67L315.228 74.0289L311.757 82.67H318.7ZM357.552 87.492V93.5484H333.364V88.765L346.982 72.6016H333.711V66.5451H356.973V71.3286L343.356 87.492H357.552ZM374.9 94.0885C370.888 94.0885 367.763 92.9955 365.526 90.8095C363.314 88.6235 362.208 85.5246 362.208 81.5127V66.5451H369.846V81.2812C369.846 85.6017 371.556 87.762 374.977 87.762C378.372 87.762 380.069 85.6017 380.069 81.2812V66.5451H387.591V81.5127C387.591 85.5246 386.473 88.6235 384.235 90.8095C382.023 92.9955 378.912 94.0885 374.9 94.0885Z" fill="white"/>
<path d="M60.3235 5.71112C54.2998 5.71112 49.4165 10.2763 49.4165 15.9068C49.4165 21.5373 54.2992 26.1018 60.3235 26.1018C66.3465 26.1018 71.2312 21.5379 71.2312 15.9068C71.2312 10.2769 66.3465 5.71112 60.3235 5.71112ZM60.3235 20.4809C57.621 20.4809 55.43 18.4322 55.43 15.9068C55.43 13.3807 57.6217 11.3327 60.3235 11.3327C63.026 11.3327 65.2164 13.3807 65.2164 15.9068C65.2164 18.4322 63.026 20.4809 60.3235 20.4809Z" fill="white"/>
<path d="M76.4562 93.0789V93.0814H43.8554V84.6951C43.8554 84.6951 44.231 74.5788 58.4395 74.5788C73.1026 74.5788 76.4562 61.4355 76.4562 57.2493C76.4562 53.0631 76.4562 47.4803 76.4562 47.4803C76.4562 47.4803 76.2158 37.6674 65.5879 32.5169C54.3087 27.0528 43.8554 34.3878 43.8554 34.9211C43.8554 30.5705 43.8554 20.171 43.8554 17.7103C43.8554 11.0813 37.7203 0.0336304 24.0755 0.0336304C10.7214 0.0336304 4.46273 10.9257 4.46273 18.175C4.46273 22.5942 4.46273 57.5217 4.46273 57.5217C4.46273 57.5217 4.58852 74.6535 22.2256 74.6535C33.699 74.6535 36.3844 80.7025 36.3844 84.8633C36.3844 87.176 36.3844 93.0814 36.3844 93.0814H4.46273V93.0789C2.42518 93.1995 0.978516 94.7079 0.978516 96.5566C0.978516 98.4052 2.42518 99.9136 4.46273 100.034H76.4562C77.8146 99.9143 79.9404 98.4059 79.9404 96.5566C79.9404 94.7085 77.8146 93.2001 76.4562 93.0789ZM11.9337 17.2088C11.9337 17.2088 11.8489 15.3462 13.5828 12.537C15.7514 9.0453 19.7002 6.70207 24.2664 6.70207C31.1492 6.70207 36.3844 12.9579 36.3844 19.5197C36.3844 19.2105 36.3844 19.8352 36.3844 19.5197V41.4352C36.3844 41.4352 33.3395 37.7144 23.412 37.7144C11.7171 37.6738 11.9337 27.48 11.9337 27.48V17.2088ZM36.3844 57.7147V71.6699C36.3844 71.6699 33.3395 67.9484 23.412 67.9484C11.7171 67.9084 11.9337 57.7147 11.9337 57.7147V41.6454C11.9337 41.6454 15.3102 44.8063 23.9112 44.8063C38.032 44.8063 36.3844 57.7147 36.3844 57.7147ZM43.8554 49.7543C43.8554 43.1925 49.3513 36.9373 56.3721 36.9373C61.0299 36.9373 65.052 39.2806 67.2655 42.7722C69.0341 45.5821 68.9852 47.4447 68.9852 47.4447V57.7147C68.9852 57.7147 69.1102 67.9084 57.1816 67.9484C46.9231 67.9484 43.8554 71.6699 43.8554 71.6699V57.7147V49.7543C43.8554 50.0698 43.8554 49.4458 43.8554 49.7543Z" fill="white"/>
</svg>
