<svg width="196" height="50" viewBox="0 0 196 50" fill="none" xmlns="http://www.w3.org/2000/svg">
<path d="M51.2804 24.8582L49.853 26.382V29.7574H46.0726V16.2558H49.853V21.8686L55.0801 16.2558H59.2849L53.7685 22.2351L59.5742 29.7574H55.138L51.2804 24.8582ZM67.25 26.1698H65.1669V29.7574H61.3478V16.2558H67.52C68.7416 16.2558 69.8024 16.4615 70.7025 16.873C71.6027 17.2716 72.297 17.8502 72.7857 18.6089C73.2743 19.3547 73.5186 20.2355 73.5186 21.2514C73.5186 22.2286 73.2871 23.0837 72.8242 23.8167C72.3742 24.5368 71.7248 25.1026 70.8761 25.514L73.7886 29.7574H69.6996L67.25 26.1698ZM69.661 21.2514C69.661 20.6213 69.4617 20.1327 69.0631 19.7855C68.6644 19.4383 68.0729 19.2647 67.2886 19.2647H65.1669V23.2188H67.2886C68.0729 23.2188 68.6644 23.0516 69.0631 22.7173C69.4617 22.3701 69.661 21.8815 69.661 21.2514ZM87.2369 26.8063V29.7574H76.397V16.2558H86.9862V19.2068H80.1775V21.4828H86.1761V24.3375H80.1775V26.8063H87.2369ZM99.1739 27.1342H93.4646L92.4037 29.7574H88.5075L94.4676 16.2558H98.2287L104.208 29.7574H100.235L99.1739 27.1342ZM98.0551 24.3182L96.3192 19.9976L94.5833 24.3182H98.0551ZM108.258 19.284H104.111V16.2558H116.205V19.284H112.077V29.7574H108.258V19.284ZM125.019 30.0274C123.592 30.0274 122.306 29.7253 121.162 29.1209C120.03 28.5165 119.137 27.6807 118.481 26.6135C117.838 25.5462 117.516 24.3439 117.516 23.0066C117.516 21.6693 117.838 20.467 118.481 19.3997C119.137 18.3324 120.03 17.4966 121.162 16.8923C122.306 16.2879 123.592 15.9857 125.019 15.9857C126.447 15.9857 127.726 16.2879 128.858 16.8923C130.002 17.4966 130.896 18.3324 131.539 19.3997C132.195 20.467 132.522 21.6693 132.522 23.0066C132.522 24.3439 132.195 25.5462 131.539 26.6135C130.896 27.6807 130.002 28.5165 128.858 29.1209C127.726 29.7253 126.447 30.0274 125.019 30.0274ZM125.019 26.8642C125.701 26.8642 126.318 26.7035 126.871 26.382C127.424 26.0605 127.861 25.6105 128.183 25.0318C128.504 24.4403 128.665 23.7653 128.665 23.0066C128.665 22.2479 128.504 21.5793 128.183 21.0006C127.861 20.4091 127.424 19.9526 126.871 19.6312C126.318 19.3097 125.701 19.149 125.019 19.149C124.338 19.149 123.721 19.3097 123.168 19.6312C122.615 19.9526 122.178 20.4091 121.856 21.0006C121.535 21.5793 121.374 22.2479 121.374 23.0066C121.374 23.7653 121.535 24.4403 121.856 25.0318C122.178 25.6105 122.615 26.0605 123.168 26.382C123.721 26.7035 124.338 26.8642 125.019 26.8642ZM141.196 26.1698H139.113V29.7574H135.294V16.2558H141.466C142.688 16.2558 143.749 16.4615 144.649 16.873C145.549 17.2716 146.243 17.8502 146.732 18.6089C147.221 19.3547 147.465 20.2355 147.465 21.2514C147.465 22.2286 147.234 23.0837 146.771 23.8167C146.321 24.5368 145.671 25.1026 144.823 25.514L147.735 29.7574H143.646L141.196 26.1698ZM143.607 21.2514C143.607 20.6213 143.408 20.1327 143.009 19.7855C142.611 19.4383 142.019 19.2647 141.235 19.2647H139.113V23.2188H141.235C142.019 23.2188 142.611 23.0516 143.009 22.7173C143.408 22.3701 143.607 21.8815 143.607 21.2514ZM161.762 26.7292V29.7574H149.668V27.3657L156.477 19.284H149.842V16.2558H161.473V18.6475L154.664 26.7292H161.762ZM171.439 24.9161V29.7574H167.62V24.8582L162.47 16.2558H166.501L169.703 21.6178L172.905 16.2558H176.608L171.439 24.9161ZM51.2804 41.8582L49.853 43.382V46.7574H46.0726V33.2558H49.853V38.8686L55.0801 33.2558H59.2849L53.7685 39.2351L59.5742 46.7574H55.138L51.2804 41.8582ZM67.25 43.1698H65.1669V46.7574H61.3478V33.2558H67.52C68.7416 33.2558 69.8024 33.4615 70.7025 33.873C71.6027 34.2716 72.297 34.8502 72.7857 35.6089C73.2743 36.3547 73.5186 37.2355 73.5186 38.2514C73.5186 39.2286 73.2871 40.0837 72.8242 40.8167C72.3742 41.5368 71.7248 42.1026 70.8761 42.514L73.7886 46.7574H69.6996L67.25 43.1698ZM69.661 38.2514C69.661 37.6213 69.4617 37.1327 69.0631 36.7855C68.6644 36.4383 68.0729 36.2647 67.2886 36.2647H65.1669V40.2188H67.2886C68.0729 40.2188 68.6644 40.0516 69.0631 39.7173C69.4617 39.3701 69.661 38.8815 69.661 38.2514ZM85.4432 44.1342H79.7339L78.673 46.7574H74.7768L80.7369 33.2558H84.498L90.4773 46.7574H86.504L85.4432 44.1342ZM84.3244 41.3182L82.5885 36.9976L80.8526 41.3182H84.3244ZM95.5652 47.0274C94.5751 47.0274 93.6749 46.8603 92.8648 46.526C92.0547 46.1788 91.3925 45.6837 90.8782 45.0408L92.9613 42.5719C93.6814 43.5106 94.4593 43.9799 95.2951 43.9799C95.8481 43.9799 96.266 43.8128 96.5489 43.4784C96.8446 43.1441 96.9925 42.6555 96.9925 42.0125V36.2068H92.3248V33.2558H100.773V41.7811C100.773 43.5299 100.329 44.8415 99.4421 45.7159C98.5677 46.5903 97.2754 47.0274 95.5652 47.0274ZM110.931 47.0274C109.504 47.0274 108.218 46.7253 107.073 46.1209C105.942 45.5165 105.048 44.6807 104.392 43.6135C103.749 42.5462 103.428 41.3439 103.428 40.0066C103.428 38.6693 103.749 37.467 104.392 36.3997C105.048 35.3324 105.942 34.4966 107.073 33.8923C108.218 33.2879 109.504 32.9857 110.931 32.9857C112.358 32.9857 113.638 33.2879 114.769 33.8923C115.914 34.4966 116.807 35.3324 117.45 36.3997C118.106 37.467 118.434 38.6693 118.434 40.0066C118.434 41.3439 118.106 42.5462 117.45 43.6135C116.807 44.6807 115.914 45.5165 114.769 46.1209C113.638 46.7253 112.358 47.0274 110.931 47.0274ZM110.931 43.8642C111.612 43.8642 112.23 43.7035 112.782 43.382C113.335 43.0605 113.773 42.6105 114.094 42.0318C114.416 41.4403 114.576 40.7653 114.576 40.0066C114.576 39.2479 114.416 38.5793 114.094 38.0006C113.773 37.4091 113.335 36.9526 112.782 36.6312C112.23 36.3097 111.612 36.149 110.931 36.149C110.249 36.149 109.632 36.3097 109.079 36.6312C108.526 36.9526 108.089 37.4091 107.768 38.0006C107.446 38.5793 107.285 39.2479 107.285 40.0066C107.285 40.7653 107.446 41.4403 107.768 42.0318C108.089 42.6105 108.526 43.0605 109.079 43.382C109.632 43.7035 110.249 43.8642 110.931 43.8642ZM131.583 39.7173C132.354 39.9873 132.959 40.4116 133.396 40.9903C133.833 41.5561 134.052 42.244 134.052 43.0541C134.052 44.2371 133.576 45.1501 132.624 45.793C131.673 46.4359 130.297 46.7574 128.497 46.7574H121.206V33.2558H128.111C129.834 33.2558 131.145 33.5772 132.046 34.2202C132.946 34.8502 133.396 35.7053 133.396 36.7855C133.396 37.4284 133.235 38.0071 132.914 38.5214C132.605 39.0229 132.161 39.4215 131.583 39.7173ZM124.986 36.014V38.6178H127.609C128.895 38.6178 129.538 38.1807 129.538 37.3063C129.538 36.4447 128.895 36.014 127.609 36.014H124.986ZM128.188 43.9992C129.525 43.9992 130.194 43.5427 130.194 42.6298C130.194 41.7168 129.525 41.2603 128.188 41.2603H124.986V43.9992H128.188ZM142.703 43.1698H140.62V46.7574H136.801V33.2558H142.973C144.195 33.2558 145.256 33.4615 146.156 33.873C147.056 34.2716 147.75 34.8502 148.239 35.6089C148.728 36.3547 148.972 37.2355 148.972 38.2514C148.972 39.2286 148.74 40.0837 148.278 40.8167C147.827 41.5368 147.178 42.1026 146.329 42.514L149.242 46.7574H145.153L142.703 43.1698ZM145.114 38.2514C145.114 37.6213 144.915 37.1327 144.516 36.7855C144.118 36.4383 143.526 36.2647 142.742 36.2647H140.62V40.2188H142.742C143.526 40.2188 144.118 40.0516 144.516 39.7173C144.915 39.3701 145.114 38.8815 145.114 38.2514ZM160.896 44.1342H155.187L154.126 46.7574H150.23L156.19 33.2558H159.951L165.931 46.7574H161.957L160.896 44.1342ZM159.778 41.3182L158.042 36.9976L156.306 41.3182H159.778ZM179.203 43.7292V46.7574H167.11V44.3657L173.918 36.284H167.283V33.2558H178.914V35.6475L172.105 43.7292H179.203ZM187.877 47.0274C185.871 47.0274 184.309 46.481 183.19 45.388C182.085 44.295 181.532 42.7455 181.532 40.7395V33.2558H185.351V40.6238C185.351 42.7841 186.206 43.8642 187.916 43.8642C189.613 43.8642 190.462 42.7841 190.462 40.6238V33.2558H194.223V40.7395C194.223 42.7455 193.664 44.295 192.545 45.388C191.439 46.481 189.883 47.0274 187.877 47.0274Z" fill="#36553D"/>
<path d="M30.5895 2.83875C27.5777 2.83875 25.136 5.12134 25.136 7.93658C25.136 10.7518 27.5773 13.0341 30.5895 13.0341C33.601 13.0341 36.0433 10.7521 36.0433 7.93658C36.0433 5.12166 33.601 2.83875 30.5895 2.83875ZM30.5895 10.2236C29.2383 10.2236 28.1427 9.19929 28.1427 7.93658C28.1427 6.67355 29.2386 5.64954 30.5895 5.64954C31.9407 5.64954 33.0359 6.67355 33.0359 7.93658C33.0359 9.19929 31.9407 10.2236 30.5895 10.2236Z" fill="#36553D"/>
<path d="M38.6558 46.5226V46.5239H22.3554V42.3307C22.3554 42.3307 22.5432 37.2726 29.6475 37.2726C36.979 37.2726 38.6558 30.7009 38.6558 28.6078C38.6558 26.5147 38.6558 23.7233 38.6558 23.7233C38.6558 23.7233 38.5356 18.8169 33.2217 16.2416C27.5821 13.5096 22.3554 17.1771 22.3554 17.4437C22.3554 15.2684 22.3554 10.0687 22.3554 8.83835C22.3554 5.52381 19.2879 0 12.4655 0C5.78844 0 2.6591 5.44604 2.6591 9.07071C2.6591 11.2803 2.6591 28.744 2.6591 28.744C2.6591 28.744 2.72199 37.3099 11.5405 37.3099C17.2772 37.3099 18.6199 40.3344 18.6199 42.4148C18.6199 43.5712 18.6199 46.5239 18.6199 46.5239H2.6591V46.5226C1.64032 46.5829 0.916992 47.3371 0.916992 48.2615C0.916992 49.1858 1.64032 49.94 2.6591 50H38.6558C39.335 49.9403 40.3979 49.1861 40.3979 48.2615C40.3979 47.3374 39.335 46.5832 38.6558 46.5226ZM6.39461 8.58759C6.39461 8.58759 6.35216 7.65627 7.21914 6.25167C8.30346 4.50583 10.2778 3.33422 12.5609 3.33422C16.0023 3.33422 18.6199 6.46212 18.6199 9.74301C18.6199 9.58843 18.6199 9.90077 18.6199 9.74301V20.7008C18.6199 20.7008 17.0975 18.8404 12.1337 18.8404C6.28628 18.8201 6.39461 13.7232 6.39461 13.7232V8.58759ZM18.6199 28.8405V35.8181C18.6199 35.8181 17.0975 33.9574 12.1337 33.9574C6.28628 33.9374 6.39461 28.8405 6.39461 28.8405V20.8059C6.39461 20.8059 8.08285 22.3863 12.3833 22.3863C19.4437 22.3863 18.6199 28.8405 18.6199 28.8405ZM22.3554 24.8603C22.3554 21.5794 25.1034 18.4519 28.6138 18.4519C30.9427 18.4519 32.9538 19.6235 34.0605 21.3693C34.9448 22.7742 34.9203 23.7055 34.9203 23.7055V28.8405C34.9203 28.8405 34.9828 33.9374 29.0186 33.9574C23.8893 33.9574 22.3554 35.8181 22.3554 35.8181V28.8405V24.8603C22.3554 25.0181 22.3554 24.7061 22.3554 24.8603Z" fill="#36553D"/>
</svg>
