<svg width="391" height="101" viewBox="0 0 391 101" fill="none" xmlns="http://www.w3.org/2000/svg">
<path d="M101.705 49.9366L98.8509 52.9842V59.735H91.2899V32.7317H98.8509V43.9573L109.305 32.7317H117.715L106.682 44.6903L118.293 59.735H109.421L101.705 49.9366ZM133.645 52.5598H129.479V59.735H121.84V32.7317H134.185C136.628 32.7317 138.75 33.1432 140.55 33.9661C142.35 34.7634 143.739 35.9206 144.716 37.438C145.693 38.9296 146.182 40.6912 146.182 42.7229C146.182 44.6774 145.719 46.3876 144.793 47.8535C143.893 49.2937 142.594 50.4253 140.897 51.2482L146.722 59.735H138.544L133.645 52.5598ZM138.467 42.7229C138.467 41.4627 138.068 40.4855 137.271 39.7911C136.474 39.0967 135.291 38.7496 133.722 38.7496H129.479V46.6577H133.722C135.291 46.6577 136.474 46.3233 137.271 45.6547C138.068 44.9603 138.467 43.9831 138.467 42.7229ZM173.619 53.8328V59.735H151.939V32.7317H173.117V38.6338H159.5V43.1858H171.497V48.8951H159.5V53.8328H173.619ZM197.492 54.4886H186.074L183.952 59.735H176.16L188.08 32.7317H195.602L207.561 59.735H199.614L197.492 54.4886ZM195.255 48.8565L191.783 40.2155L188.311 48.8565H195.255ZM215.661 38.7881H207.367V32.7317H231.554V38.7881H223.299V59.735H215.661V38.7881ZM249.184 60.2751C246.329 60.2751 243.757 59.6707 241.468 58.462C239.205 57.2533 237.418 55.5816 236.106 53.4471C234.82 51.3125 234.177 48.9079 234.177 46.2333C234.177 43.5587 234.82 41.1541 236.106 39.0196C237.418 36.885 239.205 35.2134 241.468 34.0047C243.757 32.796 246.329 32.1916 249.184 32.1916C252.038 32.1916 254.597 32.796 256.86 34.0047C259.149 35.2134 260.936 36.885 262.222 39.0196C263.534 41.1541 264.19 43.5587 264.19 46.2333C264.19 48.9079 263.534 51.3125 262.222 53.4471C260.936 55.5816 259.149 57.2533 256.86 58.462C254.597 59.6707 252.038 60.2751 249.184 60.2751ZM249.184 53.9486C250.547 53.9486 251.781 53.6271 252.887 52.9842C253.993 52.3412 254.867 51.4411 255.51 50.2838C256.153 49.1008 256.475 47.7507 256.475 46.2333C256.475 44.716 256.153 43.3787 255.51 42.2214C254.867 41.0384 253.993 40.1254 252.887 39.4825C251.781 38.8396 250.547 38.5181 249.184 38.5181C247.821 38.5181 246.586 38.8396 245.48 39.4825C244.374 40.1254 243.5 41.0384 242.857 42.2214C242.214 43.3787 241.893 44.716 241.893 46.2333C241.893 47.7507 242.214 49.1008 242.857 50.2838C243.5 51.4411 244.374 52.3412 245.48 52.9842C246.586 53.6271 247.821 53.9486 249.184 53.9486ZM281.538 52.5598H277.371V59.735H269.733V32.7317H282.078C284.521 32.7317 286.642 33.1432 288.443 33.9661C290.243 34.7634 291.632 35.9206 292.609 37.438C293.586 38.9296 294.075 40.6912 294.075 42.7229C294.075 44.6774 293.612 46.3876 292.686 47.8535C291.786 49.2937 290.487 50.4253 288.79 51.2482L294.615 59.735H286.437L281.538 52.5598ZM286.36 42.7229C286.36 41.4627 285.961 40.4855 285.164 39.7911C284.366 39.0967 283.183 38.7496 281.615 38.7496H277.371V46.6577H281.615C283.183 46.6577 284.366 46.3233 285.164 45.6547C285.961 44.9603 286.36 43.9831 286.36 42.7229ZM322.669 53.6785V59.735H298.482V54.9515L312.099 38.7881H298.829V32.7317H322.09V37.5151L308.473 53.6785H322.669ZM342.023 50.0524V59.735H334.385V49.9366L324.085 32.7317H332.147L338.551 43.4558L344.955 32.7317H352.361L342.023 50.0524ZM101.705 83.9366L98.8509 86.9842V93.735H91.2899V66.7317H98.8509V77.9573L109.305 66.7317H117.715L106.682 78.6903L118.293 93.735H109.421L101.705 83.9366ZM133.645 86.5598H129.479V93.735H121.84V66.7317H134.185C136.628 66.7317 138.75 67.1432 140.55 67.9661C142.35 68.7634 143.739 69.9206 144.716 71.438C145.693 72.9296 146.182 74.6912 146.182 76.7229C146.182 78.6774 145.719 80.3876 144.793 81.8535C143.893 83.2937 142.594 84.4253 140.897 85.2482L146.722 93.735H138.544L133.645 86.5598ZM138.467 76.7229C138.467 75.4627 138.068 74.4855 137.271 73.7911C136.474 73.0967 135.291 72.7496 133.722 72.7496H129.479V80.6577H133.722C135.291 80.6577 136.474 80.3233 137.271 79.6547C138.068 78.9603 138.467 77.9831 138.467 76.7229ZM170.031 88.4886H158.613L156.491 93.735H148.698L160.619 66.7317H168.141L180.099 93.735H172.153L170.031 88.4886ZM167.794 82.8565L164.322 74.2155L160.85 82.8565H167.794ZM190.275 94.2751C188.295 94.2751 186.495 93.9407 184.874 93.2721C183.254 92.5777 181.93 91.5876 180.901 90.3017L185.067 85.364C186.508 87.2413 188.063 88.18 189.735 88.18C190.841 88.18 191.677 87.8457 192.243 87.177C192.834 86.5084 193.13 85.5311 193.13 84.2453V72.6338H183.794V66.7317H200.691V83.7823C200.691 87.2799 199.803 89.9031 198.029 91.6519C196.28 93.4007 193.696 94.2751 190.275 94.2751ZM221.006 94.2751C218.152 94.2751 215.58 93.6707 213.291 92.462C211.028 91.2533 209.241 89.5816 207.929 87.4471C206.643 85.3125 206 82.9079 206 80.2333C206 77.5587 206.643 75.1541 207.929 73.0196C209.241 70.885 211.028 69.2134 213.291 68.0047C215.58 66.796 218.152 66.1916 221.006 66.1916C223.861 66.1916 226.42 66.796 228.683 68.0047C230.972 69.2134 232.759 70.885 234.045 73.0196C235.357 75.1541 236.013 77.5587 236.013 80.2333C236.013 82.9079 235.357 85.3125 234.045 87.4471C232.759 89.5816 230.972 91.2533 228.683 92.462C226.42 93.6707 223.861 94.2751 221.006 94.2751ZM221.006 87.9486C222.369 87.9486 223.604 87.6271 224.71 86.9842C225.816 86.3412 226.69 85.4411 227.333 84.2838C227.976 83.1008 228.297 81.7507 228.297 80.2333C228.297 78.716 227.976 77.3787 227.333 76.2214C226.69 75.0384 225.816 74.1254 224.71 73.4825C223.604 72.8396 222.369 72.5181 221.006 72.5181C219.643 72.5181 218.409 72.8396 217.303 73.4825C216.197 74.1254 215.323 75.0384 214.68 76.2214C214.037 77.3787 213.716 78.716 213.716 80.2333C213.716 81.7507 214.037 83.1008 214.68 84.2838C215.323 85.4411 216.197 86.3412 217.303 86.9842C218.409 87.6271 219.643 87.9486 221.006 87.9486ZM262.31 79.6547C263.853 80.1948 265.062 81.0434 265.936 82.2007C266.811 83.3323 267.248 84.7082 267.248 86.3284C267.248 88.6944 266.296 90.5203 264.393 91.8062C262.49 93.092 259.738 93.735 256.138 93.735H241.556V66.7317H255.366C258.812 66.7317 261.436 67.3746 263.236 68.6605C265.036 69.9206 265.936 71.6309 265.936 73.7911C265.936 75.077 265.615 76.2343 264.972 77.263C264.355 78.2659 263.467 79.0632 262.31 79.6547ZM249.117 72.2481V77.4558H254.363C256.935 77.4558 258.221 76.5815 258.221 74.8327C258.221 73.1096 256.935 72.2481 254.363 72.2481H249.117ZM255.521 88.2186C258.195 88.2186 259.533 87.3056 259.533 85.4797C259.533 83.6538 258.195 82.7408 255.521 82.7408H249.117V88.2186H255.521ZM284.551 86.5598H280.385V93.735H272.747V66.7317H285.091C287.535 66.7317 289.656 67.1432 291.456 67.9661C293.257 68.7634 294.645 69.9206 295.623 71.438C296.6 72.9296 297.089 74.6912 297.089 76.7229C297.089 78.6774 296.626 80.3876 295.7 81.8535C294.8 83.2937 293.501 84.4253 291.804 85.2482L297.629 93.735H289.45L284.551 86.5598ZM289.373 76.7229C289.373 75.4627 288.975 74.4855 288.177 73.7911C287.38 73.0967 286.197 72.7496 284.628 72.7496H280.385V80.6577H284.628C286.197 80.6577 287.38 80.3233 288.177 79.6547C288.975 78.9603 289.373 77.9831 289.373 76.7229ZM320.938 88.4886H309.519L307.397 93.735H299.605L311.525 66.7317H319.047L331.006 93.735H323.059L320.938 88.4886ZM318.7 82.8565L315.228 74.2155L311.757 82.8565H318.7ZM357.552 87.6785V93.735H333.364V88.9515L346.982 72.7881H333.711V66.7317H356.973V71.5151L343.356 87.6785H357.552ZM374.9 94.2751C370.888 94.2751 367.763 93.1821 365.526 90.9961C363.314 88.8101 362.208 85.7111 362.208 81.6992V66.7317H369.846V81.4678C369.846 85.7883 371.556 87.9486 374.977 87.9486C378.372 87.9486 380.069 85.7883 380.069 81.4678V66.7317H387.591V81.6992C387.591 85.7111 386.473 88.8101 384.235 90.9961C382.023 93.1821 378.912 94.2751 374.9 94.2751Z" fill="#2C2C2C"/>
<path d="M60.3235 5.89764C54.2998 5.89764 49.4165 10.4628 49.4165 16.0933C49.4165 21.7238 54.2992 26.2883 60.3235 26.2883C66.3465 26.2883 71.2312 21.7244 71.2312 16.0933C71.2312 10.4635 66.3465 5.89764 60.3235 5.89764ZM60.3235 20.6674C57.621 20.6674 55.43 18.6187 55.43 16.0933C55.43 13.5672 57.6217 11.5192 60.3235 11.5192C63.026 11.5192 65.2164 13.5672 65.2164 16.0933C65.2164 18.6187 63.026 20.6674 60.3235 20.6674Z" fill="#2C2C2C"/>
<path d="M76.4562 93.2654V93.2679H43.8554V84.8816C43.8554 84.8816 44.231 74.7653 58.4395 74.7653C73.1026 74.7653 76.4562 61.622 76.4562 57.4358C76.4562 53.2497 76.4562 47.6668 76.4562 47.6668C76.4562 47.6668 76.2158 37.854 65.5879 32.7034C54.3087 27.2393 43.8554 34.5743 43.8554 35.1076C43.8554 30.757 43.8554 20.3575 43.8554 17.8969C43.8554 11.2678 37.7203 0.220169 24.0755 0.220169C10.7214 0.220169 4.46273 11.1123 4.46273 18.3616C4.46273 22.7808 4.46273 57.7082 4.46273 57.7082C4.46273 57.7082 4.58852 74.84 22.2256 74.84C33.699 74.84 36.3844 80.889 36.3844 85.0498C36.3844 87.3626 36.3844 93.2679 36.3844 93.2679H4.46273V93.2654C2.42518 93.386 0.978516 94.8944 0.978516 96.7431C0.978516 98.5918 2.42518 100.1 4.46273 100.22H76.4562C77.8146 100.101 79.9404 98.5924 79.9404 96.7431C79.9404 94.8951 77.8146 93.3867 76.4562 93.2654ZM11.9337 17.3953C11.9337 17.3953 11.8489 15.5327 13.5828 12.7235C15.7514 9.23184 19.7002 6.88861 24.2664 6.88861C31.1492 6.88861 36.3844 13.1444 36.3844 19.7062C36.3844 19.397 36.3844 20.0217 36.3844 19.7062V41.6218C36.3844 41.6218 33.3395 37.9009 23.412 37.9009C11.7171 37.8603 11.9337 27.6666 11.9337 27.6666V17.3953ZM36.3844 57.9012V71.8564C36.3844 71.8564 33.3395 68.1349 23.412 68.1349C11.7171 68.0949 11.9337 57.9012 11.9337 57.9012V41.8319C11.9337 41.8319 15.3102 44.9928 23.9112 44.9928C38.032 44.9928 36.3844 57.9012 36.3844 57.9012ZM43.8554 49.9408C43.8554 43.379 49.3513 37.1239 56.3721 37.1239C61.0299 37.1239 65.052 39.4671 67.2655 42.9588C69.0341 45.7686 68.9852 47.6313 68.9852 47.6313V57.9012C68.9852 57.9012 69.1102 68.0949 57.1816 68.1349C46.9231 68.1349 43.8554 71.8564 43.8554 71.8564V57.9012V49.9408C43.8554 50.2564 43.8554 49.6323 43.8554 49.9408Z" fill="#2C2C2C"/>
</svg>
