<svg width="391" height="101" viewBox="0 0 391 101" fill="none" xmlns="http://www.w3.org/2000/svg">
<path d="M101.705 50.5635L98.8509 53.6111V60.3619H91.2899V33.3586H98.8509V44.5842L109.305 33.3586H117.715L106.682 45.3172L118.293 60.3619H109.421L101.705 50.5635ZM133.645 53.1867H129.479V60.3619H121.84V33.3586H134.185C136.628 33.3586 138.75 33.7701 140.55 34.593C142.35 35.3902 143.739 36.5475 144.716 38.0649C145.693 39.5565 146.182 41.3181 146.182 43.3498C146.182 45.3043 145.719 47.0145 144.793 48.4804C143.893 49.9206 142.594 51.0522 140.897 51.8751L146.722 60.3619H138.544L133.645 53.1867ZM138.467 43.3498C138.467 42.0896 138.068 41.1124 137.271 40.418C136.474 39.7236 135.291 39.3765 133.722 39.3765H129.479V47.2846H133.722C135.291 47.2846 136.474 46.9502 137.271 46.2816C138.068 45.5872 138.467 44.6099 138.467 43.3498ZM173.619 54.4597V60.3619H151.939V33.3586H173.117V39.2607H159.5V43.8127H171.497V49.522H159.5V54.4597H173.619ZM197.492 55.1155H186.074L183.952 60.3619H176.16L188.08 33.3586H195.602L207.561 60.3619H199.614L197.492 55.1155ZM195.255 49.4834L191.783 40.8423L188.311 49.4834H195.255ZM215.661 39.415H207.367V33.3586H231.554V39.415H223.299V60.3619H215.661V39.415ZM249.184 60.9019C246.329 60.9019 243.757 60.2976 241.468 59.0889C239.205 57.8801 237.418 56.2085 236.106 54.074C234.82 51.9394 234.177 49.5348 234.177 46.8602C234.177 44.1856 234.82 41.781 236.106 39.6465C237.418 37.5119 239.205 35.8403 241.468 34.6316C243.757 33.4229 246.329 32.8185 249.184 32.8185C252.038 32.8185 254.597 33.4229 256.86 34.6316C259.149 35.8403 260.936 37.5119 262.222 39.6465C263.534 41.781 264.19 44.1856 264.19 46.8602C264.19 49.5348 263.534 51.9394 262.222 54.074C260.936 56.2085 259.149 57.8801 256.86 59.0889C254.597 60.2976 252.038 60.9019 249.184 60.9019ZM249.184 54.5755C250.547 54.5755 251.781 54.254 252.887 53.6111C253.993 52.9681 254.867 52.068 255.51 50.9107C256.153 49.7277 256.475 48.3776 256.475 46.8602C256.475 45.3429 256.153 44.0056 255.51 42.8483C254.867 41.6653 253.993 40.7523 252.887 40.1094C251.781 39.4665 250.547 39.145 249.184 39.145C247.821 39.145 246.586 39.4665 245.48 40.1094C244.374 40.7523 243.5 41.6653 242.857 42.8483C242.214 44.0056 241.893 45.3429 241.893 46.8602C241.893 48.3776 242.214 49.7277 242.857 50.9107C243.5 52.068 244.374 52.9681 245.48 53.6111C246.586 54.254 247.821 54.5755 249.184 54.5755ZM281.538 53.1867H277.371V60.3619H269.733V33.3586H282.078C284.521 33.3586 286.642 33.7701 288.443 34.593C290.243 35.3902 291.632 36.5475 292.609 38.0649C293.586 39.5565 294.075 41.3181 294.075 43.3498C294.075 45.3043 293.612 47.0145 292.686 48.4804C291.786 49.9206 290.487 51.0522 288.79 51.8751L294.615 60.3619H286.437L281.538 53.1867ZM286.36 43.3498C286.36 42.0896 285.961 41.1124 285.164 40.418C284.366 39.7236 283.183 39.3765 281.615 39.3765H277.371V47.2846H281.615C283.183 47.2846 284.366 46.9502 285.164 46.2816C285.961 45.5872 286.36 44.6099 286.36 43.3498ZM322.669 54.3054V60.3619H298.482V55.5784L312.099 39.415H298.829V33.3586H322.09V38.142L308.473 54.3054H322.669ZM342.023 50.6793V60.3619H334.385V50.5635L324.085 33.3586H332.147L338.551 44.0827L344.955 33.3586H352.361L342.023 50.6793ZM101.705 84.5635L98.8509 87.6111V94.3619H91.2899V67.3586H98.8509V78.5842L109.305 67.3586H117.715L106.682 79.3172L118.293 94.3619H109.421L101.705 84.5635ZM133.645 87.1867H129.479V94.3619H121.84V67.3586H134.185C136.628 67.3586 138.75 67.7701 140.55 68.593C142.35 69.3902 143.739 70.5475 144.716 72.0649C145.693 73.5565 146.182 75.3181 146.182 77.3498C146.182 79.3043 145.719 81.0145 144.793 82.4804C143.893 83.9206 142.594 85.0522 140.897 85.8751L146.722 94.3619H138.544L133.645 87.1867ZM138.467 77.3498C138.467 76.0896 138.068 75.1124 137.271 74.418C136.474 73.7236 135.291 73.3765 133.722 73.3765H129.479V81.2846H133.722C135.291 81.2846 136.474 80.9502 137.271 80.2816C138.068 79.5872 138.467 78.6099 138.467 77.3498ZM170.031 89.1155H158.613L156.491 94.3619H148.698L160.619 67.3586H168.141L180.099 94.3619H172.153L170.031 89.1155ZM167.794 83.4834L164.322 74.8423L160.85 83.4834H167.794ZM190.275 94.9019C188.295 94.9019 186.495 94.5676 184.874 93.899C183.254 93.2046 181.93 92.2145 180.901 90.9286L185.067 85.9909C186.508 87.8682 188.063 88.8069 189.735 88.8069C190.841 88.8069 191.677 88.4726 192.243 87.8039C192.834 87.1353 193.13 86.158 193.13 84.8721V73.2607H183.794V67.3586H200.691V84.4092C200.691 87.9068 199.803 90.53 198.029 92.2788C196.28 94.0276 193.696 94.9019 190.275 94.9019ZM221.006 94.9019C218.152 94.9019 215.58 94.2976 213.291 93.0889C211.028 91.8801 209.241 90.2085 207.929 88.074C206.643 85.9394 206 83.5348 206 80.8602C206 78.1856 206.643 75.781 207.929 73.6465C209.241 71.5119 211.028 69.8403 213.291 68.6316C215.58 67.4229 218.152 66.8185 221.006 66.8185C223.861 66.8185 226.42 67.4229 228.683 68.6316C230.972 69.8403 232.759 71.5119 234.045 73.6465C235.357 75.781 236.013 78.1856 236.013 80.8602C236.013 83.5348 235.357 85.9394 234.045 88.074C232.759 90.2085 230.972 91.8801 228.683 93.0889C226.42 94.2976 223.861 94.9019 221.006 94.9019ZM221.006 88.5755C222.369 88.5755 223.604 88.254 224.71 87.6111C225.816 86.9681 226.69 86.068 227.333 84.9107C227.976 83.7277 228.297 82.3776 228.297 80.8602C228.297 79.3429 227.976 78.0056 227.333 76.8483C226.69 75.6653 225.816 74.7523 224.71 74.1094C223.604 73.4665 222.369 73.145 221.006 73.145C219.643 73.145 218.409 73.4665 217.303 74.1094C216.197 74.7523 215.323 75.6653 214.68 76.8483C214.037 78.0056 213.716 79.3429 213.716 80.8602C213.716 82.3776 214.037 83.7277 214.68 84.9107C215.323 86.068 216.197 86.9681 217.303 87.6111C218.409 88.254 219.643 88.5755 221.006 88.5755ZM262.31 80.2816C263.853 80.8216 265.062 81.6703 265.936 82.8276C266.811 83.9592 267.248 85.3351 267.248 86.9553C267.248 89.3213 266.296 91.1472 264.393 92.4331C262.49 93.7189 259.738 94.3619 256.138 94.3619H241.556V67.3586H255.366C258.812 67.3586 261.436 68.0015 263.236 69.2874C265.036 70.5475 265.936 72.2577 265.936 74.418C265.936 75.7039 265.615 76.8612 264.972 77.8899C264.355 78.8928 263.467 79.6901 262.31 80.2816ZM249.117 72.875V78.0827H254.363C256.935 78.0827 258.221 77.2083 258.221 75.4596C258.221 73.7365 256.935 72.875 254.363 72.875H249.117ZM255.521 88.8455C258.195 88.8455 259.533 87.9325 259.533 86.1066C259.533 84.2806 258.195 83.3677 255.521 83.3677H249.117V88.8455H255.521ZM284.551 87.1867H280.385V94.3619H272.747V67.3586H285.091C287.535 67.3586 289.656 67.7701 291.456 68.593C293.257 69.3902 294.645 70.5475 295.623 72.0649C296.6 73.5565 297.089 75.3181 297.089 77.3498C297.089 79.3043 296.626 81.0145 295.7 82.4804C294.8 83.9206 293.501 85.0522 291.804 85.8751L297.629 94.3619H289.45L284.551 87.1867ZM289.373 77.3498C289.373 76.0896 288.975 75.1124 288.177 74.418C287.38 73.7236 286.197 73.3765 284.628 73.3765H280.385V81.2846H284.628C286.197 81.2846 287.38 80.9502 288.177 80.2816C288.975 79.5872 289.373 78.6099 289.373 77.3498ZM320.938 89.1155H309.519L307.397 94.3619H299.605L311.525 67.3586H319.047L331.006 94.3619H323.059L320.938 89.1155ZM318.7 83.4834L315.228 74.8423L311.757 83.4834H318.7ZM357.552 88.3054V94.3619H333.364V89.5784L346.982 73.415H333.711V67.3586H356.973V72.142L343.356 88.3054H357.552ZM374.9 94.9019C370.888 94.9019 367.763 93.809 365.526 91.623C363.314 89.437 362.208 86.338 362.208 82.3261V67.3586H369.846V82.0947C369.846 86.4152 371.556 88.5755 374.977 88.5755C378.372 88.5755 380.069 86.4152 380.069 82.0947V67.3586H387.591V82.3261C387.591 86.338 386.473 89.437 384.235 91.623C382.023 93.809 378.912 94.9019 374.9 94.9019Z" fill="#36553D"/>
<path d="M60.3235 6.52454C54.2998 6.52454 49.4165 11.0897 49.4165 16.7202C49.4165 22.3507 54.2992 26.9152 60.3235 26.9152C66.3465 26.9152 71.2312 22.3513 71.2312 16.7202C71.2312 11.0904 66.3465 6.52454 60.3235 6.52454ZM60.3235 21.2943C57.621 21.2943 55.43 19.2456 55.43 16.7202C55.43 14.1941 57.6217 12.1461 60.3235 12.1461C63.026 12.1461 65.2164 14.1941 65.2164 16.7202C65.2164 19.2456 63.026 21.2943 60.3235 21.2943Z" fill="#36553D"/>
<path d="M76.4562 93.8923V93.8948H43.8554V85.5085C43.8554 85.5085 44.231 75.3922 58.4395 75.3922C73.1026 75.3922 76.4562 62.2489 76.4562 58.0627C76.4562 53.8765 76.4562 48.2937 76.4562 48.2937C76.4562 48.2937 76.2158 38.4808 65.5879 33.3303C54.3087 27.8662 43.8554 35.2012 43.8554 35.7345C43.8554 31.3839 43.8554 20.9844 43.8554 18.5238C43.8554 11.8947 37.7203 0.847046 24.0755 0.847046C10.7214 0.847046 4.46273 11.7391 4.46273 18.9885C4.46273 23.4076 4.46273 58.3351 4.46273 58.3351C4.46273 58.3351 4.58852 75.4669 22.2256 75.4669C33.699 75.4669 36.3844 81.5159 36.3844 85.6767C36.3844 87.9895 36.3844 93.8948 36.3844 93.8948H4.46273V93.8923C2.42518 94.0129 0.978516 95.5213 0.978516 97.37C0.978516 99.2187 2.42518 100.727 4.46273 100.847H76.4562C77.8146 100.728 79.9404 99.2193 79.9404 97.37C79.9404 95.5219 77.8146 94.0135 76.4562 93.8923ZM11.9337 18.0222C11.9337 18.0222 11.8489 16.1596 13.5828 13.3504C15.7514 9.85871 19.7002 7.51549 24.2664 7.51549C31.1492 7.51549 36.3844 13.7713 36.3844 20.3331C36.3844 20.0239 36.3844 20.6486 36.3844 20.3331V42.2487C36.3844 42.2487 33.3395 38.5278 23.412 38.5278C11.7171 38.4872 11.9337 28.2934 11.9337 28.2934V18.0222ZM36.3844 58.5281V72.4833C36.3844 72.4833 33.3395 68.7618 23.412 68.7618C11.7171 68.7218 11.9337 58.5281 11.9337 58.5281V42.4588C11.9337 42.4588 15.3102 45.6197 23.9112 45.6197C38.032 45.6197 36.3844 58.5281 36.3844 58.5281ZM43.8554 50.5677C43.8554 44.0059 49.3513 37.7508 56.3721 37.7508C61.0299 37.7508 65.052 40.094 67.2655 43.5857C69.0341 46.3955 68.9852 48.2581 68.9852 48.2581V58.5281C68.9852 58.5281 69.1102 68.7218 57.1816 68.7618C46.9231 68.7618 43.8554 72.4833 43.8554 72.4833V58.5281V50.5677C43.8554 50.8832 43.8554 50.2592 43.8554 50.5677Z" fill="#36553D"/>
</svg>
