<svg width="391" height="101" viewBox="0 0 391 101" fill="none" xmlns="http://www.w3.org/2000/svg">
<path d="M101.705 50.1232L98.8509 53.1707V59.9215H91.2899V32.9182H98.8509V44.1439L109.305 32.9182H117.715L106.682 44.8768L118.293 59.9215H109.421L101.705 50.1232ZM133.645 52.7464H129.479V59.9215H121.84V32.9182H134.185C136.628 32.9182 138.75 33.3297 140.55 34.1527C142.35 34.9499 143.739 36.1072 144.716 37.6245C145.693 39.1161 146.182 40.8778 146.182 42.9095C146.182 44.864 145.719 46.5742 144.793 48.0401C143.893 49.4803 142.594 50.6118 140.897 51.4348L146.722 59.9215H138.544L133.645 52.7464ZM138.467 42.9095C138.467 41.6493 138.068 40.672 137.271 39.9777C136.474 39.2833 135.291 38.9361 133.722 38.9361H129.479V46.8442H133.722C135.291 46.8442 136.474 46.5099 137.271 45.8412C138.068 45.1469 138.467 44.1696 138.467 42.9095ZM173.619 54.0194V59.9215H151.939V32.9182H173.117V38.8204H159.5V43.3724H171.497V49.0816H159.5V54.0194H173.619ZM197.492 54.6752H186.074L183.952 59.9215H176.16L188.08 32.9182H195.602L207.561 59.9215H199.614L197.492 54.6752ZM195.255 49.0431L191.783 40.402L188.311 49.0431H195.255ZM215.661 38.9747H207.367V32.9182H231.554V38.9747H223.299V59.9215H215.661V38.9747ZM249.184 60.4616C246.329 60.4616 243.757 59.8572 241.468 58.6485C239.205 57.4398 237.418 55.7682 236.106 53.6336C234.82 51.4991 234.177 49.0945 234.177 46.4199C234.177 43.7453 234.82 41.3407 236.106 39.2061C237.418 37.0716 239.205 35.4 241.468 34.1912C243.757 32.9825 246.329 32.3782 249.184 32.3782C252.038 32.3782 254.597 32.9825 256.86 34.1912C259.149 35.4 260.936 37.0716 262.222 39.2061C263.534 41.3407 264.19 43.7453 264.19 46.4199C264.19 49.0945 263.534 51.4991 262.222 53.6336C260.936 55.7682 259.149 57.4398 256.86 58.6485C254.597 59.8572 252.038 60.4616 249.184 60.4616ZM249.184 54.1351C250.547 54.1351 251.781 53.8136 252.887 53.1707C253.993 52.5278 254.867 51.6277 255.51 50.4704C256.153 49.2874 256.475 47.9372 256.475 46.4199C256.475 44.9026 256.153 43.5653 255.51 42.408C254.867 41.225 253.993 40.312 252.887 39.6691C251.781 39.0261 250.547 38.7047 249.184 38.7047C247.821 38.7047 246.586 39.0261 245.48 39.6691C244.374 40.312 243.5 41.225 242.857 42.408C242.214 43.5653 241.893 44.9026 241.893 46.4199C241.893 47.9372 242.214 49.2874 242.857 50.4704C243.5 51.6277 244.374 52.5278 245.48 53.1707C246.586 53.8136 247.821 54.1351 249.184 54.1351ZM281.538 52.7464H277.371V59.9215H269.733V32.9182H282.078C284.521 32.9182 286.642 33.3297 288.443 34.1527C290.243 34.9499 291.632 36.1072 292.609 37.6245C293.586 39.1161 294.075 40.8778 294.075 42.9095C294.075 44.864 293.612 46.5742 292.686 48.0401C291.786 49.4803 290.487 50.6118 288.79 51.4348L294.615 59.9215H286.437L281.538 52.7464ZM286.36 42.9095C286.36 41.6493 285.961 40.672 285.164 39.9777C284.366 39.2833 283.183 38.9361 281.615 38.9361H277.371V46.8442H281.615C283.183 46.8442 284.366 46.5099 285.164 45.8412C285.961 45.1469 286.36 44.1696 286.36 42.9095ZM322.669 53.8651V59.9215H298.482V55.1381L312.099 38.9747H298.829V32.9182H322.09V37.7017L308.473 53.8651H322.669ZM342.023 50.2389V59.9215H334.385V50.1232L324.085 32.9182H332.147L338.551 43.6424L344.955 32.9182H352.361L342.023 50.2389ZM101.705 84.1232L98.8509 87.1707V93.9215H91.2899V66.9182H98.8509V78.1439L109.305 66.9182H117.715L106.682 78.8768L118.293 93.9215H109.421L101.705 84.1232ZM133.645 86.7464H129.479V93.9215H121.84V66.9182H134.185C136.628 66.9182 138.75 67.3297 140.55 68.1527C142.35 68.9499 143.739 70.1072 144.716 71.6245C145.693 73.1161 146.182 74.8778 146.182 76.9095C146.182 78.864 145.719 80.5742 144.793 82.0401C143.893 83.4803 142.594 84.6118 140.897 85.4348L146.722 93.9215H138.544L133.645 86.7464ZM138.467 76.9095C138.467 75.6493 138.068 74.672 137.271 73.9777C136.474 73.2833 135.291 72.9361 133.722 72.9361H129.479V80.8442H133.722C135.291 80.8442 136.474 80.5099 137.271 79.8412C138.068 79.1469 138.467 78.1696 138.467 76.9095ZM170.031 88.6752H158.613L156.491 93.9215H148.698L160.619 66.9182H168.141L180.099 93.9215H172.153L170.031 88.6752ZM167.794 83.0431L164.322 74.402L160.85 83.0431H167.794ZM190.275 94.4616C188.295 94.4616 186.495 94.1273 184.874 93.4586C183.254 92.7643 181.93 91.7741 180.901 90.4883L185.067 85.5505C186.508 87.4279 188.063 88.3666 189.735 88.3666C190.841 88.3666 191.677 88.0322 192.243 87.3636C192.834 86.6949 193.13 85.7177 193.13 84.4318V72.8204H183.794V66.9182H200.691V83.9689C200.691 87.4665 199.803 90.0896 198.029 91.8384C196.28 93.5872 193.696 94.4616 190.275 94.4616ZM221.006 94.4616C218.152 94.4616 215.58 93.8572 213.291 92.6485C211.028 91.4398 209.241 89.7682 207.929 87.6336C206.643 85.4991 206 83.0945 206 80.4199C206 77.7453 206.643 75.3407 207.929 73.2061C209.241 71.0716 211.028 69.4 213.291 68.1912C215.58 66.9825 218.152 66.3782 221.006 66.3782C223.861 66.3782 226.42 66.9825 228.683 68.1912C230.972 69.4 232.759 71.0716 234.045 73.2061C235.357 75.3407 236.013 77.7453 236.013 80.4199C236.013 83.0945 235.357 85.4991 234.045 87.6336C232.759 89.7682 230.972 91.4398 228.683 92.6485C226.42 93.8572 223.861 94.4616 221.006 94.4616ZM221.006 88.1351C222.369 88.1351 223.604 87.8136 224.71 87.1707C225.816 86.5278 226.69 85.6277 227.333 84.4704C227.976 83.2874 228.297 81.9372 228.297 80.4199C228.297 78.9026 227.976 77.5653 227.333 76.408C226.69 75.225 225.816 74.312 224.71 73.6691C223.604 73.0261 222.369 72.7047 221.006 72.7047C219.643 72.7047 218.409 73.0261 217.303 73.6691C216.197 74.312 215.323 75.225 214.68 76.408C214.037 77.5653 213.716 78.9026 213.716 80.4199C213.716 81.9372 214.037 83.2874 214.68 84.4704C215.323 85.6277 216.197 86.5278 217.303 87.1707C218.409 87.8136 219.643 88.1351 221.006 88.1351ZM262.31 79.8412C263.853 80.3813 265.062 81.23 265.936 82.3873C266.811 83.5188 267.248 84.8947 267.248 86.5149C267.248 88.8809 266.296 90.7069 264.393 91.9927C262.49 93.2786 259.738 93.9215 256.138 93.9215H241.556V66.9182H255.366C258.812 66.9182 261.436 67.5612 263.236 68.847C265.036 70.1072 265.936 71.8174 265.936 73.9777C265.936 75.2635 265.615 76.4208 264.972 77.4495C264.355 78.4525 263.467 79.2497 262.31 79.8412ZM249.117 72.4346V77.6424H254.363C256.935 77.6424 258.221 76.768 258.221 75.0192C258.221 73.2962 256.935 72.4346 254.363 72.4346H249.117ZM255.521 88.4051C258.195 88.4051 259.533 87.4922 259.533 85.6662C259.533 83.8403 258.195 82.9273 255.521 82.9273H249.117V88.4051H255.521ZM284.551 86.7464H280.385V93.9215H272.747V66.9182H285.091C287.535 66.9182 289.656 67.3297 291.456 68.1527C293.257 68.9499 294.645 70.1072 295.623 71.6245C296.6 73.1161 297.089 74.8778 297.089 76.9095C297.089 78.864 296.626 80.5742 295.7 82.0401C294.8 83.4803 293.501 84.6118 291.804 85.4348L297.629 93.9215H289.45L284.551 86.7464ZM289.373 76.9095C289.373 75.6493 288.975 74.672 288.177 73.9777C287.38 73.2833 286.197 72.9361 284.628 72.9361H280.385V80.8442H284.628C286.197 80.8442 287.38 80.5099 288.177 79.8412C288.975 79.1469 289.373 78.1696 289.373 76.9095ZM320.938 88.6752H309.519L307.397 93.9215H299.605L311.525 66.9182H319.047L331.006 93.9215H323.059L320.938 88.6752ZM318.7 83.0431L315.228 74.402L311.757 83.0431H318.7ZM357.552 87.8651V93.9215H333.364V89.1381L346.982 72.9747H333.711V66.9182H356.973V71.7017L343.356 87.8651H357.552ZM374.9 94.4616C370.888 94.4616 367.763 93.3686 365.526 91.1826C363.314 88.9967 362.208 85.8977 362.208 81.8858V66.9182H369.846V81.6543C369.846 85.9749 371.556 88.1351 374.977 88.1351C378.372 88.1351 380.069 85.9749 380.069 81.6543V66.9182H387.591V81.8858C387.591 85.8977 386.473 88.9967 384.235 91.1826C382.023 93.3686 378.912 94.4616 374.9 94.4616Z" fill="black"/>
<path d="M60.3235 6.08423C54.2998 6.08423 49.4165 10.6494 49.4165 16.2799C49.4165 21.9104 54.2992 26.4749 60.3235 26.4749C66.3465 26.4749 71.2312 21.911 71.2312 16.2799C71.2312 10.6501 66.3465 6.08423 60.3235 6.08423ZM60.3235 20.854C57.621 20.854 55.43 18.8053 55.43 16.2799C55.43 13.7538 57.6217 11.7058 60.3235 11.7058C63.026 11.7058 65.2164 13.7538 65.2164 16.2799C65.2164 18.8053 63.026 20.854 60.3235 20.854Z" fill="black"/>
<path d="M76.4562 93.452V93.4545H43.8554V85.0682C43.8554 85.0682 44.231 74.9519 58.4395 74.9519C73.1026 74.9519 76.4562 61.8086 76.4562 57.6224C76.4562 53.4362 76.4562 47.8534 76.4562 47.8534C76.4562 47.8534 76.2158 38.0405 65.5879 32.89C54.3087 27.4259 43.8554 34.7609 43.8554 35.2942C43.8554 30.9436 43.8554 20.5441 43.8554 18.0834C43.8554 11.4544 37.7203 0.406738 24.0755 0.406738C10.7214 0.406738 4.46273 11.2988 4.46273 18.5482C4.46273 22.9673 4.46273 57.8948 4.46273 57.8948C4.46273 57.8948 4.58852 75.0266 22.2256 75.0266C33.699 75.0266 36.3844 81.0756 36.3844 85.2364C36.3844 87.5491 36.3844 93.4545 36.3844 93.4545H4.46273V93.452C2.42518 93.5726 0.978516 95.081 0.978516 96.9297C0.978516 98.7783 2.42518 100.287 4.46273 100.407H76.4562C77.8146 100.287 79.9404 98.779 79.9404 96.9297C79.9404 95.0816 77.8146 93.5732 76.4562 93.452ZM11.9337 17.5819C11.9337 17.5819 11.8489 15.7193 13.5828 12.9101C15.7514 9.41841 19.7002 7.07518 24.2664 7.07518C31.1492 7.07518 36.3844 13.331 36.3844 19.8928C36.3844 19.5836 36.3844 20.2083 36.3844 19.8928V41.8083C36.3844 41.8083 33.3395 38.0875 23.412 38.0875C11.7171 38.0469 11.9337 27.8531 11.9337 27.8531V17.5819ZM36.3844 58.0878V72.043C36.3844 72.043 33.3395 68.3215 23.412 68.3215C11.7171 68.2815 11.9337 58.0878 11.9337 58.0878V42.0185C11.9337 42.0185 15.3102 45.1794 23.9112 45.1794C38.032 45.1794 36.3844 58.0878 36.3844 58.0878ZM43.8554 50.1274C43.8554 43.5656 49.3513 37.3105 56.3721 37.3105C61.0299 37.3105 65.052 39.6537 67.2655 43.1453C69.0341 45.9552 68.9852 47.8178 68.9852 47.8178V58.0878C68.9852 58.0878 69.1102 68.2815 57.1816 68.3215C46.9231 68.3215 43.8554 72.043 43.8554 72.043V58.0878V50.1274C43.8554 50.4429 43.8554 49.8189 43.8554 50.1274Z" fill="black"/>
</svg>
