<svg width="391" height="101" viewBox="0 0 391 101" fill="none" xmlns="http://www.w3.org/2000/svg">
<path d="M101.705 50.377L98.8509 53.4245V60.1754H91.2899V33.172H98.8509V44.3977L109.305 33.172H117.715L106.682 45.1307L118.293 60.1754H109.421L101.705 50.377ZM133.645 53.0002H129.479V60.1754H121.84V33.172H134.185C136.628 33.172 138.75 33.5835 140.55 34.4065C142.35 35.2037 143.739 36.361 144.716 37.8783C145.693 39.3699 146.182 41.1316 146.182 43.1633C146.182 45.1178 145.719 46.828 144.793 48.2939C143.893 49.7341 142.594 50.8656 140.897 51.6886L146.722 60.1754H138.544L133.645 53.0002ZM138.467 43.1633C138.467 41.9031 138.068 40.9259 137.271 40.2315C136.474 39.5371 135.291 39.1899 133.722 39.1899H129.479V47.098H133.722C135.291 47.098 136.474 46.7637 137.271 46.0951C138.068 45.4007 138.467 44.4234 138.467 43.1633ZM173.619 54.2732V60.1754H151.939V33.172H173.117V39.0742H159.5V43.6262H171.497V49.3355H159.5V54.2732H173.619ZM197.492 54.929H186.074L183.952 60.1754H176.16L188.08 33.172H195.602L207.561 60.1754H199.614L197.492 54.929ZM195.255 49.2969L191.783 40.6558L188.311 49.2969H195.255ZM215.661 39.2285H207.367V33.172H231.554V39.2285H223.299V60.1754H215.661V39.2285ZM249.184 60.7154C246.329 60.7154 243.757 60.1111 241.468 58.9023C239.205 57.6936 237.418 56.022 236.106 53.8874C234.82 51.7529 234.177 49.3483 234.177 46.6737C234.177 43.9991 234.82 41.5945 236.106 39.46C237.418 37.3254 239.205 35.6538 241.468 34.4451C243.757 33.2363 246.329 32.632 249.184 32.632C252.038 32.632 254.597 33.2363 256.86 34.4451C259.149 35.6538 260.936 37.3254 262.222 39.46C263.534 41.5945 264.19 43.9991 264.19 46.6737C264.19 49.3483 263.534 51.7529 262.222 53.8874C260.936 56.022 259.149 57.6936 256.86 58.9023C254.597 60.1111 252.038 60.7154 249.184 60.7154ZM249.184 54.3889C250.547 54.3889 251.781 54.0675 252.887 53.4245C253.993 52.7816 254.867 51.8815 255.51 50.7242C256.153 49.5412 256.475 48.191 256.475 46.6737C256.475 45.1564 256.153 43.8191 255.51 42.6618C254.867 41.4788 253.993 40.5658 252.887 39.9229C251.781 39.2799 250.547 38.9585 249.184 38.9585C247.821 38.9585 246.586 39.2799 245.48 39.9229C244.374 40.5658 243.5 41.4788 242.857 42.6618C242.214 43.8191 241.893 45.1564 241.893 46.6737C241.893 48.191 242.214 49.5412 242.857 50.7242C243.5 51.8815 244.374 52.7816 245.48 53.4245C246.586 54.0675 247.821 54.3889 249.184 54.3889ZM281.538 53.0002H277.371V60.1754H269.733V33.172H282.078C284.521 33.172 286.642 33.5835 288.443 34.4065C290.243 35.2037 291.632 36.361 292.609 37.8783C293.586 39.3699 294.075 41.1316 294.075 43.1633C294.075 45.1178 293.612 46.828 292.686 48.2939C291.786 49.7341 290.487 50.8656 288.79 51.6886L294.615 60.1754H286.437L281.538 53.0002ZM286.36 43.1633C286.36 41.9031 285.961 40.9259 285.164 40.2315C284.366 39.5371 283.183 39.1899 281.615 39.1899H277.371V47.098H281.615C283.183 47.098 284.366 46.7637 285.164 46.0951C285.961 45.4007 286.36 44.4234 286.36 43.1633ZM322.669 54.1189V60.1754H298.482V55.3919L312.099 39.2285H298.829V33.172H322.09V37.9555L308.473 54.1189H322.669ZM342.023 50.4927V60.1754H334.385V50.377L324.085 33.172H332.147L338.551 43.8962L344.955 33.172H352.361L342.023 50.4927ZM101.705 84.377L98.8509 87.4245V94.1754H91.2899V67.172H98.8509V78.3977L109.305 67.172H117.715L106.682 79.1307L118.293 94.1754H109.421L101.705 84.377ZM133.645 87.0002H129.479V94.1754H121.84V67.172H134.185C136.628 67.172 138.75 67.5835 140.55 68.4065C142.35 69.2037 143.739 70.361 144.716 71.8783C145.693 73.3699 146.182 75.1316 146.182 77.1633C146.182 79.1178 145.719 80.828 144.793 82.2939C143.893 83.7341 142.594 84.8656 140.897 85.6886L146.722 94.1754H138.544L133.645 87.0002ZM138.467 77.1633C138.467 75.9031 138.068 74.9259 137.271 74.2315C136.474 73.5371 135.291 73.1899 133.722 73.1899H129.479V81.098H133.722C135.291 81.098 136.474 80.7637 137.271 80.0951C138.068 79.4007 138.467 78.4234 138.467 77.1633ZM170.031 88.929H158.613L156.491 94.1754H148.698L160.619 67.172H168.141L180.099 94.1754H172.153L170.031 88.929ZM167.794 83.2969L164.322 74.6558L160.85 83.2969H167.794ZM190.275 94.7154C188.295 94.7154 186.495 94.3811 184.874 93.7124C183.254 93.0181 181.93 92.0279 180.901 90.7421L185.067 85.8043C186.508 87.6817 188.063 88.6204 189.735 88.6204C190.841 88.6204 191.677 88.2861 192.243 87.6174C192.834 86.9488 193.13 85.9715 193.13 84.6856V73.0742H183.794V67.172H200.691V84.2227C200.691 87.7203 199.803 90.3435 198.029 92.0922C196.28 93.841 193.696 94.7154 190.275 94.7154ZM221.006 94.7154C218.152 94.7154 215.58 94.1111 213.291 92.9023C211.028 91.6936 209.241 90.022 207.929 87.8874C206.643 85.7529 206 83.3483 206 80.6737C206 77.9991 206.643 75.5945 207.929 73.46C209.241 71.3254 211.028 69.6538 213.291 68.4451C215.58 67.2363 218.152 66.632 221.006 66.632C223.861 66.632 226.42 67.2363 228.683 68.4451C230.972 69.6538 232.759 71.3254 234.045 73.46C235.357 75.5945 236.013 77.9991 236.013 80.6737C236.013 83.3483 235.357 85.7529 234.045 87.8874C232.759 90.022 230.972 91.6936 228.683 92.9023C226.42 94.1111 223.861 94.7154 221.006 94.7154ZM221.006 88.3889C222.369 88.3889 223.604 88.0675 224.71 87.4245C225.816 86.7816 226.69 85.8815 227.333 84.7242C227.976 83.5412 228.297 82.191 228.297 80.6737C228.297 79.1564 227.976 77.8191 227.333 76.6618C226.69 75.4788 225.816 74.5658 224.71 73.9229C223.604 73.2799 222.369 72.9585 221.006 72.9585C219.643 72.9585 218.409 73.2799 217.303 73.9229C216.197 74.5658 215.323 75.4788 214.68 76.6618C214.037 77.8191 213.716 79.1564 213.716 80.6737C213.716 82.191 214.037 83.5412 214.68 84.7242C215.323 85.8815 216.197 86.7816 217.303 87.4245C218.409 88.0675 219.643 88.3889 221.006 88.3889ZM262.31 80.0951C263.853 80.6351 265.062 81.4838 265.936 82.6411C266.811 83.7727 267.248 85.1485 267.248 86.7687C267.248 89.1347 266.296 90.9607 264.393 92.2465C262.49 93.5324 259.738 94.1754 256.138 94.1754H241.556V67.172H255.366C258.812 67.172 261.436 67.815 263.236 69.1009C265.036 70.361 265.936 72.0712 265.936 74.2315C265.936 75.5174 265.615 76.6746 264.972 77.7033C264.355 78.7063 263.467 79.5036 262.31 80.0951ZM249.117 72.6884V77.8962H254.363C256.935 77.8962 258.221 77.0218 258.221 75.273C258.221 73.55 256.935 72.6884 254.363 72.6884H249.117ZM255.521 88.659C258.195 88.659 259.533 87.746 259.533 85.9201C259.533 84.0941 258.195 83.1812 255.521 83.1812H249.117V88.659H255.521ZM284.551 87.0002H280.385V94.1754H272.747V67.172H285.091C287.535 67.172 289.656 67.5835 291.456 68.4065C293.257 69.2037 294.645 70.361 295.623 71.8783C296.6 73.3699 297.089 75.1316 297.089 77.1633C297.089 79.1178 296.626 80.828 295.7 82.2939C294.8 83.7341 293.501 84.8656 291.804 85.6886L297.629 94.1754H289.45L284.551 87.0002ZM289.373 77.1633C289.373 75.9031 288.975 74.9259 288.177 74.2315C287.38 73.5371 286.197 73.1899 284.628 73.1899H280.385V81.098H284.628C286.197 81.098 287.38 80.7637 288.177 80.0951C288.975 79.4007 289.373 78.4234 289.373 77.1633ZM320.938 88.929H309.519L307.397 94.1754H299.605L311.525 67.172H319.047L331.006 94.1754H323.059L320.938 88.929ZM318.7 83.2969L315.228 74.6558L311.757 83.2969H318.7ZM357.552 88.1189V94.1754H333.364V89.3919L346.982 73.2285H333.711V67.172H356.973V71.9555L343.356 88.1189H357.552ZM374.9 94.7154C370.888 94.7154 367.763 93.6224 365.526 91.4364C363.314 89.2505 362.208 86.1515 362.208 82.1396V67.172H369.846V81.9081C369.846 86.2287 371.556 88.3889 374.977 88.3889C378.372 88.3889 380.069 86.2287 380.069 81.9081V67.172H387.591V82.1396C387.591 86.1515 386.473 89.2505 384.235 91.4364C382.023 93.6224 378.912 94.7154 374.9 94.7154Z" fill="#4198BA"/>
<path d="M60.3235 6.33801C54.2998 6.33801 49.4165 10.9032 49.4165 16.5337C49.4165 22.1641 54.2992 26.7287 60.3235 26.7287C66.3465 26.7287 71.2312 22.1648 71.2312 16.5337C71.2312 10.9038 66.3465 6.33801 60.3235 6.33801ZM60.3235 21.1078C57.621 21.1078 55.43 19.0591 55.43 16.5337C55.43 14.0076 57.6217 11.9596 60.3235 11.9596C63.026 11.9596 65.2164 14.0076 65.2164 16.5337C65.2164 19.0591 63.026 21.1078 60.3235 21.1078Z" fill="#4198BA"/>
<path d="M76.4562 93.7057V93.7083H43.8554V85.322C43.8554 85.322 44.231 75.2056 58.4395 75.2056C73.1026 75.2056 76.4562 62.0624 76.4562 57.8762C76.4562 53.69 76.4562 48.1072 76.4562 48.1072C76.4562 48.1072 76.2158 38.2943 65.5879 33.1438C54.3087 27.6797 43.8554 35.0147 43.8554 35.548C43.8554 31.1973 43.8554 20.7979 43.8554 18.3372C43.8554 11.7081 37.7203 0.660522 24.0755 0.660522C10.7214 0.660522 4.46273 11.5526 4.46273 18.8019C4.46273 23.2211 4.46273 58.1486 4.46273 58.1486C4.46273 58.1486 4.58852 75.2804 22.2256 75.2804C33.699 75.2804 36.3844 81.3294 36.3844 85.4902C36.3844 87.8029 36.3844 93.7083 36.3844 93.7083H4.46273V93.7057C2.42518 93.8264 0.978516 95.3348 0.978516 97.1834C0.978516 99.0321 2.42518 100.541 4.46273 100.661H76.4562C77.8146 100.541 79.9404 99.0328 79.9404 97.1834C79.9404 95.3354 77.8146 93.827 76.4562 93.7057ZM11.9337 17.8357C11.9337 17.8357 11.8489 15.9731 13.5828 13.1639C15.7514 9.67219 19.7002 7.32897 24.2664 7.32897C31.1492 7.32897 36.3844 13.5848 36.3844 20.1465C36.3844 19.8374 36.3844 20.4621 36.3844 20.1465V42.0621C36.3844 42.0621 33.3395 38.3413 23.412 38.3413C11.7171 38.3007 11.9337 28.1069 11.9337 28.1069V17.8357ZM36.3844 58.3415V72.2968C36.3844 72.2968 33.3395 68.5753 23.412 68.5753C11.7171 68.5353 11.9337 58.3415 11.9337 58.3415V42.2723C11.9337 42.2723 15.3102 45.4332 23.9112 45.4332C38.032 45.4332 36.3844 58.3415 36.3844 58.3415ZM43.8554 50.3812C43.8554 43.8194 49.3513 37.5642 56.3721 37.5642C61.0299 37.5642 65.052 39.9075 67.2655 43.3991C69.0341 46.209 68.9852 48.0716 68.9852 48.0716V58.3415C68.9852 58.3415 69.1102 68.5353 57.1816 68.5753C46.9231 68.5753 43.8554 72.2968 43.8554 72.2968V58.3415V50.3812C43.8554 50.6967 43.8554 50.0727 43.8554 50.3812Z" fill="#4198BA"/>
</svg>
