<svg width="391" height="101" viewBox="0 0 391 101" fill="none" xmlns="http://www.w3.org/2000/svg">
<path d="M101.705 49.8174L98.8509 52.8649V59.6158H91.2899V32.6125H98.8509V43.8381L109.305 32.6125H117.715L106.682 44.5711L118.293 59.6158H109.421L101.705 49.8174ZM133.645 52.4406H129.479V59.6158H121.84V32.6125H134.185C136.628 32.6125 138.75 33.0239 140.55 33.8469C142.35 34.6441 143.739 35.8014 144.716 37.3188C145.693 38.8104 146.182 40.572 146.182 42.6037C146.182 44.5582 145.719 46.2684 144.793 47.7343C143.893 49.1745 142.594 50.3061 140.897 51.129L146.722 59.6158H138.544L133.645 52.4406ZM138.467 42.6037C138.467 41.3435 138.068 40.3663 137.271 39.6719C136.474 38.9775 135.291 38.6303 133.722 38.6303H129.479V46.5385H133.722C135.291 46.5385 136.474 46.2041 137.271 45.5355C138.068 44.8411 138.467 43.8638 138.467 42.6037ZM173.619 53.7136V59.6158H151.939V32.6125H173.117V38.5146H159.5V43.0666H171.497V48.7759H159.5V53.7136H173.619ZM197.492 54.3694H186.074L183.952 59.6158H176.16L188.08 32.6125H195.602L207.561 59.6158H199.614L197.492 54.3694ZM195.255 48.7373L191.783 40.0962L188.311 48.7373H195.255ZM215.661 38.6689H207.367V32.6125H231.554V38.6689H223.299V59.6158H215.661V38.6689ZM249.184 60.1558C246.329 60.1558 243.757 59.5515 241.468 58.3428C239.205 57.134 237.418 55.4624 236.106 53.3279C234.82 51.1933 234.177 48.7887 234.177 46.1141C234.177 43.4395 234.82 41.0349 236.106 38.9004C237.418 36.7658 239.205 35.0942 241.468 33.8855C243.757 32.6768 246.329 32.0724 249.184 32.0724C252.038 32.0724 254.597 32.6768 256.86 33.8855C259.149 35.0942 260.936 36.7658 262.222 38.9004C263.534 41.0349 264.19 43.4395 264.19 46.1141C264.19 48.7887 263.534 51.1933 262.222 53.3279C260.936 55.4624 259.149 57.134 256.86 58.3428C254.597 59.5515 252.038 60.1558 249.184 60.1558ZM249.184 53.8293C250.547 53.8293 251.781 53.5079 252.887 52.8649C253.993 52.222 254.867 51.3219 255.51 50.1646C256.153 48.9816 256.475 47.6314 256.475 46.1141C256.475 44.5968 256.153 43.2595 255.51 42.1022C254.867 40.9192 253.993 40.0062 252.887 39.3633C251.781 38.7204 250.547 38.3989 249.184 38.3989C247.821 38.3989 246.586 38.7204 245.48 39.3633C244.374 40.0062 243.5 40.9192 242.857 42.1022C242.214 43.2595 241.893 44.5968 241.893 46.1141C241.893 47.6314 242.214 48.9816 242.857 50.1646C243.5 51.3219 244.374 52.222 245.48 52.8649C246.586 53.5079 247.821 53.8293 249.184 53.8293ZM281.538 52.4406H277.371V59.6158H269.733V32.6125H282.078C284.521 32.6125 286.642 33.0239 288.443 33.8469C290.243 34.6441 291.632 35.8014 292.609 37.3188C293.586 38.8104 294.075 40.572 294.075 42.6037C294.075 44.5582 293.612 46.2684 292.686 47.7343C291.786 49.1745 290.487 50.3061 288.79 51.129L294.615 59.6158H286.437L281.538 52.4406ZM286.36 42.6037C286.36 41.3435 285.961 40.3663 285.164 39.6719C284.366 38.9775 283.183 38.6303 281.615 38.6303H277.371V46.5385H281.615C283.183 46.5385 284.366 46.2041 285.164 45.5355C285.961 44.8411 286.36 43.8638 286.36 42.6037ZM322.669 53.5593V59.6158H298.482V54.8323L312.099 38.6689H298.829V32.6125H322.09V37.3959L308.473 53.5593H322.669ZM342.023 49.9332V59.6158H334.385V49.8174L324.085 32.6125H332.147L338.551 43.3366L344.955 32.6125H352.361L342.023 49.9332ZM101.705 83.8174L98.8509 86.8649V93.6158H91.2899V66.6125H98.8509V77.8381L109.305 66.6125H117.715L106.682 78.5711L118.293 93.6158H109.421L101.705 83.8174ZM133.645 86.4406H129.479V93.6158H121.84V66.6125H134.185C136.628 66.6125 138.75 67.0239 140.55 67.8469C142.35 68.6441 143.739 69.8014 144.716 71.3188C145.693 72.8104 146.182 74.572 146.182 76.6037C146.182 78.5582 145.719 80.2684 144.793 81.7343C143.893 83.1745 142.594 84.3061 140.897 85.129L146.722 93.6158H138.544L133.645 86.4406ZM138.467 76.6037C138.467 75.3435 138.068 74.3663 137.271 73.6719C136.474 72.9775 135.291 72.6303 133.722 72.6303H129.479V80.5385H133.722C135.291 80.5385 136.474 80.2041 137.271 79.5355C138.068 78.8411 138.467 77.8638 138.467 76.6037ZM170.031 88.3694H158.613L156.491 93.6158H148.698L160.619 66.6125H168.141L180.099 93.6158H172.153L170.031 88.3694ZM167.794 82.7373L164.322 74.0962L160.85 82.7373H167.794ZM190.275 94.1558C188.295 94.1558 186.495 93.8215 184.874 93.1529C183.254 92.4585 181.93 91.4684 180.901 90.1825L185.067 85.2447C186.508 87.1221 188.063 88.0608 189.735 88.0608C190.841 88.0608 191.677 87.7265 192.243 87.0578C192.834 86.3892 193.13 85.4119 193.13 84.126V72.5146H183.794V66.6125H200.691V83.6631C200.691 87.1607 199.803 89.7839 198.029 91.5327C196.28 93.2814 193.696 94.1558 190.275 94.1558ZM221.006 94.1558C218.152 94.1558 215.58 93.5515 213.291 92.3428C211.028 91.134 209.241 89.4624 207.929 87.3279C206.643 85.1933 206 82.7887 206 80.1141C206 77.4395 206.643 75.0349 207.929 72.9004C209.241 70.7658 211.028 69.0942 213.291 67.8855C215.58 66.6768 218.152 66.0724 221.006 66.0724C223.861 66.0724 226.42 66.6768 228.683 67.8855C230.972 69.0942 232.759 70.7658 234.045 72.9004C235.357 75.0349 236.013 77.4395 236.013 80.1141C236.013 82.7887 235.357 85.1933 234.045 87.3279C232.759 89.4624 230.972 91.134 228.683 92.3428C226.42 93.5515 223.861 94.1558 221.006 94.1558ZM221.006 87.8293C222.369 87.8293 223.604 87.5079 224.71 86.8649C225.816 86.222 226.69 85.3219 227.333 84.1646C227.976 82.9816 228.297 81.6314 228.297 80.1141C228.297 78.5968 227.976 77.2595 227.333 76.1022C226.69 74.9192 225.816 74.0062 224.71 73.3633C223.604 72.7204 222.369 72.3989 221.006 72.3989C219.643 72.3989 218.409 72.7204 217.303 73.3633C216.197 74.0062 215.323 74.9192 214.68 76.1022C214.037 77.2595 213.716 78.5968 213.716 80.1141C213.716 81.6314 214.037 82.9816 214.68 84.1646C215.323 85.3219 216.197 86.222 217.303 86.8649C218.409 87.5079 219.643 87.8293 221.006 87.8293ZM262.31 79.5355C263.853 80.0755 265.062 80.9242 265.936 82.0815C266.811 83.2131 267.248 84.5889 267.248 86.2091C267.248 88.5751 266.296 90.4011 264.393 91.687C262.49 92.9728 259.738 93.6158 256.138 93.6158H241.556V66.6125H255.366C258.812 66.6125 261.436 67.2554 263.236 68.5413C265.036 69.8014 265.936 71.5116 265.936 73.6719C265.936 74.9578 265.615 76.1151 264.972 77.1438C264.355 78.1467 263.467 78.944 262.31 79.5355ZM249.117 72.1288V77.3366H254.363C256.935 77.3366 258.221 76.4622 258.221 74.7135C258.221 72.9904 256.935 72.1288 254.363 72.1288H249.117ZM255.521 88.0994C258.195 88.0994 259.533 87.1864 259.533 85.3605C259.533 83.5345 258.195 82.6216 255.521 82.6216H249.117V88.0994H255.521ZM284.551 86.4406H280.385V93.6158H272.747V66.6125H285.091C287.535 66.6125 289.656 67.0239 291.456 67.8469C293.257 68.6441 294.645 69.8014 295.623 71.3188C296.6 72.8104 297.089 74.572 297.089 76.6037C297.089 78.5582 296.626 80.2684 295.7 81.7343C294.8 83.1745 293.501 84.3061 291.804 85.129L297.629 93.6158H289.45L284.551 86.4406ZM289.373 76.6037C289.373 75.3435 288.975 74.3663 288.177 73.6719C287.38 72.9775 286.197 72.6303 284.628 72.6303H280.385V80.5385H284.628C286.197 80.5385 287.38 80.2041 288.177 79.5355C288.975 78.8411 289.373 77.8638 289.373 76.6037ZM320.938 88.3694H309.519L307.397 93.6158H299.605L311.525 66.6125H319.047L331.006 93.6158H323.059L320.938 88.3694ZM318.7 82.7373L315.228 74.0962L311.757 82.7373H318.7ZM357.552 87.5593V93.6158H333.364V88.8323L346.982 72.6689H333.711V66.6125H356.973V71.3959L343.356 87.5593H357.552ZM374.9 94.1558C370.888 94.1558 367.763 93.0628 365.526 90.8769C363.314 88.6909 362.208 85.5919 362.208 81.58V66.6125H369.846V81.3486C369.846 85.6691 371.556 87.8293 374.977 87.8293C378.372 87.8293 380.069 85.6691 380.069 81.3486V66.6125H387.591V81.58C387.591 85.5919 386.473 88.6909 384.235 90.8769C382.023 93.0628 378.912 94.1558 374.9 94.1558Z" fill="#202020"/>
<path d="M60.3235 5.77843C54.2998 5.77843 49.4165 10.3436 49.4165 15.9741C49.4165 21.6046 54.2992 26.1691 60.3235 26.1691C66.3465 26.1691 71.2312 21.6052 71.2312 15.9741C71.2312 10.3443 66.3465 5.77843 60.3235 5.77843ZM60.3235 20.5482C57.621 20.5482 55.43 18.4995 55.43 15.9741C55.43 13.448 57.6217 11.4 60.3235 11.4C63.026 11.4 65.2164 13.448 65.2164 15.9741C65.2164 18.4995 63.026 20.5482 60.3235 20.5482Z" fill="#202020"/>
<path d="M76.4562 93.1462V93.1487H43.8554V84.7624C43.8554 84.7624 44.231 74.6461 58.4395 74.6461C73.1026 74.6461 76.4562 61.5028 76.4562 57.3166C76.4562 53.1304 76.4562 47.5476 76.4562 47.5476C76.4562 47.5476 76.2158 37.7347 65.5879 32.5842C54.3087 27.1201 43.8554 34.4551 43.8554 34.9884C43.8554 30.6378 43.8554 20.2383 43.8554 17.7777C43.8554 11.1486 37.7203 0.100952 24.0755 0.100952C10.7214 0.100952 4.46273 10.993 4.46273 18.2424C4.46273 22.6615 4.46273 57.589 4.46273 57.589C4.46273 57.589 4.58852 74.7208 22.2256 74.7208C33.699 74.7208 36.3844 80.7698 36.3844 84.9306C36.3844 87.2434 36.3844 93.1487 36.3844 93.1487H4.46273V93.1462C2.42518 93.2668 0.978516 94.7752 0.978516 96.6239C0.978516 98.4726 2.42518 99.981 4.46273 100.101H76.4562C77.8146 99.9816 79.9404 98.4732 79.9404 96.6239C79.9404 94.7758 77.8146 93.2674 76.4562 93.1462ZM11.9337 17.2761C11.9337 17.2761 11.8489 15.4135 13.5828 12.6043C15.7514 9.11262 19.7002 6.7694 24.2664 6.7694C31.1492 6.7694 36.3844 13.0252 36.3844 19.587C36.3844 19.2778 36.3844 19.9025 36.3844 19.587V41.5026C36.3844 41.5026 33.3395 37.7817 23.412 37.7817C11.7171 37.7411 11.9337 27.5473 11.9337 27.5473V17.2761ZM36.3844 57.782V71.7372C36.3844 71.7372 33.3395 68.0157 23.412 68.0157C11.7171 67.9757 11.9337 57.782 11.9337 57.782V41.7127C11.9337 41.7127 15.3102 44.8736 23.9112 44.8736C38.032 44.8736 36.3844 57.782 36.3844 57.782ZM43.8554 49.8216C43.8554 43.2598 49.3513 37.0047 56.3721 37.0047C61.0299 37.0047 65.052 39.3479 67.2655 42.8396C69.0341 45.6494 68.9852 47.512 68.9852 47.512V57.782C68.9852 57.782 69.1102 67.9757 57.1816 68.0157C46.9231 68.0157 43.8554 71.7372 43.8554 71.7372V57.782V49.8216C43.8554 50.1371 43.8554 49.5131 43.8554 49.8216Z" fill="#202020"/>
</svg>
