<svg width="196" height="51" viewBox="0 0 196 51" fill="none" xmlns="http://www.w3.org/2000/svg">
<path d="M50.7804 25.4087L49.353 26.9325V30.3079H45.5726V16.8062H49.353V22.4191L54.5801 16.8062H58.7849L53.2685 22.7855L59.0742 30.3079H54.638L50.7804 25.4087ZM66.75 26.7203H64.6669V30.3079H60.8478V16.8062H67.02C68.2416 16.8062 69.3024 17.012 70.2025 17.4234C71.1027 17.8221 71.797 18.4007 72.2857 19.1594C72.7743 19.9052 73.0186 20.786 73.0186 21.8018C73.0186 22.7791 72.7871 23.6342 72.3242 24.3672C71.8742 25.0872 71.2248 25.653 70.3761 26.0645L73.2886 30.3079H69.1996L66.75 26.7203ZM69.161 21.8018C69.161 21.1718 68.9617 20.6831 68.5631 20.3359C68.1644 19.9888 67.5729 19.8152 66.7886 19.8152H64.6669V23.7692H66.7886C67.5729 23.7692 68.1644 23.6021 68.5631 23.2677C68.9617 22.9206 69.161 22.4319 69.161 21.8018ZM86.7369 27.3568V30.3079H75.897V16.8062H86.4862V19.7573H79.6775V22.0333H85.6761V24.8879H79.6775V27.3568H86.7369ZM98.6739 27.6847H92.9646L91.9037 30.3079H88.0075L93.9676 16.8062H97.7287L103.708 30.3079H99.7347L98.6739 27.6847ZM97.5551 24.8686L95.8192 20.5481L94.0833 24.8686H97.5551ZM107.758 19.8345H103.611V16.8062H115.705V19.8345H111.577V30.3079H107.758V19.8345ZM124.519 30.5779C123.092 30.5779 121.806 30.2757 120.662 29.6714C119.53 29.067 118.637 28.2312 117.981 27.1639C117.338 26.0967 117.016 24.8944 117.016 23.5571C117.016 22.2198 117.338 21.0175 117.981 19.9502C118.637 18.8829 119.53 18.0471 120.662 17.4427C121.806 16.8384 123.092 16.5362 124.519 16.5362C125.947 16.5362 127.226 16.8384 128.358 17.4427C129.502 18.0471 130.396 18.8829 131.039 19.9502C131.695 21.0175 132.022 22.2198 132.022 23.5571C132.022 24.8944 131.695 26.0967 131.039 27.1639C130.396 28.2312 129.502 29.067 128.358 29.6714C127.226 30.2757 125.947 30.5779 124.519 30.5779ZM124.519 27.4147C125.201 27.4147 125.818 27.2539 126.371 26.9325C126.924 26.611 127.361 26.1609 127.683 25.5823C128.004 24.9908 128.165 24.3157 128.165 23.5571C128.165 22.7984 128.004 22.1297 127.683 21.5511C127.361 20.9596 126.924 20.5031 126.371 20.1816C125.818 19.8602 125.201 19.6994 124.519 19.6994C123.838 19.6994 123.221 19.8602 122.668 20.1816C122.115 20.5031 121.678 20.9596 121.356 21.5511C121.035 22.1297 120.874 22.7984 120.874 23.5571C120.874 24.3157 121.035 24.9908 121.356 25.5823C121.678 26.1609 122.115 26.611 122.668 26.9325C123.221 27.2539 123.838 27.4147 124.519 27.4147ZM140.696 26.7203H138.613V30.3079H134.794V16.8062H140.966C142.188 16.8062 143.249 17.012 144.149 17.4234C145.049 17.8221 145.743 18.4007 146.232 19.1594C146.721 19.9052 146.965 20.786 146.965 21.8018C146.965 22.7791 146.734 23.6342 146.271 24.3672C145.821 25.0872 145.171 25.653 144.323 26.0645L147.235 30.3079H143.146L140.696 26.7203ZM143.107 21.8018C143.107 21.1718 142.908 20.6831 142.509 20.3359C142.111 19.9888 141.519 19.8152 140.735 19.8152H138.613V23.7692H140.735C141.519 23.7692 142.111 23.6021 142.509 23.2677C142.908 22.9206 143.107 22.4319 143.107 21.8018ZM161.262 27.2797V30.3079H149.168V27.9162L155.977 19.8345H149.342V16.8062H160.973V19.198L154.164 27.2797H161.262ZM170.939 25.4666V30.3079H167.12V25.4087L161.97 16.8062H166.001L169.203 22.1683L172.405 16.8062H176.108L170.939 25.4666ZM50.7804 42.4087L49.353 43.9325V47.3079H45.5726V33.8062H49.353V39.4191L54.5801 33.8062H58.7849L53.2685 39.7855L59.0742 47.3079H54.638L50.7804 42.4087ZM66.75 43.7203H64.6669V47.3079H60.8478V33.8062H67.02C68.2416 33.8062 69.3024 34.012 70.2025 34.4234C71.1027 34.8221 71.797 35.4007 72.2857 36.1594C72.7743 36.9052 73.0186 37.786 73.0186 38.8018C73.0186 39.7791 72.7871 40.6342 72.3242 41.3672C71.8742 42.0872 71.2248 42.653 70.3761 43.0645L73.2886 47.3079H69.1996L66.75 43.7203ZM69.161 38.8018C69.161 38.1718 68.9617 37.6831 68.5631 37.3359C68.1644 36.9888 67.5729 36.8152 66.7886 36.8152H64.6669V40.7692H66.7886C67.5729 40.7692 68.1644 40.6021 68.5631 40.2677C68.9617 39.9206 69.161 39.4319 69.161 38.8018ZM84.9432 44.6847H79.2339L78.173 47.3079H74.2768L80.2369 33.8062H83.998L89.9773 47.3079H86.004L84.9432 44.6847ZM83.8244 41.8686L82.0885 37.5481L80.3526 41.8686H83.8244ZM95.0652 47.5779C94.0751 47.5779 93.1749 47.4108 92.3648 47.0764C91.5547 46.7292 90.8925 46.2342 90.3782 45.5912L92.4613 43.1224C93.1814 44.0611 93.9593 44.5304 94.7951 44.5304C95.3481 44.5304 95.766 44.3632 96.0489 44.0289C96.3446 43.6946 96.4925 43.206 96.4925 42.563V36.7573H91.8248V33.8062H100.273V42.3316C100.273 44.0803 99.8293 45.3919 98.9421 46.2663C98.0677 47.1407 96.7754 47.5779 95.0652 47.5779ZM110.431 47.5779C109.004 47.5779 107.718 47.2757 106.573 46.6714C105.442 46.067 104.548 45.2312 103.892 44.1639C103.249 43.0967 102.928 41.8944 102.928 40.5571C102.928 39.2198 103.249 38.0175 103.892 36.9502C104.548 35.8829 105.442 35.0471 106.573 34.4427C107.718 33.8384 109.004 33.5362 110.431 33.5362C111.858 33.5362 113.138 33.8384 114.269 34.4427C115.414 35.0471 116.307 35.8829 116.95 36.9502C117.606 38.0175 117.934 39.2198 117.934 40.5571C117.934 41.8944 117.606 43.0967 116.95 44.1639C116.307 45.2312 115.414 46.067 114.269 46.6714C113.138 47.2757 111.858 47.5779 110.431 47.5779ZM110.431 44.4147C111.112 44.4147 111.73 44.2539 112.282 43.9325C112.835 43.611 113.273 43.1609 113.594 42.5823C113.916 41.9908 114.076 41.3157 114.076 40.5571C114.076 39.7984 113.916 39.1297 113.594 38.5511C113.273 37.9596 112.835 37.5031 112.282 37.1816C111.73 36.8602 111.112 36.6994 110.431 36.6994C109.749 36.6994 109.132 36.8602 108.579 37.1816C108.026 37.5031 107.589 37.9596 107.268 38.5511C106.946 39.1297 106.785 39.7984 106.785 40.5571C106.785 41.3157 106.946 41.9908 107.268 42.5823C107.589 43.1609 108.026 43.611 108.579 43.9325C109.132 44.2539 109.749 44.4147 110.431 44.4147ZM131.083 40.2677C131.854 40.5378 132.459 40.9621 132.896 41.5407C133.333 42.1065 133.552 42.7945 133.552 43.6046C133.552 44.7876 133.076 45.7005 132.124 46.3435C131.173 46.9864 129.797 47.3079 127.997 47.3079H120.706V33.8062H127.611C129.334 33.8062 130.645 34.1277 131.546 34.7706C132.446 35.4007 132.896 36.2558 132.896 37.3359C132.896 37.9789 132.735 38.5575 132.414 39.0719C132.105 39.5734 131.661 39.972 131.083 40.2677ZM124.486 36.5644V39.1683H127.109C128.395 39.1683 129.038 38.7311 129.038 37.8567C129.038 36.9952 128.395 36.5644 127.109 36.5644H124.486ZM127.688 44.5497C129.025 44.5497 129.694 44.0932 129.694 43.1802C129.694 42.2673 129.025 41.8108 127.688 41.8108H124.486V44.5497H127.688ZM142.203 43.7203H140.12V47.3079H136.301V33.8062H142.473C143.695 33.8062 144.756 34.012 145.656 34.4234C146.556 34.8221 147.25 35.4007 147.739 36.1594C148.228 36.9052 148.472 37.786 148.472 38.8018C148.472 39.7791 148.24 40.6342 147.778 41.3672C147.327 42.0872 146.678 42.653 145.829 43.0645L148.742 47.3079H144.653L142.203 43.7203ZM144.614 38.8018C144.614 38.1718 144.415 37.6831 144.016 37.3359C143.618 36.9888 143.026 36.8152 142.242 36.8152H140.12V40.7692H142.242C143.026 40.7692 143.618 40.6021 144.016 40.2677C144.415 39.9206 144.614 39.4319 144.614 38.8018ZM160.396 44.6847H154.687L153.626 47.3079H149.73L155.69 33.8062H159.451L165.431 47.3079H161.457L160.396 44.6847ZM159.278 41.8686L157.542 37.5481L155.806 41.8686H159.278ZM178.703 44.2797V47.3079H166.61V44.9162L173.418 36.8345H166.783V33.8062H178.414V36.198L171.605 44.2797H178.703ZM187.377 47.5779C185.371 47.5779 183.809 47.0314 182.69 45.9384C181.585 44.8454 181.032 43.296 181.032 41.29V33.8062H184.851V41.1743C184.851 43.3345 185.706 44.4147 187.416 44.4147C189.113 44.4147 189.962 43.3345 189.962 41.1743V33.8062H193.723V41.29C193.723 43.296 193.164 44.8454 192.045 45.9384C190.939 47.0314 189.383 47.5779 187.377 47.5779Z" fill="#202020"/>
<path d="M30.0895 3.38922C27.0777 3.38922 24.636 5.67182 24.636 8.48705C24.636 11.3023 27.0773 13.5846 30.0895 13.5846C33.101 13.5846 35.5433 11.3026 35.5433 8.48705C35.5433 5.67214 33.101 3.38922 30.0895 3.38922ZM30.0895 10.7741C28.7383 10.7741 27.6427 9.74977 27.6427 8.48705C27.6427 7.22402 28.7386 6.20001 30.0895 6.20001C31.4407 6.20001 32.5359 7.22402 32.5359 8.48705C32.5359 9.74977 31.4407 10.7741 30.0895 10.7741Z" fill="#202020"/>
<path d="M38.1558 47.0731V47.0744H21.8554V42.8812C21.8554 42.8812 22.0432 37.823 29.1475 37.823C36.479 37.823 38.1558 31.2514 38.1558 29.1583C38.1558 27.0652 38.1558 24.2738 38.1558 24.2738C38.1558 24.2738 38.0356 19.3674 32.7217 16.7921C27.0821 14.06 21.8554 17.7276 21.8554 17.9942C21.8554 15.8189 21.8554 10.6192 21.8554 9.38883C21.8554 6.07429 18.7879 0.550476 11.9655 0.550476C5.28844 0.550476 2.1591 5.99652 2.1591 9.62119C2.1591 11.8308 2.1591 29.2945 2.1591 29.2945C2.1591 29.2945 2.22199 37.8604 11.0405 37.8604C16.7772 37.8604 18.1199 40.8849 18.1199 42.9653C18.1199 44.1217 18.1199 47.0744 18.1199 47.0744H2.1591V47.0731C1.14032 47.1334 0.416992 47.8876 0.416992 48.8119C0.416992 49.7363 1.14032 50.4905 2.1591 50.5505H38.1558C38.835 50.4908 39.8979 49.7366 39.8979 48.8119C39.8979 47.8879 38.835 47.1337 38.1558 47.0731ZM5.89461 9.13807C5.89461 9.13807 5.85216 8.20674 6.71914 6.80214C7.80346 5.05631 9.77784 3.8847 12.0609 3.8847C15.5023 3.8847 18.1199 7.01259 18.1199 10.2935C18.1199 10.1389 18.1199 10.4512 18.1199 10.2935V21.2513C18.1199 21.2513 16.5975 19.3909 11.6337 19.3909C5.78628 19.3705 5.89461 14.2737 5.89461 14.2737V9.13807ZM18.1199 29.391V36.3686C18.1199 36.3686 16.5975 34.5079 11.6337 34.5079C5.78628 34.4879 5.89461 29.391 5.89461 29.391V21.3563C5.89461 21.3563 7.58285 22.9368 11.8833 22.9368C18.9437 22.9368 18.1199 29.391 18.1199 29.391ZM21.8554 25.4108C21.8554 22.1299 24.6034 19.0023 28.1138 19.0023C30.4427 19.0023 32.4538 20.1739 33.5605 21.9198C34.4448 23.3247 34.4203 24.256 34.4203 24.256V29.391C34.4203 29.391 34.4828 34.4879 28.5186 34.5079C23.3893 34.5079 21.8554 36.3686 21.8554 36.3686V29.391V25.4108C21.8554 25.5686 21.8554 25.2565 21.8554 25.4108Z" fill="#202020"/>
</svg>
