<svg width="198" height="196" viewBox="0 0 198 196" fill="none" xmlns="http://www.w3.org/2000/svg">
<path fill-rule="evenodd" clip-rule="evenodd" d="M166.974 17C158.021 17 150.763 24.253 150.763 33.2C150.763 42.147 158.021 49.4 166.974 49.4C175.927 49.4 183.185 42.147 183.185 33.2C183.185 24.253 175.927 17 166.974 17ZM144.278 33.2C144.278 20.6742 154.44 10.52 166.974 10.52C179.508 10.52 189.669 20.6742 189.669 33.2C189.669 45.7258 179.508 55.88 166.974 55.88C154.44 55.88 144.278 45.7258 144.278 33.2ZM98.8875 36.44C100.678 36.44 102.13 37.8906 102.13 39.68V51.9798L109.721 45.3416C111.069 44.1633 113.117 44.2998 114.296 45.6464C115.476 46.9931 115.339 49.04 113.991 50.2183L102.13 60.5902V188.72H141.036V141.553L124.265 126.317C122.94 125.114 122.843 123.065 124.047 121.741C125.252 120.416 127.302 120.319 128.627 121.523L141.036 132.796V101.24C141.036 99.4506 142.488 98 144.278 98C146.069 98 147.521 99.4506 147.521 101.24V111.92L155.112 105.282C156.46 104.103 158.508 104.24 159.687 105.586C160.866 106.933 160.73 108.98 159.382 110.158L147.521 120.53V188.72H194.533C196.323 188.72 197.775 190.171 197.775 191.96C197.775 193.749 196.323 195.2 194.533 195.2H3.24221C1.45159 195.2 0 193.749 0 191.96C0 190.171 1.45159 188.72 3.24221 188.72H50.2543V120.402L39.8562 110.011C38.59 108.746 38.59 106.694 39.8562 105.429C41.1223 104.164 43.1752 104.164 44.4414 105.429L50.2543 111.238V101.24C50.2543 99.4506 51.7059 98 53.4965 98C55.2871 98 56.7387 99.4506 56.7387 101.24V129.515L61.0323 125.582C62.3523 124.372 64.4032 124.462 65.6132 125.781C66.8231 127.1 66.734 129.149 65.414 130.358L56.7387 138.305V188.72H95.6453V84.762L80.3838 69.511C79.1177 68.2457 79.1177 66.1943 80.3838 64.929C81.65 63.6637 83.7029 63.6637 84.969 64.929L95.6453 75.5979V39.68C95.6453 37.8906 97.0969 36.44 98.8875 36.44Z" fill="#FAFAFA"/>
<path fill-rule="evenodd" clip-rule="evenodd" d="M170.907 104.987L171.572 100.226C171.746 98.972 171.837 97.6884 171.837 96.38C171.837 81.1701 159.499 68.84 144.278 68.84C129.058 68.84 116.72 81.1701 116.72 96.38C116.72 98.7921 117.028 101.123 117.605 103.338L118.898 108.304L114.357 110.7C106.108 115.053 100.509 123.698 100.509 133.64C100.509 147.955 112.121 159.56 126.446 159.56C131.919 159.56 136.979 157.873 141.157 154.992L144.781 152.492L148.443 154.938C152.815 157.857 158.065 159.56 163.732 159.56C178.952 159.56 191.291 147.23 191.291 132.02C191.291 120.94 184.742 111.374 175.274 107.003L170.907 104.987ZM144.84 160.325C139.614 163.929 133.277 166.04 126.446 166.04C108.54 166.04 94.0242 151.534 94.0242 133.64C94.0242 121.201 101.038 110.4 111.33 104.97C110.615 102.226 110.235 99.3473 110.235 96.38C110.235 77.5913 125.477 62.36 144.278 62.36C163.08 62.36 178.322 77.5913 178.322 96.38C178.322 97.9886 178.21 99.5712 177.994 101.12C189.672 106.512 197.775 118.32 197.775 132.02C197.775 150.809 182.533 166.04 163.732 166.04C156.742 166.04 150.245 163.935 144.84 160.325Z" fill="#FAFAFA"/>
<path d="M100.558 114.132C100.002 114.177 99.4451 114.2 98.8875 114.2C91.2893 114.2 84.1829 109.97 78.7064 101.869C73.2077 93.7352 69.7076 82.0927 69.7076 68.84C69.7076 55.4847 73.2622 39.4187 79.1976 26.8489C82.1616 20.5717 85.5667 15.4938 89.123 12.0751C92.6665 8.66885 95.9431 7.27999 98.8875 7.27999C101.862 7.27999 105.264 8.69559 108.987 12.1522C112.706 15.6051 116.304 20.7135 119.457 26.9909C125.282 38.5861 129.059 53.0973 129.617 65.668C131.636 64.7034 133.766 63.9319 135.982 63.3774C134.079 35.4536 118.197 0.799988 98.8875 0.799988C78.2953 0.799988 63.2232 40.2095 63.2232 68.84C63.2232 96.4743 77.2648 119.058 96.7586 120.596C97.7758 118.288 99.0546 116.121 100.558 114.132Z" fill="#FAFAFA"/>
<path d="M103.154 120.344C99.4189 144.393 78.6087 162.8 53.4965 162.8C25.7418 162.8 3.24221 140.316 3.24221 112.58C3.24221 84.8442 25.7418 62.36 53.4965 62.36C56.8862 62.36 60.1974 62.6953 63.3989 63.3347C63.2825 65.204 63.2232 67.0432 63.2232 68.84C63.2232 69.2027 63.2256 69.5646 63.2304 69.9255C60.1 69.2151 56.8421 68.84 53.4965 68.84C29.3231 68.84 9.72664 88.4231 9.72664 112.58C9.72664 136.737 29.3231 156.32 53.4965 156.32C74.9364 156.32 92.7758 140.915 96.5363 120.578C97.3115 120.646 98.0954 120.68 98.8875 120.68C100.33 120.68 101.754 120.566 103.154 120.344Z" fill="#FAFAFA"/>
</svg>
