<svg width="41" height="50" viewBox="0 0 41 50" fill="none" xmlns="http://www.w3.org/2000/svg">
<path d="M30.0512 2.83405C27.0443 2.83405 24.6067 5.11287 24.6067 7.92346C24.6067 10.734 27.044 13.0126 30.0512 13.0126C33.0577 13.0126 35.496 10.7344 35.496 7.92346C35.496 5.11319 33.0577 2.83405 30.0512 2.83405ZM30.0512 10.2067C28.7022 10.2067 27.6085 9.18409 27.6085 7.92346C27.6085 6.66251 28.7025 5.6402 30.0512 5.6402C31.4002 5.6402 32.4936 6.66251 32.4936 7.92346C32.4936 9.18409 31.4002 10.2067 30.0512 10.2067Z" fill="#FFB600"/>
<path d="M38.1043 46.4458V46.4471H21.8308V42.2608C21.8308 42.2608 22.0183 37.211 29.1108 37.211C36.4302 37.211 38.1043 30.6502 38.1043 28.5606C38.1043 26.471 38.1043 23.6842 38.1043 23.6842C38.1043 23.6842 37.9843 18.7858 32.6791 16.2148C27.0488 13.4873 21.8308 17.1487 21.8308 17.4149C21.8308 15.2432 21.8308 10.0521 21.8308 8.82376C21.8308 5.51469 18.7683 0 11.9572 0C5.29114 0 2.16696 5.43705 2.16696 9.05573C2.16696 11.2617 2.16696 28.6966 2.16696 28.6966C2.16696 28.6966 2.22975 37.2483 11.0337 37.2483C16.761 37.2483 18.1014 40.2678 18.1014 42.3448C18.1014 43.4993 18.1014 46.4471 18.1014 46.4471H2.16696V46.4458C1.14987 46.506 0.427734 47.259 0.427734 48.1818C0.427734 49.1046 1.14987 49.8576 2.16696 49.9175H38.1043C38.7823 49.8579 39.8435 49.1049 39.8435 48.1818C39.8435 47.2593 38.7823 46.5063 38.1043 46.4458ZM5.89631 8.57341C5.89631 8.57341 5.85393 7.64363 6.71948 6.24135C7.802 4.4984 9.77313 3.32872 12.0524 3.32872C15.4882 3.32872 18.1014 6.45145 18.1014 9.72693C18.1014 9.5726 18.1014 9.88443 18.1014 9.72693V20.6666C18.1014 20.6666 16.5815 18.8093 11.6259 18.8093C5.78816 18.789 5.89631 13.7005 5.89631 13.7005V8.57341ZM18.1014 28.7929V35.759C18.1014 35.759 16.5815 33.9013 11.6259 33.9013C5.78816 33.8814 5.89631 28.7929 5.89631 28.7929V20.7715C5.89631 20.7715 7.58176 22.3494 11.8751 22.3494C18.9239 22.3494 18.1014 28.7929 18.1014 28.7929ZM21.8308 24.8193C21.8308 21.5438 24.5742 18.4214 28.0788 18.4214C30.4039 18.4214 32.4116 19.5911 33.5165 21.334C34.3993 22.7366 34.3749 23.6664 34.3749 23.6664V28.7929C34.3749 28.7929 34.4373 33.8814 28.4829 33.9013C23.3621 33.9013 21.8308 35.759 21.8308 35.759V28.7929V24.8193C21.8308 24.9768 21.8308 24.6653 21.8308 24.8193Z" fill="#FFB600"/>
</svg>
