<svg width="41" height="50" viewBox="0 0 41 50" fill="none" xmlns="http://www.w3.org/2000/svg">
<path d="M30.5512 2.83406C27.5443 2.83406 25.1067 5.11289 25.1067 7.92348C25.1067 10.7341 27.544 13.0126 30.5512 13.0126C33.5577 13.0126 35.996 10.7344 35.996 7.92348C35.996 5.11321 33.5577 2.83406 30.5512 2.83406ZM30.5512 10.2067C29.2022 10.2067 28.1085 9.1841 28.1085 7.92348C28.1085 6.66253 29.2025 5.64021 30.5512 5.64021C31.9002 5.64021 32.9936 6.66253 32.9936 7.92348C32.9936 9.1841 31.9002 10.2067 30.5512 10.2067Z" fill="#202020"/>
<path d="M38.6043 46.4458V46.4471H22.3308V42.2608C22.3308 42.2608 22.5183 37.211 29.6108 37.211C36.9302 37.211 38.6043 30.6502 38.6043 28.5606C38.6043 26.471 38.6043 23.6842 38.6043 23.6842C38.6043 23.6842 38.4843 18.7858 33.1791 16.2148C27.5488 13.4873 22.3308 17.1487 22.3308 17.4149C22.3308 15.2432 22.3308 10.0521 22.3308 8.82376C22.3308 5.51469 19.2683 0 12.4572 0C5.79114 0 2.66696 5.43705 2.66696 9.05573C2.66696 11.2617 2.66696 28.6966 2.66696 28.6966C2.66696 28.6966 2.72975 37.2483 11.5337 37.2483C17.261 37.2483 18.6014 40.2678 18.6014 42.3448C18.6014 43.4993 18.6014 46.4471 18.6014 46.4471H2.66696V46.4458C1.64987 46.506 0.927734 47.259 0.927734 48.1818C0.927734 49.1046 1.64987 49.8576 2.66696 49.9175H38.6043C39.2823 49.8579 40.3435 49.1049 40.3435 48.1818C40.3435 47.2593 39.2823 46.5063 38.6043 46.4458ZM6.39631 8.57341C6.39631 8.57341 6.35393 7.64363 7.21948 6.24135C8.302 4.4984 10.2731 3.32872 12.5524 3.32872C15.9882 3.32872 18.6014 6.45145 18.6014 9.72693C18.6014 9.5726 18.6014 9.88443 18.6014 9.72693V20.6666C18.6014 20.6666 17.0815 18.8093 12.1259 18.8093C6.28816 18.789 6.39631 13.7005 6.39631 13.7005V8.57341ZM18.6014 28.7929V35.759C18.6014 35.759 17.0815 33.9013 12.1259 33.9013C6.28816 33.8814 6.39631 28.7929 6.39631 28.7929V20.7715C6.39631 20.7715 8.08176 22.3494 12.3751 22.3494C19.4239 22.3494 18.6014 28.7929 18.6014 28.7929ZM22.3308 24.8193C22.3308 21.5438 25.0742 18.4214 28.5788 18.4214C30.9039 18.4214 32.9116 19.5911 34.0165 21.334C34.8993 22.7366 34.8749 23.6664 34.8749 23.6664V28.7929C34.8749 28.7929 34.9373 33.8814 28.9829 33.9013C23.8621 33.9013 22.3308 35.759 22.3308 35.759V28.7929V24.8193C22.3308 24.9768 22.3308 24.6653 22.3308 24.8193Z" fill="#202020"/>
</svg>
