<svg width="40" height="51" viewBox="0 0 40 51" fill="none" xmlns="http://www.w3.org/2000/svg">
<path d="M29.6235 2.91058C26.6166 2.91058 24.179 5.18941 24.179 8C24.179 10.8106 26.6163 13.0891 29.6235 13.0891C32.63 13.0891 35.0683 10.8109 35.0683 8C35.0683 5.18973 32.63 2.91058 29.6235 2.91058ZM29.6235 10.2833C28.2745 10.2833 27.1807 9.26063 27.1807 8C27.1807 6.73905 28.2748 5.71673 29.6235 5.71673C30.9725 5.71673 32.0658 6.73905 32.0658 8C32.0658 9.26063 30.9725 10.2833 29.6235 10.2833Z" fill="#36553D"/>
<path d="M37.6765 46.5224V46.5236H21.403V42.3374C21.403 42.3374 21.5905 37.2876 28.6831 37.2876C36.0025 37.2876 37.6765 30.7268 37.6765 28.6371C37.6765 26.5475 37.6765 23.7607 37.6765 23.7607C37.6765 23.7607 37.5565 18.8624 32.2514 16.2914C26.6211 13.5638 21.403 17.2253 21.403 17.4915C21.403 15.3197 21.403 10.1286 21.403 8.9003C21.403 5.59123 18.3406 0.0765381 11.5294 0.0765381C4.8634 0.0765381 1.73923 5.51359 1.73923 9.13227C1.73923 11.3382 1.73923 28.7731 1.73923 28.7731C1.73923 28.7731 1.80202 37.3249 10.606 37.3249C16.3332 37.3249 17.6737 40.3444 17.6737 42.4213C17.6737 43.5758 17.6737 46.5236 17.6737 46.5236H1.73923V46.5224C0.722136 46.5826 0 47.3355 0 48.2583C0 49.1811 0.722136 49.9341 1.73923 49.994H37.6765C38.3546 49.9344 39.4158 49.1815 39.4158 48.2583C39.4158 47.3358 38.3546 46.5829 37.6765 46.5224ZM5.46857 8.64995C5.46857 8.64995 5.42619 7.72017 6.29174 6.31788C7.37427 4.57493 9.34539 3.40526 11.6247 3.40526C15.0604 3.40526 17.6737 6.52799 17.6737 9.80347C17.6737 9.64914 17.6737 9.96097 17.6737 9.80347V20.7432C17.6737 20.7432 16.1538 18.8858 11.1982 18.8858C5.36042 18.8655 5.46857 13.7771 5.46857 13.7771V8.64995ZM17.6737 28.8694V35.8355C17.6737 35.8355 16.1538 33.9779 11.1982 33.9779C5.36042 33.9579 5.46857 28.8694 5.46857 28.8694V20.8481C5.46857 20.8481 7.15403 22.4259 11.4474 22.4259C18.4962 22.4259 17.6737 28.8694 17.6737 28.8694ZM21.403 24.8958C21.403 21.6203 24.1465 18.4979 27.651 18.4979C29.9761 18.4979 31.9839 19.6676 33.0888 21.4106C33.9716 22.8132 33.9472 23.7429 33.9472 23.7429V28.8694C33.9472 28.8694 34.0096 33.9579 28.0552 33.9779C22.9344 33.9779 21.403 35.8355 21.403 35.8355V28.8694V24.8958C21.403 25.0533 21.403 24.7418 21.403 24.8958Z" fill="#36553D"/>
</svg>
