<svg width="80" height="100" viewBox="0 0 80 100" fill="none" xmlns="http://www.w3.org/2000/svg">
<path d="M59.2469 5.66809C53.2332 5.66809 48.3579 10.2257 48.3579 15.8469C48.3579 21.4681 53.2325 26.0251 59.2469 26.0251C65.26 26.0251 70.1366 21.4687 70.1366 15.8469C70.1366 10.2264 65.26 5.66809 59.2469 5.66809ZM59.2469 20.4134C56.5489 20.4134 54.3615 18.3682 54.3615 15.8469C54.3615 13.325 56.5496 11.2804 59.2469 11.2804C61.9449 11.2804 64.1317 13.325 64.1317 15.8469C64.1317 18.3682 61.9449 20.4134 59.2469 20.4134Z" fill="#FFB600"/>
<path d="M75.3531 92.8916V92.8942H42.8061V84.5217C42.8061 84.5217 43.181 74.4221 57.3661 74.4221C72.005 74.4221 75.3531 61.3005 75.3531 57.1212C75.3531 52.9419 75.3531 47.3683 75.3531 47.3683C75.3531 47.3683 75.113 37.5717 64.5027 32.4296C53.2421 26.9745 42.8061 34.2975 42.8061 34.8298C42.8061 30.4864 42.8061 20.1041 42.8061 17.6475C42.8061 11.0294 36.6811 0 23.0589 0C9.7268 0 3.47846 10.8741 3.47846 18.1115C3.47846 22.5233 3.47846 57.3931 3.47846 57.3931C3.47846 57.3931 3.60404 74.4967 21.212 74.4967C32.6665 74.4967 35.3474 80.5357 35.3474 84.6896C35.3474 86.9986 35.3474 92.8942 35.3474 92.8942H3.47846V92.8916C1.44427 93.012 0 94.518 0 96.3636C0 98.2092 1.44427 99.7151 3.47846 99.8349H75.3531C76.7092 99.7158 78.8315 98.2098 78.8315 96.3636C78.8315 94.5186 76.7092 93.0127 75.3531 92.8916ZM10.9371 17.1468C10.9371 17.1468 10.8524 15.2873 12.5835 12.4827C14.7485 8.99679 18.6908 6.65743 23.2494 6.65743C30.1209 6.65743 35.3474 12.9029 35.3474 19.4539C35.3474 19.1452 35.3474 19.7689 35.3474 19.4539V41.3333C35.3474 41.3333 32.3075 37.6186 22.3964 37.6186C10.7208 37.578 10.9371 27.4011 10.9371 27.4011V17.1468ZM35.3474 57.5858V71.518C35.3474 71.518 32.3075 67.8027 22.3964 67.8027C10.7208 67.7627 10.9371 57.5858 10.9371 57.5858V41.5431C10.9371 41.5431 14.3081 44.6987 22.8948 44.6987C36.9923 44.6987 35.3474 57.5858 35.3474 57.5858ZM42.8061 49.6386C42.8061 43.0876 48.293 36.8428 55.3021 36.8428C59.9522 36.8428 63.9677 39.1822 66.1775 42.6681C67.9432 45.4733 67.8944 47.3328 67.8944 47.3328V57.5858C67.8944 57.5858 68.0192 67.7627 56.1103 67.8027C45.8688 67.8027 42.8061 71.518 42.8061 71.518V57.5858V49.6386C42.8061 49.9536 42.8061 49.3306 42.8061 49.6386Z" fill="#FFB600"/>
</svg>
