<svg width="48" height="48" viewBox="0 0 48 48" fill="none" xmlns="http://www.w3.org/2000/svg">
<path fill-rule="evenodd" clip-rule="evenodd" d="M24 48C37.2548 48 48 37.2548 48 24C48 10.7452 37.2548 0 24 0C10.7452 0 0 10.7452 0 24C0 37.2548 10.7452 48 24 48ZM24.8839 33.6339L33.6339 24.8839C34.122 24.3957 34.122 23.6043 33.6339 23.1161C33.1457 22.628 32.3543 22.628 31.8661 23.1161L25.25 29.7322V15.25C25.25 14.5596 24.6904 14 24 14C23.3096 14 22.75 14.5596 22.75 15.25V29.7322L16.1339 23.1161C15.6457 22.628 14.8543 22.628 14.3661 23.1161C13.878 23.6043 13.878 24.3957 14.3661 24.8839L23.1161 33.6339C23.6043 34.122 24.3957 34.122 24.8839 33.6339Z" fill="white"/>
</svg>
