<svg width="40" height="36" viewBox="0 0 40 36" fill="none" xmlns="http://www.w3.org/2000/svg">
<path d="M34.1943 35.8C32.8503 35.8 31.679 35.3917 30.6804 34.575C30.1284 34.1236 29.6867 33.6188 29.3552 33.0606C28.8821 32.2639 28.1127 31.6 27.1861 31.6H18.05C15.8775 31.6 14.076 30.8837 12.6456 29.451C11.2152 28.0183 10.5 26.2142 10.5 24.0385C10.5 21.8628 11.2152 20.0625 12.6456 18.6375C14.076 17.2125 15.8775 16.5 18.05 16.5H21.9C23.2942 16.5 24.4344 16.058 25.3206 15.174C26.2069 14.29 26.65 13.1525 26.65 11.7615C26.65 10.3705 26.2069 9.22917 25.3206 8.3375C24.4344 7.44583 23.2942 7 21.9 7H12.5764C11.6655 7 10.9034 7.64051 10.4401 8.42482C10.1018 8.99731 9.65529 9.51403 9.1004 9.975C8.11737 10.7917 6.95335 11.2 5.60835 11.2C4.03612 11.2 2.70833 10.6564 1.625 9.5691C0.541667 8.48187 0 7.15687 0 5.5941C0 4.03137 0.54305 2.70833 1.62915 1.625C2.71528 0.541667 4.04078 0 5.60565 0C6.94928 0 8.11208 0.408333 9.09405 1.225C9.65209 1.6891 10.1018 2.20972 10.4432 2.78685C10.9046 3.56665 11.6642 4.2 12.5703 4.2H21.9C24.0725 4.2 25.874 4.91633 27.3044 6.349C28.7348 7.78167 29.45 9.58583 29.45 11.7615C29.45 13.9372 28.7348 15.7375 27.3044 17.1625C25.874 18.5875 24.0725 19.3 21.9 19.3H18.05C16.6558 19.3 15.5156 19.742 14.6294 20.626C13.7431 21.51 13.3 22.6475 13.3 24.0385C13.3 25.4295 13.7431 26.5708 14.6294 27.4625C15.5156 28.3542 16.6558 28.8 18.05 28.8H27.2236C28.1345 28.8 28.8966 28.1595 29.3599 27.3752C29.6982 26.8027 30.1447 26.286 30.6996 25.825C31.6826 25.0083 32.8467 24.6 34.1917 24.6C35.7639 24.6 37.0917 25.1436 38.175 26.2309C39.2583 27.3181 39.8 28.6431 39.8 30.2059C39.8 31.7686 39.257 33.0917 38.1709 34.175C37.0847 35.2583 35.7592 35.8 34.1943 35.8ZM5.6 8.325C6.3596 8.325 7.00367 8.06073 7.5322 7.5322C8.06073 7.00363 8.325 6.35957 8.325 5.6C8.325 4.84043 8.06073 4.19637 7.5322 3.6678C7.00367 3.13927 6.3596 2.875 5.6 2.875C4.8404 2.875 4.19633 3.13927 3.6678 3.6678C3.13927 4.19637 2.875 4.84043 2.875 5.6C2.875 6.35957 3.13927 7.00363 3.6678 7.5322C4.19633 8.06073 4.8404 8.325 5.6 8.325Z" fill="white"/>
</svg>
