<svg width="32" height="40" viewBox="0 0 32 40" fill="none" xmlns="http://www.w3.org/2000/svg">
<path d="M4.9125 39.475C4.11859 39.475 3.475 38.8314 3.475 38.0375V38.0375C3.475 37.2436 4.11859 36.6 4.9125 36.6H12.325C13.4296 36.6 14.325 35.7046 14.325 34.6V29.6C14.325 28.4954 13.4296 27.6 12.325 27.6H9.825C7.10833 27.6 4.79167 26.6417 2.875 24.725C0.958333 22.8083 0 20.4855 0 17.7565C0 15.7838 0.545833 13.9729 1.6375 12.3237C2.51315 11.0009 3.62739 9.96198 4.98023 9.20695C5.60748 8.85688 6.06376 8.25595 6.22681 7.55636C6.68788 5.5781 7.69488 3.88971 9.2478 2.4912C11.092 0.830399 13.2659 0 15.7695 0C18.2732 0 20.4488 0.830399 22.2963 2.4912C23.8484 3.88643 24.8561 5.57017 25.3195 7.54242C25.4856 8.24916 25.9509 8.85422 26.5872 9.20374C27.9453 9.94976 29.0579 10.988 29.925 12.3183C31.0083 13.9805 31.55 15.7991 31.55 17.774C31.55 20.4913 30.5917 22.8083 28.675 24.725C26.7583 26.6417 24.4417 27.6 21.725 27.6H19.225C18.1204 27.6 17.225 28.4954 17.225 29.6V34.6C17.225 35.7046 18.1204 36.6 19.225 36.6H27.1375C27.9314 36.6 28.575 37.2436 28.575 38.0375V38.0375C28.575 38.8314 27.9314 39.475 27.1375 39.475H4.9125ZM9.8238 24.725H21.7213C23.6515 24.725 25.293 24.0504 26.6458 22.7013C27.9986 21.3521 28.675 19.7139 28.675 17.7866C28.675 16.3664 28.2792 15.076 27.4875 13.9156C26.6958 12.7552 25.6583 11.9083 24.375 11.375L23.9195 11.184C23.2448 10.901 22.7784 10.2722 22.7035 9.5444L22.65 9.025C22.4167 7.25833 21.647 5.79167 20.3409 4.625C19.0348 3.45833 17.5128 2.875 15.775 2.875C14.0372 2.875 12.5153 3.45833 11.2092 4.625C9.90305 5.79167 9.13333 7.25833 8.9 9.025L8.84465 9.56267C8.77073 10.2808 8.31556 10.9033 7.6537 11.1915L7.175 11.4C5.90833 11.9437 4.875 12.7959 4.075 13.9566C3.275 15.1173 2.875 16.396 2.875 17.7927C2.875 19.7048 3.55058 21.3383 4.90175 22.693C6.25288 24.0477 7.89357 24.725 9.8238 24.725Z" fill="white"/>
</svg>
