<svg width="26" height="25" viewBox="0 0 26 25" fill="none" xmlns="http://www.w3.org/2000/svg">
<path fill-rule="evenodd" clip-rule="evenodd" d="M6 0C2.96243 0 0.5 2.46243 0.5 5.5V19.5C0.5 22.5376 2.96243 25 6 25H20C23.0376 25 25.5 22.5376 25.5 19.5V5.5C25.5 2.46243 23.0376 0 20 0H6ZM3.75 8.5C3.75 5.60051 6.10051 3.25 9 3.25H17C19.8995 3.25 22.25 5.60051 22.25 8.5V16.5C22.25 19.3995 19.8995 21.75 17 21.75H9C6.10051 21.75 3.75 19.3995 3.75 16.5V8.5ZM5.25 8.75C5.25 6.54086 7.04086 4.75 9.25 4.75H16.75C18.9591 4.75 20.75 6.54086 20.75 8.75V16.25C20.75 18.4591 18.9591 20.25 16.75 20.25H9.25C7.04086 20.25 5.25 18.4591 5.25 16.25V8.75ZM13 7.75C10.3766 7.75 8.25 9.87665 8.25 12.5C8.25 15.1234 10.3766 17.25 13 17.25C15.6234 17.25 17.75 15.1234 17.75 12.5C17.75 9.87665 15.6234 7.75 13 7.75ZM13 9.5C11.3431 9.5 10 10.8431 10 12.5C10 14.1569 11.3431 15.5 13 15.5C14.6569 15.5 16 14.1569 16 12.5C16 10.8431 14.6569 9.5 13 9.5ZM18 6.5C17.4477 6.5 17 6.94772 17 7.5C17 8.05229 17.4477 8.5 18 8.5C18.5523 8.5 19 8.05229 19 7.5C19 6.94772 18.5523 6.5 18 6.5Z" fill="#2C2C2C"/>
</svg>
