<svg width="30" height="30" viewBox="0 0 30 30" fill="none" xmlns="http://www.w3.org/2000/svg">
<path fill-rule="evenodd" clip-rule="evenodd" d="M6.73639 0.599609C3.23711 0.599609 0.400391 3.43633 0.400391 6.93561V23.0636C0.400391 26.5629 3.23711 29.3996 6.73639 29.3996H22.8644C26.3637 29.3996 29.2004 26.5629 29.2004 23.0636V6.93561C29.2004 3.43633 26.3637 0.599609 22.8644 0.599609H6.73639ZM8.75239 11.8316V20.7596H11.6324V11.8316H8.75239ZM11.6324 8.95161C11.6324 9.7469 10.9877 10.3916 10.1924 10.3916C9.3971 10.3916 8.75239 9.7469 8.75239 8.95161C8.75239 8.15632 9.3971 7.51161 10.1924 7.51161C10.9877 7.51161 11.6324 8.15632 11.6324 8.95161ZM17.9684 13.8476C17.1151 13.8476 16.5284 14.4979 16.2404 14.9957V20.7598H13.3604V11.8318H16.2404V12.9185C16.5252 12.2676 17.2854 11.5436 18.9764 11.5436C21.0982 11.5436 22.1209 13.2534 22.2694 14.4236H22.2884V14.7079L22.2884 14.7116L22.2884 20.7596H19.4084V14.8562C19.1917 14.3846 18.7438 13.8476 17.9684 13.8476Z" fill="white"/>
</svg>
