<svg width="26" height="25" viewBox="0 0 26 25" fill="none" xmlns="http://www.w3.org/2000/svg">
<path fill-rule="evenodd" clip-rule="evenodd" d="M6 0C2.96243 0 0.5 2.46243 0.5 5.5V19.5C0.5 22.5376 2.96243 25 6 25H20C23.0376 25 25.5 22.5376 25.5 19.5V5.5C25.5 2.46243 23.0376 0 20 0H6ZM9.75 14.738C10.42 15.6331 12.1291 17.8822 13.4702 18.5541C14.8112 19.2261 15.538 19.1709 16.6563 18.8923C17.7746 18.6138 18.1666 17.8315 18.1113 17.1048C18.056 16.378 16.8267 15.762 16.0444 15.37C15.2622 14.978 14.7031 14.9775 14.3116 15.2008C14.1811 15.2752 14.0817 15.3496 13.9988 15.4117C13.8331 15.5358 13.7336 15.6102 13.5846 15.5356C13.0036 15.1326 12.2258 13.8759 11.9095 13.298L11.8833 13.3155C11.4839 12.7125 10.8405 11.6216 10.75 10.988C10.75 10.8214 10.8611 10.7658 11.0463 10.6732C11.1389 10.6269 11.25 10.5714 11.375 10.488C11.75 10.238 12 9.73803 12 8.86303C12 7.98803 12 6.61303 11.375 6.23803C10.75 5.86303 9.875 5.86303 9.125 6.73803C8.375 7.61303 8 8.23804 8 9.73804C8 11.238 9.24998 13.738 9.75 14.738Z" fill="#2C2C2C"/>
</svg>
