<svg width="198" height="195" viewBox="0 0 198 195" fill="none" xmlns="http://www.w3.org/2000/svg">
<path fill-rule="evenodd" clip-rule="evenodd" d="M166.974 16.2C158.021 16.2 150.763 23.453 150.763 32.4C150.763 41.347 158.021 48.6 166.974 48.6C175.927 48.6 183.185 41.347 183.185 32.4C183.185 23.453 175.927 16.2 166.974 16.2ZM144.278 32.4C144.278 19.8742 154.44 9.72 166.974 9.72C179.508 9.72 189.669 19.8742 189.669 32.4C189.669 44.9258 179.508 55.08 166.974 55.08C154.44 55.08 144.278 44.9258 144.278 32.4ZM98.8875 35.64C100.678 35.64 102.13 37.0906 102.13 38.88V51.1798L109.721 44.5416C111.069 43.3633 113.117 43.4998 114.296 44.8464C115.476 46.1931 115.339 48.24 113.991 49.4183L102.13 59.7902V187.92H141.036V140.753L124.265 125.517C122.94 124.314 122.843 122.265 124.047 120.941C125.252 119.616 127.302 119.519 128.627 120.723L141.036 131.996V100.44C141.036 98.6506 142.488 97.2 144.278 97.2C146.069 97.2 147.521 98.6506 147.521 100.44V111.12L155.112 104.482C156.46 103.303 158.508 103.44 159.687 104.786C160.866 106.133 160.73 108.18 159.382 109.358L147.521 119.73V187.92H194.533C196.323 187.92 197.775 189.371 197.775 191.16C197.775 192.949 196.323 194.4 194.533 194.4H3.24221C1.45159 194.4 0 192.949 0 191.16C0 189.371 1.45159 187.92 3.24221 187.92H50.2543V119.602L39.8562 109.211C38.59 107.946 38.59 105.894 39.8562 104.629C41.1223 103.364 43.1752 103.364 44.4414 104.629L50.2543 110.438V100.44C50.2543 98.6506 51.7059 97.2 53.4965 97.2C55.2871 97.2 56.7387 98.6506 56.7387 100.44V128.715L61.0323 124.782C62.3523 123.572 64.4032 123.662 65.6132 124.981C66.8231 126.3 66.734 128.349 65.414 129.558L56.7387 137.505V187.92H95.6453V83.9621L80.3838 68.711C79.1177 67.4457 79.1177 65.3943 80.3838 64.129C81.65 62.8637 83.7029 62.8637 84.969 64.129L95.6453 74.7979V38.88C95.6453 37.0906 97.0969 35.64 98.8875 35.64Z" fill="#FAFAFA"/>
<path fill-rule="evenodd" clip-rule="evenodd" d="M170.907 104.187L171.572 99.4256C171.746 98.172 171.837 96.8884 171.837 95.58C171.837 80.3701 159.499 68.04 144.278 68.04C129.058 68.04 116.72 80.3701 116.72 95.58C116.72 97.9921 117.028 100.323 117.605 102.538L118.898 107.504L114.357 109.9C106.108 114.253 100.509 122.898 100.509 132.84C100.509 147.155 112.121 158.76 126.446 158.76C131.919 158.76 136.979 157.073 141.157 154.192L144.781 151.692L148.443 154.138C152.815 157.058 158.065 158.76 163.732 158.76C178.952 158.76 191.291 146.43 191.291 131.22C191.291 120.14 184.742 110.574 175.274 106.203L170.907 104.187ZM144.84 159.525C139.614 163.129 133.277 165.24 126.446 165.24C108.54 165.24 94.0242 150.734 94.0242 132.84C94.0242 120.401 101.038 109.6 111.33 104.17C110.615 101.426 110.235 98.5473 110.235 95.58C110.235 76.7913 125.477 61.56 144.278 61.56C163.08 61.56 178.322 76.7913 178.322 95.58C178.322 97.1886 178.21 98.7712 177.994 100.32C189.672 105.712 197.775 117.52 197.775 131.22C197.775 150.009 182.533 165.24 163.732 165.24C156.742 165.24 150.245 163.135 144.84 159.525Z" fill="#FAFAFA"/>
<path d="M100.558 113.332C100.002 113.377 99.4451 113.4 98.8875 113.4C91.2893 113.4 84.1829 109.17 78.7064 101.069C73.2077 92.9352 69.7076 81.2927 69.7076 68.04C69.7076 54.6847 73.2622 38.6187 79.1976 26.0489C82.1616 19.7717 85.5667 14.6938 89.123 11.2751C92.6665 7.86886 95.9431 6.48 98.8875 6.48C101.862 6.48 105.264 7.89561 108.987 11.3522C112.706 14.8051 116.304 19.9135 119.457 26.1909C125.282 37.7861 129.059 52.2973 129.617 64.868C131.636 63.9034 133.766 63.132 135.982 62.5775C134.079 34.6536 118.197 0 98.8875 0C78.2953 0 63.2232 39.4096 63.2232 68.04C63.2232 95.6743 77.2648 118.258 96.7586 119.796C97.7757 117.488 99.0546 115.321 100.558 113.332Z" fill="#FAFAFA"/>
<path d="M103.154 119.544C99.4189 143.593 78.6087 162 53.4965 162C25.7418 162 3.24221 139.516 3.24221 111.78C3.24221 84.0443 25.7418 61.56 53.4965 61.56C56.8862 61.56 60.1974 61.8954 63.3989 62.5347C63.2825 64.404 63.2232 66.2432 63.2232 68.04C63.2232 68.4027 63.2256 68.7646 63.2304 69.1255C60.1 68.4151 56.8421 68.04 53.4965 68.04C29.3231 68.04 9.72664 87.6231 9.72664 111.78C9.72664 135.937 29.3231 155.52 53.4965 155.52C74.9364 155.52 92.7758 140.116 96.5363 119.778C97.3115 119.846 98.0954 119.88 98.8875 119.88C100.33 119.88 101.754 119.766 103.154 119.544Z" fill="#FAFAFA"/>
</svg>
