<svg width="26" height="25" viewBox="0 0 26 25" fill="none" xmlns="http://www.w3.org/2000/svg">
<path d="M12.875 13.75C12.9575 13.8032 13.0493 13.8032 13.1318 13.75L20.2627 9.25V17.2021C20.2627 17.3401 20.1507 17.4521 20.0127 17.4521H5.73734V9.25L12.875 13.75Z" fill="#2C2C2C"/>
<path d="M13.1318 12.401C13.051 12.451 12.949 12.4509 12.8684 12.4008L6.625 8.375C6.41125 8.24232 6.48092 8.04794 6.73249 8.04794H19.2868C19.5385 8.04794 19.7141 8.24252 19.5 8.375L13.1318 12.401Z" fill="#2C2C2C"/>
<path fill-rule="evenodd" clip-rule="evenodd" d="M6 0C2.96243 0 0.5 2.46243 0.5 5.5V19.5C0.5 22.5376 2.96243 25 6 25H20C23.0376 25 25.5 22.5376 25.5 19.5V5.5C25.5 2.46243 23.0376 0 20 0H6ZM4.87154 18.1853C5.11923 18.3951 5.40783 18.5 5.73734 18.5H20.2627C20.5922 18.5 20.8808 18.3951 21.1284 18.1853C21.3761 17.9756 21.5 17.7311 21.5 17.4521V8.04794C21.5 7.76886 21.3761 7.52444 21.1284 7.31467C20.8808 7.10489 20.5922 7 20.2627 7H5.73734C5.40783 7 5.11923 7.10489 4.87154 7.31467C4.62385 7.52444 4.5 7.76886 4.5 8.04794V17.4521C4.5 17.7311 4.62385 17.9756 4.87154 18.1853Z" fill="#2C2C2C"/>
</svg>
