<svg width="26" height="25" viewBox="0 0 26 25" fill="none" xmlns="http://www.w3.org/2000/svg">
<path fill-rule="evenodd" clip-rule="evenodd" d="M6 0C2.96243 0 0.5 2.46243 0.5 5.5V19.5C0.5 22.5376 2.96243 25 6 25H20C23.0376 25 25.5 22.5376 25.5 19.5V5.5C25.5 2.46243 23.0376 0 20 0H6ZM7.75 9.75V17.5H10.25V9.75H7.75ZM10.25 7.25C10.25 7.94036 9.69035 8.5 9 8.5C8.30964 8.5 7.75 7.94036 7.75 7.25C7.75 6.55964 8.30964 6 9 6C9.69035 6 10.25 6.55964 10.25 7.25ZM15.75 11.5C15.0093 11.5 14.5 12.0645 14.25 12.4966V17.5002H11.75V9.75016H14.25V10.6935C14.4972 10.1285 15.1571 9.5 16.625 9.5C18.4669 9.5 19.3546 10.9842 19.4835 12H19.5V12.2468L19.5 12.25L19.5 17.5H17V12.3755C16.8119 11.9662 16.4231 11.5 15.75 11.5Z" fill="#2C2C2C"/>
</svg>
