<svg width="30" height="30" viewBox="0 0 30 30" fill="none" xmlns="http://www.w3.org/2000/svg">
<path d="M27.2017 24.5041V20.9041C27.2163 20.3156 27.0141 19.7423 26.6335 19.2931C26.253 18.844 25.7206 18.5504 25.1377 18.4681C23.9856 18.3162 22.8544 18.0344 21.7657 17.6281C21.3362 17.4667 20.8694 17.4317 20.4206 17.5274C19.9719 17.6231 19.5599 17.8455 19.2337 18.1681L17.7097 19.6921C14.7054 17.9839 12.2179 15.4964 10.5097 12.4921L12.0337 10.9681C12.3563 10.6419 12.5787 10.2299 12.6744 9.78117C12.7701 9.33241 12.7351 8.86563 12.5737 8.43612C12.1674 7.34739 11.8856 6.2162 11.7337 5.06412C11.6522 4.48745 11.3638 3.9601 10.9222 3.58036C10.4806 3.20061 9.91605 2.99438 9.33368 3.00012H5.73368C5.40049 3.00043 5.07101 3.07012 4.76623 3.20474C4.46144 3.33937 4.18803 3.53598 3.9634 3.78206C3.73876 4.02814 3.56783 4.3183 3.46148 4.63407C3.35513 4.94983 3.31569 5.28428 3.34568 5.61612C3.73957 9.32531 5.00165 12.8896 7.02968 16.0201C8.87208 18.9195 11.3303 21.3777 14.2297 23.2201C17.3461 25.2411 20.8931 26.5029 24.5857 26.9041C24.9185 26.9342 25.254 26.8944 25.5706 26.7874C25.8872 26.6803 26.1779 26.5083 26.4242 26.2824C26.6704 26.0564 26.8668 25.7815 27.0007 25.4753C27.1346 25.1691 27.203 24.8383 27.2017 24.5041Z" fill="white" stroke="white" stroke-width="2" stroke-linecap="round" stroke-linejoin="round"/>
</svg>
