<svg width="35" height="40" viewBox="0 0 35 40" fill="none" xmlns="http://www.w3.org/2000/svg">
<path d="M17.7625 39.5C16.9686 39.5 16.325 38.8564 16.325 38.0625V32.25C16.325 31.1454 15.4296 30.25 14.325 30.25H6.27843C5.74799 30.25 5.23929 30.0393 4.86421 29.6642L1.41747 26.2175C0.635151 25.4352 0.636608 24.1663 1.42072 23.3858L4.86478 19.9575C5.23958 19.5845 5.7469 19.375 6.27574 19.375H14.325C15.4296 19.375 16.325 18.4796 16.325 17.375V16.875C16.325 15.7704 15.4296 14.875 14.325 14.875H4C2.89543 14.875 2 13.9796 2 12.875V6C2 4.89543 2.89543 4 4 4H14.325C15.4296 4 16.325 3.10457 16.325 2V1.4375C16.325 0.643591 16.9686 0 17.7625 0V0C18.5564 0 19.2 0.643591 19.2 1.4375V2C19.2 3.10457 20.0954 4 21.2 4H29.2466C29.777 4 30.2857 4.21071 30.6608 4.58579L34.089 8.01403C34.8688 8.79381 34.8703 10.0576 34.0923 10.8392L30.6613 14.286C30.286 14.663 29.7759 14.875 29.2439 14.875H21.2C20.0954 14.875 19.2 15.7704 19.2 16.875V17.375C19.2 18.4796 20.0954 19.375 21.2 19.375H31.5C32.6046 19.375 33.5 20.2704 33.5 21.375V28.25C33.5 29.3546 32.6046 30.25 31.5 30.25H21.2C20.0954 30.25 19.2 31.1454 19.2 32.25V38.0625C19.2 38.8564 18.5564 39.5 17.7625 39.5V39.5ZM4.875 10C4.875 11.1046 5.77043 12 6.875 12H28.0409C28.5747 12 29.0863 11.7866 29.4619 11.4073L30.0245 10.8392C30.7991 10.057 30.796 8.79602 30.0177 8.01767L29.4608 7.46079C29.0857 7.08571 28.577 6.875 28.0466 6.875H6.875C5.77043 6.875 4.875 7.77043 4.875 8.875V10ZM6.06421 26.7892C6.43929 27.1643 6.94799 27.375 7.47843 27.375H28.625C29.7296 27.375 30.625 26.4796 30.625 25.375V24.25C30.625 23.1454 29.7296 22.25 28.625 22.25H7.47272C6.94567 22.25 6.43992 22.458 6.06542 22.8289L5.50305 23.3858C4.71549 24.1657 4.71238 25.4374 5.49613 26.2211L6.06421 26.7892Z" fill="white"/>
</svg>
