<svg width="0" height="0" class="hidden">
  <symbol fill="none" xmlns="http://www.w3.org/2000/svg" viewBox="0 0 30 30" id="chevron">
    <path fill-rule="evenodd" clip-rule="evenodd" d="M15 0.600098C7.04708 0.600098 0.599976 7.0472 0.599976 15.0001C0.599976 22.953 7.04708 29.4001 15 29.4001C22.9529 29.4001 29.4 22.953 29.4 15.0001C29.4 7.0472 22.9529 0.600098 15 0.600098ZM4.85512 11.465C5.22865 11.0914 5.83426 11.0914 6.20779 11.465L13.9817 19.2389C14.5441 19.8013 15.4559 19.8013 16.0182 19.2389L23.7922 11.465C24.1657 11.0914 24.7713 11.0914 25.1448 11.465C25.5184 11.8385 25.5184 12.4441 25.1448 12.8176L16.0182 21.9443C15.4559 22.5066 14.5441 22.5066 13.9817 21.9443L4.85512 12.8176C4.48159 12.4441 4.48159 11.8385 4.85512 11.465Z" fill="#D9D9D9"></path>
  </symbol>
</svg>