<svg width="0" height="0" class="hidden">
  <symbol fill="none" xmlns="http://www.w3.org/2000/svg" viewBox="0 0 198 195" id="icon_misja">
    <path fill-rule="evenodd" clip-rule="evenodd" d="M166.974 16.2C158.021 16.2 150.763 23.453 150.763 32.4C150.763 41.347 158.021 48.6 166.974 48.6C175.927 48.6 183.185 41.347 183.185 32.4C183.185 23.453 175.927 16.2 166.974 16.2ZM144.278 32.4C144.278 19.8742 154.44 9.72 166.974 9.72C179.508 9.72 189.669 19.8742 189.669 32.4C189.669 44.9258 179.508 55.08 166.974 55.08C154.44 55.08 144.278 44.9258 144.278 32.4ZM98.8875 35.64C100.678 35.64 102.13 37.0906 102.13 38.88V51.1798L109.721 44.5416C111.069 43.3633 113.117 43.4998 114.296 44.8464C115.476 46.1931 115.339 48.24 113.991 49.4183L102.13 59.7902V187.92H141.036V140.753L124.265 125.517C122.94 124.314 122.843 122.265 124.047 120.941C125.252 119.616 127.302 119.519 128.627 120.723L141.036 131.996V100.44C141.036 98.6506 142.488 97.2 144.278 97.2C146.069 97.2 147.521 98.6506 147.521 100.44V111.12L155.112 104.482C156.46 103.303 158.508 103.44 159.687 104.786C160.866 106.133 160.73 108.18 159.382 109.358L147.521 119.73V187.92H194.533C196.323 187.92 197.775 189.371 197.775 191.16C197.775 192.949 196.323 194.4 194.533 194.4H3.24221C1.45159 194.4 0 192.949 0 191.16C0 189.371 1.45159 187.92 3.24221 187.92H50.2543V119.602L39.8562 109.211C38.59 107.946 38.59 105.894 39.8562 104.629C41.1223 103.364 43.1752 103.364 44.4414 104.629L50.2543 110.438V100.44C50.2543 98.6506 51.7059 97.2 53.4965 97.2C55.2871 97.2 56.7387 98.6506 56.7387 100.44V128.715L61.0323 124.782C62.3523 123.572 64.4032 123.662 65.6132 124.981C66.8231 126.3 66.734 128.349 65.414 129.558L56.7387 137.505V187.92H95.6453V83.9621L80.3838 68.711C79.1177 67.4457 79.1177 65.3943 80.3838 64.129C81.65 62.8637 83.7029 62.8637 84.969 64.129L95.6453 74.7979V38.88C95.6453 37.0906 97.0969 35.64 98.8875 35.64Z" fill="#FAFAFA"></path>
    <path fill-rule="evenodd" clip-rule="evenodd" d="M170.907 104.187L171.572 99.4256C171.746 98.172 171.837 96.8884 171.837 95.58C171.837 80.3701 159.499 68.04 144.278 68.04C129.058 68.04 116.72 80.3701 116.72 95.58C116.72 97.9921 117.028 100.323 117.605 102.538L118.898 107.504L114.357 109.9C106.108 114.253 100.509 122.898 100.509 132.84C100.509 147.155 112.121 158.76 126.446 158.76C131.919 158.76 136.979 157.073 141.157 154.192L144.781 151.692L148.443 154.138C152.815 157.058 158.065 158.76 163.732 158.76C178.952 158.76 191.291 146.43 191.291 131.22C191.291 120.14 184.742 110.574 175.274 106.203L170.907 104.187ZM144.84 159.525C139.614 163.129 133.277 165.24 126.446 165.24C108.54 165.24 94.0242 150.734 94.0242 132.84C94.0242 120.401 101.038 109.6 111.33 104.17C110.615 101.426 110.235 98.5473 110.235 95.58C110.235 76.7913 125.477 61.56 144.278 61.56C163.08 61.56 178.322 76.7913 178.322 95.58C178.322 97.1886 178.21 98.7712 177.994 100.32C189.672 105.712 197.775 117.52 197.775 131.22C197.775 150.009 182.533 165.24 163.732 165.24C156.742 165.24 150.245 163.135 144.84 159.525Z" fill="#FAFAFA"></path>
    <path d="M100.558 113.332C100.002 113.377 99.4451 113.4 98.8875 113.4C91.2893 113.4 84.1829 109.17 78.7064 101.069C73.2077 92.9352 69.7076 81.2927 69.7076 68.04C69.7076 54.6847 73.2622 38.6187 79.1976 26.0489C82.1616 19.7717 85.5667 14.6938 89.123 11.2751C92.6665 7.86886 95.9431 6.48 98.8875 6.48C101.862 6.48 105.264 7.89561 108.987 11.3522C112.706 14.8051 116.304 19.9135 119.457 26.1909C125.282 37.7861 129.059 52.2973 129.617 64.868C131.636 63.9034 133.766 63.132 135.982 62.5775C134.079 34.6536 118.197 0 98.8875 0C78.2953 0 63.2232 39.4096 63.2232 68.04C63.2232 95.6743 77.2648 118.258 96.7586 119.796C97.7757 117.488 99.0546 115.321 100.558 113.332Z" fill="#FAFAFA"></path>
    <path d="M103.154 119.544C99.4189 143.593 78.6087 162 53.4965 162C25.7418 162 3.24221 139.516 3.24221 111.78C3.24221 84.0443 25.7418 61.56 53.4965 61.56C56.8862 61.56 60.1974 61.8954 63.3989 62.5347C63.2825 64.404 63.2232 66.2432 63.2232 68.04C63.2232 68.4027 63.2256 68.7646 63.2304 69.1255C60.1 68.4151 56.8421 68.04 53.4965 68.04C29.3231 68.04 9.72664 87.6231 9.72664 111.78C9.72664 135.937 29.3231 155.52 53.4965 155.52C74.9364 155.52 92.7758 140.116 96.5363 119.778C97.3115 119.846 98.0954 119.88 98.8875 119.88C100.33 119.88 101.754 119.766 103.154 119.544Z" fill="#FAFAFA"></path>
  </symbol>
  <symbol fill="none" xmlns="http://www.w3.org/2000/svg" viewBox="0 0 26 25" id="icon_facebook">
    <path fill-rule="evenodd" clip-rule="evenodd" d="M6 0C2.96243 0 0.5 2.46243 0.5 5.5V19.5C0.5 22.5376 2.96243 25 6 25H20C23.0376 25 25.5 22.5376 25.5 19.5V5.5C25.5 2.46243 23.0376 0 20 0H6ZM16.7503 5.5V8H14.2503C14.1669 8 14 8.05 14 8.25L14.0002 11.0001H16.5V13.5001H14.0002V19.5H11.5002V13.5001H8.99999V11.0001H11.5002V8.25003C11.5002 7.33336 12.05 5.5 14.25 5.5H16.7503Z" fill="#2C2C2C"></path>
  </symbol>
  <symbol fill="none" xmlns="http://www.w3.org/2000/svg" viewBox="0 0 26 25" id="icon_instagram">
    <path fill-rule="evenodd" clip-rule="evenodd" d="M6 0C2.96243 0 0.5 2.46243 0.5 5.5V19.5C0.5 22.5376 2.96243 25 6 25H20C23.0376 25 25.5 22.5376 25.5 19.5V5.5C25.5 2.46243 23.0376 0 20 0H6ZM3.75 8.5C3.75 5.60051 6.10051 3.25 9 3.25H17C19.8995 3.25 22.25 5.60051 22.25 8.5V16.5C22.25 19.3995 19.8995 21.75 17 21.75H9C6.10051 21.75 3.75 19.3995 3.75 16.5V8.5ZM5.25 8.75C5.25 6.54086 7.04086 4.75 9.25 4.75H16.75C18.9591 4.75 20.75 6.54086 20.75 8.75V16.25C20.75 18.4591 18.9591 20.25 16.75 20.25H9.25C7.04086 20.25 5.25 18.4591 5.25 16.25V8.75ZM13 7.75C10.3766 7.75 8.25 9.87665 8.25 12.5C8.25 15.1234 10.3766 17.25 13 17.25C15.6234 17.25 17.75 15.1234 17.75 12.5C17.75 9.87665 15.6234 7.75 13 7.75ZM13 9.5C11.3431 9.5 10 10.8431 10 12.5C10 14.1569 11.3431 15.5 13 15.5C14.6569 15.5 16 14.1569 16 12.5C16 10.8431 14.6569 9.5 13 9.5ZM18 6.5C17.4477 6.5 17 6.94772 17 7.5C17 8.05229 17.4477 8.5 18 8.5C18.5523 8.5 19 8.05229 19 7.5C19 6.94772 18.5523 6.5 18 6.5Z" fill="#2C2C2C"></path>
  </symbol>
  <symbol fill="none" xmlns="http://www.w3.org/2000/svg" viewBox="0 0 26 25" id="icon_inkedin">
    <path fill-rule="evenodd" clip-rule="evenodd" d="M6 0C2.96243 0 0.5 2.46243 0.5 5.5V19.5C0.5 22.5376 2.96243 25 6 25H20C23.0376 25 25.5 22.5376 25.5 19.5V5.5C25.5 2.46243 23.0376 0 20 0H6ZM7.75 9.75V17.5H10.25V9.75H7.75ZM10.25 7.25C10.25 7.94036 9.69035 8.5 9 8.5C8.30964 8.5 7.75 7.94036 7.75 7.25C7.75 6.55964 8.30964 6 9 6C9.69035 6 10.25 6.55964 10.25 7.25ZM15.75 11.5C15.0093 11.5 14.5 12.0645 14.25 12.4966V17.5002H11.75V9.75016H14.25V10.6935C14.4972 10.1285 15.1571 9.5 16.625 9.5C18.4669 9.5 19.3546 10.9842 19.4835 12H19.5V12.2468L19.5 12.25L19.5 17.5H17V12.3755C16.8119 11.9662 16.4231 11.5 15.75 11.5Z" fill="#2C2C2C"></path>
  </symbol>
  <symbol fill="none" xmlns="http://www.w3.org/2000/svg" viewBox="0 0 35 40" id="icon_signpost">
    <path d="M17.7625 39.5C16.9686 39.5 16.325 38.8564 16.325 38.0625V32.25C16.325 31.1454 15.4296 30.25 14.325 30.25H6.27843C5.74799 30.25 5.23929 30.0393 4.86421 29.6642L1.41747 26.2175C0.635151 25.4352 0.636608 24.1663 1.42072 23.3858L4.86478 19.9575C5.23958 19.5845 5.7469 19.375 6.27574 19.375H14.325C15.4296 19.375 16.325 18.4796 16.325 17.375V16.875C16.325 15.7704 15.4296 14.875 14.325 14.875H4C2.89543 14.875 2 13.9796 2 12.875V6C2 4.89543 2.89543 4 4 4H14.325C15.4296 4 16.325 3.10457 16.325 2V1.4375C16.325 0.643591 16.9686 0 17.7625 0V0C18.5564 0 19.2 0.643591 19.2 1.4375V2C19.2 3.10457 20.0954 4 21.2 4H29.2466C29.777 4 30.2857 4.21071 30.6608 4.58579L34.089 8.01403C34.8688 8.79381 34.8703 10.0576 34.0923 10.8392L30.6613 14.286C30.286 14.663 29.7759 14.875 29.2439 14.875H21.2C20.0954 14.875 19.2 15.7704 19.2 16.875V17.375C19.2 18.4796 20.0954 19.375 21.2 19.375H31.5C32.6046 19.375 33.5 20.2704 33.5 21.375V28.25C33.5 29.3546 32.6046 30.25 31.5 30.25H21.2C20.0954 30.25 19.2 31.1454 19.2 32.25V38.0625C19.2 38.8564 18.5564 39.5 17.7625 39.5V39.5ZM4.875 10C4.875 11.1046 5.77043 12 6.875 12H28.0409C28.5747 12 29.0863 11.7866 29.4619 11.4073L30.0245 10.8392C30.7991 10.057 30.796 8.79602 30.0177 8.01767L29.4608 7.46079C29.0857 7.08571 28.577 6.875 28.0466 6.875H6.875C5.77043 6.875 4.875 7.77043 4.875 8.875V10ZM6.06421 26.7892C6.43929 27.1643 6.94799 27.375 7.47843 27.375H28.625C29.7296 27.375 30.625 26.4796 30.625 25.375V24.25C30.625 23.1454 29.7296 22.25 28.625 22.25H7.47272C6.94567 22.25 6.43992 22.458 6.06542 22.8289L5.50305 23.3858C4.71549 24.1657 4.71238 25.4374 5.49613 26.2211L6.06421 26.7892Z" fill="white"></path>
  </symbol>
  <symbol fill="none" xmlns="http://www.w3.org/2000/svg" viewBox="0 0 26 25" id="icon_email">
    <path d="M12.875 13.75C12.9575 13.8032 13.0493 13.8032 13.1318 13.75L20.2627 9.25V17.2021C20.2627 17.3401 20.1507 17.4521 20.0127 17.4521H5.73734V9.25L12.875 13.75Z" fill="#2C2C2C"></path>
    <path d="M13.1318 12.401C13.051 12.451 12.949 12.4509 12.8684 12.4008L6.625 8.375C6.41125 8.24232 6.48092 8.04794 6.73249 8.04794H19.2868C19.5385 8.04794 19.7141 8.24252 19.5 8.375L13.1318 12.401Z" fill="#2C2C2C"></path>
    <path fill-rule="evenodd" clip-rule="evenodd" d="M6 0C2.96243 0 0.5 2.46243 0.5 5.5V19.5C0.5 22.5376 2.96243 25 6 25H20C23.0376 25 25.5 22.5376 25.5 19.5V5.5C25.5 2.46243 23.0376 0 20 0H6ZM4.87154 18.1853C5.11923 18.3951 5.40783 18.5 5.73734 18.5H20.2627C20.5922 18.5 20.8808 18.3951 21.1284 18.1853C21.3761 17.9756 21.5 17.7311 21.5 17.4521V8.04794C21.5 7.76886 21.3761 7.52444 21.1284 7.31467C20.8808 7.10489 20.5922 7 20.2627 7H5.73734C5.40783 7 5.11923 7.10489 4.87154 7.31467C4.62385 7.52444 4.5 7.76886 4.5 8.04794V17.4521C4.5 17.7311 4.62385 17.9756 4.87154 18.1853Z" fill="#2C2C2C"></path>
  </symbol>
</svg>