<svg width="0" height="0" class="hidden">
  <symbol fill="none" xmlns="http://www.w3.org/2000/svg" viewBox="0 0 26 25" id="icon_phone">
    <path fill-rule="evenodd" clip-rule="evenodd" d="M6 0C2.96243 0 0.5 2.46243 0.5 5.5V19.5C0.5 22.5376 2.96243 25 6 25H20C23.0376 25 25.5 22.5376 25.5 19.5V5.5C25.5 2.46243 23.0376 0 20 0H6ZM9.75 14.738C10.42 15.6331 12.1291 17.8822 13.4702 18.5541C14.8112 19.2261 15.538 19.1709 16.6563 18.8923C17.7746 18.6138 18.1666 17.8315 18.1113 17.1048C18.056 16.378 16.8267 15.762 16.0444 15.37C15.2622 14.978 14.7031 14.9775 14.3116 15.2008C14.1811 15.2752 14.0817 15.3496 13.9988 15.4117C13.8331 15.5358 13.7336 15.6102 13.5846 15.5356C13.0036 15.1326 12.2258 13.8759 11.9095 13.298L11.8833 13.3155C11.4839 12.7125 10.8405 11.6216 10.75 10.988C10.75 10.8214 10.8611 10.7658 11.0463 10.6732C11.1389 10.6269 11.25 10.5714 11.375 10.488C11.75 10.238 12 9.73803 12 8.86303C12 7.98803 12 6.61303 11.375 6.23803C10.75 5.86303 9.875 5.86303 9.125 6.73803C8.375 7.61303 8 8.23804 8 9.73804C8 11.238 9.24998 13.738 9.75 14.738Z" fill="#2C2C2C"></path>
  </symbol>
  <symbol fill="none" xmlns="http://www.w3.org/2000/svg" viewBox="0 0 26 25" id="icon_email">
    <path d="M12.875 13.75C12.9575 13.8032 13.0493 13.8032 13.1318 13.75L20.2627 9.25V17.2021C20.2627 17.3401 20.1507 17.4521 20.0127 17.4521H5.73734V9.25L12.875 13.75Z" fill="#2C2C2C"></path>
    <path d="M13.1318 12.401C13.051 12.451 12.949 12.4509 12.8684 12.4008L6.625 8.375C6.41125 8.24232 6.48092 8.04794 6.73249 8.04794H19.2868C19.5385 8.04794 19.7141 8.24252 19.5 8.375L13.1318 12.401Z" fill="#2C2C2C"></path>
    <path fill-rule="evenodd" clip-rule="evenodd" d="M6 0C2.96243 0 0.5 2.46243 0.5 5.5V19.5C0.5 22.5376 2.96243 25 6 25H20C23.0376 25 25.5 22.5376 25.5 19.5V5.5C25.5 2.46243 23.0376 0 20 0H6ZM4.87154 18.1853C5.11923 18.3951 5.40783 18.5 5.73734 18.5H20.2627C20.5922 18.5 20.8808 18.3951 21.1284 18.1853C21.3761 17.9756 21.5 17.7311 21.5 17.4521V8.04794C21.5 7.76886 21.3761 7.52444 21.1284 7.31467C20.8808 7.10489 20.5922 7 20.2627 7H5.73734C5.40783 7 5.11923 7.10489 4.87154 7.31467C4.62385 7.52444 4.5 7.76886 4.5 8.04794V17.4521C4.5 17.7311 4.62385 17.9756 4.87154 18.1853Z" fill="#2C2C2C"></path>
  </symbol>
  <symbol fill="none" xmlns="http://www.w3.org/2000/svg" viewBox="0 0 26 25" id="icon_facebook">
    <path fill-rule="evenodd" clip-rule="evenodd" d="M6 0C2.96243 0 0.5 2.46243 0.5 5.5V19.5C0.5 22.5376 2.96243 25 6 25H20C23.0376 25 25.5 22.5376 25.5 19.5V5.5C25.5 2.46243 23.0376 0 20 0H6ZM16.7503 5.5V8H14.2503C14.1669 8 14 8.05 14 8.25L14.0002 11.0001H16.5V13.5001H14.0002V19.5H11.5002V13.5001H8.99999V11.0001H11.5002V8.25003C11.5002 7.33336 12.05 5.5 14.25 5.5H16.7503Z" fill="#2C2C2C"></path>
  </symbol>
  <symbol fill="none" xmlns="http://www.w3.org/2000/svg" viewBox="0 0 26 25" id="icon_inkedin">
    <path fill-rule="evenodd" clip-rule="evenodd" d="M6 0C2.96243 0 0.5 2.46243 0.5 5.5V19.5C0.5 22.5376 2.96243 25 6 25H20C23.0376 25 25.5 22.5376 25.5 19.5V5.5C25.5 2.46243 23.0376 0 20 0H6ZM7.75 9.75V17.5H10.25V9.75H7.75ZM10.25 7.25C10.25 7.94036 9.69035 8.5 9 8.5C8.30964 8.5 7.75 7.94036 7.75 7.25C7.75 6.55964 8.30964 6 9 6C9.69035 6 10.25 6.55964 10.25 7.25ZM15.75 11.5C15.0093 11.5 14.5 12.0645 14.25 12.4966V17.5002H11.75V9.75016H14.25V10.6935C14.4972 10.1285 15.1571 9.5 16.625 9.5C18.4669 9.5 19.3546 10.9842 19.4835 12H19.5V12.2468L19.5 12.25L19.5 17.5H17V12.3755C16.8119 11.9662 16.4231 11.5 15.75 11.5Z" fill="#2C2C2C"></path>
  </symbol>
  <symbol fill="none" xmlns="http://www.w3.org/2000/svg" viewBox="0 0 26 25" id="icon_instagram">
    <path fill-rule="evenodd" clip-rule="evenodd" d="M6 0C2.96243 0 0.5 2.46243 0.5 5.5V19.5C0.5 22.5376 2.96243 25 6 25H20C23.0376 25 25.5 22.5376 25.5 19.5V5.5C25.5 2.46243 23.0376 0 20 0H6ZM3.75 8.5C3.75 5.60051 6.10051 3.25 9 3.25H17C19.8995 3.25 22.25 5.60051 22.25 8.5V16.5C22.25 19.3995 19.8995 21.75 17 21.75H9C6.10051 21.75 3.75 19.3995 3.75 16.5V8.5ZM5.25 8.75C5.25 6.54086 7.04086 4.75 9.25 4.75H16.75C18.9591 4.75 20.75 6.54086 20.75 8.75V16.25C20.75 18.4591 18.9591 20.25 16.75 20.25H9.25C7.04086 20.25 5.25 18.4591 5.25 16.25V8.75ZM13 7.75C10.3766 7.75 8.25 9.87665 8.25 12.5C8.25 15.1234 10.3766 17.25 13 17.25C15.6234 17.25 17.75 15.1234 17.75 12.5C17.75 9.87665 15.6234 7.75 13 7.75ZM13 9.5C11.3431 9.5 10 10.8431 10 12.5C10 14.1569 11.3431 15.5 13 15.5C14.6569 15.5 16 14.1569 16 12.5C16 10.8431 14.6569 9.5 13 9.5ZM18 6.5C17.4477 6.5 17 6.94772 17 7.5C17 8.05229 17.4477 8.5 18 8.5C18.5523 8.5 19 8.05229 19 7.5C19 6.94772 18.5523 6.5 18 6.5Z" fill="#2C2C2C"></path>
  </symbol>
</svg>