<svg width="0" height="0" class="hidden">
  <symbol fill="none" xmlns="http://www.w3.org/2000/svg" viewBox="0 0 35 40" id="signpost">
    <path d="M17.7625 39.5C16.9686 39.5 16.325 38.8564 16.325 38.0625V32.25C16.325 31.1454 15.4296 30.25 14.325 30.25H6.27843C5.74799 30.25 5.23929 30.0393 4.86421 29.6642L1.41747 26.2175C0.635151 25.4352 0.636608 24.1663 1.42072 23.3858L4.86478 19.9575C5.23958 19.5845 5.7469 19.375 6.27574 19.375H14.325C15.4296 19.375 16.325 18.4796 16.325 17.375V16.875C16.325 15.7704 15.4296 14.875 14.325 14.875H4C2.89543 14.875 2 13.9796 2 12.875V6C2 4.89543 2.89543 4 4 4H14.325C15.4296 4 16.325 3.10457 16.325 2V1.4375C16.325 0.643591 16.9686 0 17.7625 0V0C18.5564 0 19.2 0.643591 19.2 1.4375V2C19.2 3.10457 20.0954 4 21.2 4H29.2466C29.777 4 30.2857 4.21071 30.6608 4.58579L34.089 8.01403C34.8688 8.79381 34.8703 10.0576 34.0923 10.8392L30.6613 14.286C30.286 14.663 29.7759 14.875 29.2439 14.875H21.2C20.0954 14.875 19.2 15.7704 19.2 16.875V17.375C19.2 18.4796 20.0954 19.375 21.2 19.375H31.5C32.6046 19.375 33.5 20.2704 33.5 21.375V28.25C33.5 29.3546 32.6046 30.25 31.5 30.25H21.2C20.0954 30.25 19.2 31.1454 19.2 32.25V38.0625C19.2 38.8564 18.5564 39.5 17.7625 39.5V39.5ZM4.875 10C4.875 11.1046 5.77043 12 6.875 12H28.0409C28.5747 12 29.0863 11.7866 29.4619 11.4073L30.0245 10.8392C30.7991 10.057 30.796 8.79602 30.0177 8.01767L29.4608 7.46079C29.0857 7.08571 28.577 6.875 28.0466 6.875H6.875C5.77043 6.875 4.875 7.77043 4.875 8.875V10ZM6.06421 26.7892C6.43929 27.1643 6.94799 27.375 7.47843 27.375H28.625C29.7296 27.375 30.625 26.4796 30.625 25.375V24.25C30.625 23.1454 29.7296 22.25 28.625 22.25H7.47272C6.94567 22.25 6.43992 22.458 6.06542 22.8289L5.50305 23.3858C4.71549 24.1657 4.71238 25.4374 5.49613 26.2211L6.06421 26.7892Z" fill="white"></path>
  </symbol>
  <symbol fill="none" xmlns="http://www.w3.org/2000/svg" viewBox="0 0 40 36" id="conversion">
    <path d="M34.1943 35.8C32.8503 35.8 31.679 35.3917 30.6804 34.575C30.1284 34.1236 29.6867 33.6188 29.3552 33.0606C28.8821 32.2639 28.1127 31.6 27.1861 31.6H18.05C15.8775 31.6 14.076 30.8837 12.6456 29.451C11.2152 28.0183 10.5 26.2142 10.5 24.0385C10.5 21.8628 11.2152 20.0625 12.6456 18.6375C14.076 17.2125 15.8775 16.5 18.05 16.5H21.9C23.2942 16.5 24.4344 16.058 25.3206 15.174C26.2069 14.29 26.65 13.1525 26.65 11.7615C26.65 10.3705 26.2069 9.22917 25.3206 8.3375C24.4344 7.44583 23.2942 7 21.9 7H12.5764C11.6655 7 10.9034 7.64051 10.4401 8.42482C10.1018 8.99731 9.65529 9.51403 9.1004 9.975C8.11737 10.7917 6.95335 11.2 5.60835 11.2C4.03612 11.2 2.70833 10.6564 1.625 9.5691C0.541667 8.48187 0 7.15687 0 5.5941C0 4.03137 0.54305 2.70833 1.62915 1.625C2.71528 0.541667 4.04078 0 5.60565 0C6.94928 0 8.11208 0.408333 9.09405 1.225C9.65209 1.6891 10.1018 2.20972 10.4432 2.78685C10.9046 3.56665 11.6642 4.2 12.5703 4.2H21.9C24.0725 4.2 25.874 4.91633 27.3044 6.349C28.7348 7.78167 29.45 9.58583 29.45 11.7615C29.45 13.9372 28.7348 15.7375 27.3044 17.1625C25.874 18.5875 24.0725 19.3 21.9 19.3H18.05C16.6558 19.3 15.5156 19.742 14.6294 20.626C13.7431 21.51 13.3 22.6475 13.3 24.0385C13.3 25.4295 13.7431 26.5708 14.6294 27.4625C15.5156 28.3542 16.6558 28.8 18.05 28.8H27.2236C28.1345 28.8 28.8966 28.1595 29.3599 27.3752C29.6982 26.8027 30.1447 26.286 30.6996 25.825C31.6826 25.0083 32.8467 24.6 34.1917 24.6C35.7639 24.6 37.0917 25.1436 38.175 26.2309C39.2583 27.3181 39.8 28.6431 39.8 30.2059C39.8 31.7686 39.257 33.0917 38.1709 34.175C37.0847 35.2583 35.7592 35.8 34.1943 35.8ZM5.6 8.325C6.3596 8.325 7.00367 8.06073 7.5322 7.5322C8.06073 7.00363 8.325 6.35957 8.325 5.6C8.325 4.84043 8.06073 4.19637 7.5322 3.6678C7.00367 3.13927 6.3596 2.875 5.6 2.875C4.8404 2.875 4.19633 3.13927 3.6678 3.6678C3.13927 4.19637 2.875 4.84043 2.875 5.6C2.875 6.35957 3.13927 7.00363 3.6678 7.5322C4.19633 8.06073 4.8404 8.325 5.6 8.325Z" fill="white"></path>
  </symbol>
  <symbol fill="none" xmlns="http://www.w3.org/2000/svg" viewBox="0 0 32 40" id="icontree">
    <path d="M4.9125 39.475C4.11859 39.475 3.475 38.8314 3.475 38.0375V38.0375C3.475 37.2436 4.11859 36.6 4.9125 36.6H12.325C13.4296 36.6 14.325 35.7046 14.325 34.6V29.6C14.325 28.4954 13.4296 27.6 12.325 27.6H9.825C7.10833 27.6 4.79167 26.6417 2.875 24.725C0.958333 22.8083 0 20.4855 0 17.7565C0 15.7838 0.545833 13.9729 1.6375 12.3237C2.51315 11.0009 3.62739 9.96198 4.98023 9.20695C5.60748 8.85688 6.06376 8.25595 6.22681 7.55636C6.68788 5.5781 7.69488 3.88971 9.2478 2.4912C11.092 0.830399 13.2659 0 15.7695 0C18.2732 0 20.4488 0.830399 22.2963 2.4912C23.8484 3.88643 24.8561 5.57017 25.3195 7.54242C25.4856 8.24916 25.9509 8.85422 26.5872 9.20374C27.9453 9.94976 29.0579 10.988 29.925 12.3183C31.0083 13.9805 31.55 15.7991 31.55 17.774C31.55 20.4913 30.5917 22.8083 28.675 24.725C26.7583 26.6417 24.4417 27.6 21.725 27.6H19.225C18.1204 27.6 17.225 28.4954 17.225 29.6V34.6C17.225 35.7046 18.1204 36.6 19.225 36.6H27.1375C27.9314 36.6 28.575 37.2436 28.575 38.0375V38.0375C28.575 38.8314 27.9314 39.475 27.1375 39.475H4.9125ZM9.8238 24.725H21.7213C23.6515 24.725 25.293 24.0504 26.6458 22.7013C27.9986 21.3521 28.675 19.7139 28.675 17.7866C28.675 16.3664 28.2792 15.076 27.4875 13.9156C26.6958 12.7552 25.6583 11.9083 24.375 11.375L23.9195 11.184C23.2448 10.901 22.7784 10.2722 22.7035 9.5444L22.65 9.025C22.4167 7.25833 21.647 5.79167 20.3409 4.625C19.0348 3.45833 17.5128 2.875 15.775 2.875C14.0372 2.875 12.5153 3.45833 11.2092 4.625C9.90305 5.79167 9.13333 7.25833 8.9 9.025L8.84465 9.56267C8.77073 10.2808 8.31556 10.9033 7.6537 11.1915L7.175 11.4C5.90833 11.9437 4.875 12.7959 4.075 13.9566C3.275 15.1173 2.875 16.396 2.875 17.7927C2.875 19.7048 3.55058 21.3383 4.90175 22.693C6.25288 24.0477 7.89357 24.725 9.8238 24.725Z" fill="white"></path>
  </symbol>
</svg>